<?xml version="1.0" encoding="UTF-8" standalone="no"?>
<!-- Created with Inkscape (http://www.inkscape.org/) -->

<svg
   xmlns:dc="http://purl.org/dc/elements/1.1/"
   xmlns:cc="http://creativecommons.org/ns#"
   xmlns:rdf="http://www.w3.org/1999/02/22-rdf-syntax-ns#"
   xmlns:svg="http://www.w3.org/2000/svg"
   xmlns="http://www.w3.org/2000/svg"
   xmlns:sodipodi="http://sodipodi.sourceforge.net/DTD/sodipodi-0.dtd"
   xmlns:inkscape="http://www.inkscape.org/namespaces/inkscape"
   width="78.032227"
   height="77.793289"
   id="svg3321"
   version="1.1"
   inkscape:version="0.48.5 r10040"
   sodipodi:docname="Documento nuevo 3">
  <defs
     id="defs3323">
    <inkscape:path-effect
       effect="spiro"
       id="path-effect4263"
       is_visible="true" />
    <inkscape:path-effect
       effect="skeletal"
       id="path-effect4265"
       is_visible="true"
       pattern="m 449.5023,79.922149 c 0,-2.76 2.24,-5 5,-5 2.76,0 5,2.24 5,5 0,2.76 -2.24,5 -5,5 -2.76,0 -5,-2.24 -5,-5 z"
       copytype="single_stretched"
       prop_scale="0.2"
       scale_y_rel="false"
       spacing="0"
       normal_offset="0"
       tang_offset="0"
       prop_units="false"
       vertical_pattern="false"
       fuse_tolerance="0" />
    <inkscape:path-effect
       is_visible="true"
       id="path-effect4177"
       effect="spiro" />
    <inkscape:path-effect
       fuse_tolerance="1.3"
       vertical_pattern="true"
       prop_units="false"
       tang_offset="1.5"
       normal_offset="0.6"
       spacing="1.3"
       scale_y_rel="true"
       prop_scale="0.1"
       copytype="single_stretched"
       pattern="m 559.00878,1797.5054 0,10 10,-5 z"
       is_visible="true"
       id="path-effect4179"
       effect="skeletal" />
    <inkscape:path-effect
       is_visible="true"
       id="path-effect4470"
       effect="spiro" />
    <inkscape:path-effect
       fuse_tolerance="0"
       vertical_pattern="false"
       prop_units="false"
       tang_offset="0"
       normal_offset="0"
       spacing="0"
       scale_y_rel="false"
       prop_scale="0.1"
       copytype="single_stretched"
       pattern="m 561.9025,78.667289 c 0,-2.76 2.24,-5 5,-5 2.76,0 5,2.24 5,5 0,2.76 -2.24,5 -5,5 -2.76,0 -5,-2.24 -5,-5 z"
       is_visible="true"
       id="path-effect4472"
       effect="skeletal" />
    <inkscape:path-effect
       effect="spiro"
       id="path-effect4499"
       is_visible="true" />
    <inkscape:path-effect
       effect="skeletal"
       id="path-effect4501"
       is_visible="true"
       pattern="m 745.70521,312.35563 c 0,-2.76 2.24,-5 5,-5 2.76,0 5,2.24 5,5 0,2.76 -2.24,5 -5,5 -2.76,0 -5,-2.24 -5,-5 z"
       copytype="single_stretched"
       prop_scale="0.1"
       scale_y_rel="false"
       spacing="0"
       normal_offset="0"
       tang_offset="0"
       prop_units="false"
       vertical_pattern="false"
       fuse_tolerance="0" />
    <inkscape:path-effect
       is_visible="true"
       id="path-effect3975"
       effect="spiro" />
    <inkscape:path-effect
       fuse_tolerance="1.3"
       vertical_pattern="true"
       prop_units="false"
       tang_offset="1.5"
       normal_offset="0.6"
       spacing="1.3"
       scale_y_rel="true"
       prop_scale="0.1"
       copytype="single_stretched"
       pattern="m 863.40749,259.52591 0,10 10,-5 z"
       is_visible="true"
       id="path-effect3977"
       effect="skeletal" />
    <inkscape:path-effect
       effect="spiro"
       id="path-effect4425"
       is_visible="true" />
    <inkscape:path-effect
       effect="skeletal"
       id="path-effect4427"
       is_visible="true"
       pattern="m 561.9025,78.667289 c 0,-2.76 2.24,-5 5,-5 2.76,0 5,2.24 5,5 0,2.76 -2.24,5 -5,5 -2.76,0 -5,-2.24 -5,-5 z"
       copytype="single_stretched"
       prop_scale="0.1"
       scale_y_rel="false"
       spacing="0"
       normal_offset="0"
       tang_offset="0"
       prop_units="false"
       vertical_pattern="false"
       fuse_tolerance="0" />
  </defs>
  <sodipodi:namedview
     id="base"
     pagecolor="#ffffff"
     bordercolor="#666666"
     borderopacity="1.0"
     inkscape:pageopacity="0.0"
     inkscape:pageshadow="2"
     inkscape:zoom="2.8"
     inkscape:cx="-45.269597"
     inkscape:cy="-52.531928"
     inkscape:document-units="px"
     inkscape:current-layer="layer1"
     showgrid="false"
     fit-margin-top="0"
     fit-margin-left="0"
     fit-margin-right="0"
     fit-margin-bottom="0"
     inkscape:window-width="1913"
     inkscape:window-height="1026"
     inkscape:window-x="0"
     inkscape:window-y="25"
     inkscape:window-maximized="1" />
  <metadata
     id="metadata3326">
    <rdf:RDF>
      <cc:Work
         rdf:about="">
        <dc:format>image/svg+xml</dc:format>
        <dc:type
           rdf:resource="http://purl.org/dc/dcmitype/StillImage" />
        <dc:title></dc:title>
      </cc:Work>
    </rdf:RDF>
  </metadata>
  <g
     inkscape:label="Capa 1"
     inkscape:groupmode="layer"
     id="layer1"
     transform="translate(-852.41245,-202.03697)">
    <g
       style="display:inline"
       id="g4903"
       transform="matrix(0.87411006,0,0,0.87411006,576.11859,-172.54191)">
      <path
         inkscape:connector-curvature="0"
         id="path3843-5-0-5-1-5-7-7"
         d="m 381.14649,506.31604 11.56468,-12.66665 -11.26195,5.97546 -8.06802,-3.88242 4.51599,5.86506 -14.7041,-2.9735 z"
         style="fill:#03d203;fill-opacity:1;stroke:none" />
      <path
         sodipodi:open="true"
         sodipodi:end="12.46847"
         sodipodi:start="6.2071318"
         transform="matrix(1.1593399,-0.0527229,0.0527229,1.1593399,170.64886,127.12431)"
         d="m 188.18086,302.26584 c 1.60882,21.11298 -14.20243,39.53264 -35.31541,41.14146 -21.11298,1.60882 -39.53265,-14.20243 -41.14146,-35.31541 -1.60882,-21.11298 14.20242,-39.53264 35.31541,-41.14146 20.78756,-1.58403 39.03095,13.733 41.0687,34.48099"
         sodipodi:ry="38.339264"
         sodipodi:rx="38.339264"
         sodipodi:cy="305.17886"
         sodipodi:cx="149.95242"
         id="path5171-6-8-8"
         style="fill:#6aa3bd;fill-opacity:1;stroke:none"
         sodipodi:type="arc" />
      <path
         transform="matrix(0.94602693,-0.04302214,0.0375366,0.82540389,150.25091,275.34177)"
         sodipodi:open="true"
         sodipodi:end="7.8186551"
         sodipodi:start="2.1239974"
         d="m 192.21037,247.22834 c -3.05367,-2.08077 -4.0005,-6.49914 -2.1148,-9.86871 1.88569,-3.36956 5.88984,-4.41434 8.94351,-2.33357 3.05367,2.08077 4.0005,6.49914 2.1148,9.8687 -1.14096,2.0388 -3.12943,3.314 -5.29964,3.39863"
         sodipodi:ry="7.1706657"
         sodipodi:rx="6.4984159"
         sodipodi:cy="241.1272"
         sodipodi:cx="195.62473"
         id="path5072-8-5-0"
         style="fill:#f1f1f1;fill-opacity:1;stroke:none"
         sodipodi:type="arc" />
      <path
         sodipodi:open="true"
         transform="matrix(0.63559243,-0.02890461,0.02521913,0.55455131,214.24748,348.68328)"
         sodipodi:end="8.0473781"
         sodipodi:start="1.8609098"
         d="m 195.29333,225.66658 c -1.43946,-0.41905 -2.25801,-1.89666 -1.82828,-3.30033 0.42973,-1.40368 1.94501,-2.20188 3.38447,-1.78283 1.43947,0.41905 2.25801,1.89666 1.82828,3.30033 -0.40063,1.30862 -1.75476,2.1067 -3.12915,1.84422"
         sodipodi:ry="2.65242"
         sodipodi:rx="2.7200418"
         sodipodi:cy="223.125"
         sodipodi:cx="196.07143"
         id="path5074-6-8-6"
         style="fill:#000000;fill-opacity:1;stroke:none"
         sodipodi:type="arc" />
      <path
         sodipodi:nodetypes="cscc"
         inkscape:connector-curvature="0"
         inkscape:original-d="m 344.88234,459.52223 c -3.43702,-0.36729 -6.62999,0.60722 -7.0796,6.13066 -0.4496,5.52343 3.36036,7.80618 7.17156,6.40891 3.49626,-2.71741 2.37659,-7.30936 -0.0919,-12.53957 z"
         inkscape:path-effect="#path-effect4263;#path-effect4265"
         id="path5076-4-8-6"
         d="m 344.88234,459.52223 c -0.0171,0.14101 -0.53431,0.17598 -1.37049,0.39038 -0.41808,0.10719 -0.9166,0.26617 -1.44817,0.52674 -0.53156,0.26056 -1.09743,0.62355 -1.60621,1.12615 0,0 0,0 0,0 -0.47701,0.46767 -0.90862,1.06517 -1.22372,1.76716 -0.3151,0.70198 -0.51373,1.50855 -0.50684,2.34144 0,0 0,0 0,0 0.004,1.43634 0.6466,3.03492 1.84846,4.09316 0.1884,0.22414 0.39626,0.43188 0.61993,0.62078 0.96717,0.81686 2.1584,1.2258 3.23084,1.19862 0.0226,-3.195 0.0755,-5.9993 0.14504,-8.12119 0.0696,-2.12189 0.1559,-3.56111 0.2568,-3.94281 0.0538,-3.8e-4 0.0544,-4.1e-4 0.0544,-4.3e-4 0,-2e-5 6e-4,-5e-5 0.0545,-4.3e-4 0.10651,0.38335 0.21424,1.86519 0.31609,4.14746 0.10185,2.28227 0.19784,5.36522 0.26955,8.86768 -1.71571,0.35193 -3.60013,0.15197 -5.21905,-0.64504 -0.37439,-0.18431 -0.72862,-0.39734 -1.05825,-0.63614 -1.66649,-1.50509 -2.44885,-3.66241 -2.36659,-5.62408 0,0 0,0 0,0 0.0521,-1.13588 0.37984,-2.17799 0.85776,-3.05234 0.47792,-0.87435 1.10537,-1.58132 1.77492,-2.10652 0,0 0,0 0,0 0.71839,-0.56009 1.46703,-0.90415 2.14369,-1.10463 0.67665,-0.20049 1.28244,-0.25872 1.77054,-0.25004 0.97621,0.0173 1.47393,0.26307 1.45686,0.40408 z"
         style="fill:#000000;fill-rule:evenodd;stroke:none" />
      <path
         sodipodi:nodetypes="cccccsscc"
         inkscape:connector-curvature="0"
         id="path5106-4-9-3"
         d="m 342.82209,451.39158 c 1.26995,-1.78713 18.52667,1.6529 34.83302,0.12471 8.84851,-0.86511 16.35146,-1.60843 21.29508,-1.47468 15.78375,29.02269 -0.84983,53.09507 -14.92491,61.65374 -9.78851,-4.27577 -20.51147,-13.14428 -20.51147,-13.14428 0,0 -5.05376,2.36485 -10.09386,2.55417 -5.04006,0.18977 -12.30124,-3.3402 -11.90083,-4.43923 0.80092,-2.19822 4.15479,-30.00176 4.15479,-30.00176 z"
         style="fill:#ffffff;fill-opacity:1;fill-rule:evenodd;stroke:none;display:inline" />
      <path
         inkscape:transform-center-x="-3.8044257"
         sodipodi:nodetypes="ccccc"
         inkscape:connector-curvature="0"
         id="path5114-3-0-6"
         d="m 372.86309,505.57726 c 0,0 6.79754,-9.29445 12.54728,-11.23571 3.7341,1.44896 4.87919,6.57558 8.02064,9.55261 -3.04423,2.83028 -5.82899,4.77422 -10.5745,7.40493 z"
         style="fill:#000000;fill-rule:evenodd;stroke:none" />
      <path
         sodipodi:nodetypes="czzzc"
         inkscape:connector-curvature="0"
         inkscape:original-d="m 370.97783,457.40105 c 0,0 2.18378,-8.62108 5.40171,-9.90108 3.21794,-1.27986 9.65345,0.2349 11.16544,3.12189 1.51201,2.88713 -4.38155,7.81703 -6.78862,8.1339 -2.40707,0.31672 -3.24779,-2.28757 -3.24779,-2.28757"
         inkscape:path-effect="#path-effect4177;#path-effect4179"
         id="path5116-8-7-8"
         d="m 369.186,455.78003 c 0.11897,-1.74115 0.61225,-3.44939 1.45082,-4.98906 1.12323,-2.05535 2.83301,-3.75533 4.89479,-4.86671 2.26402,-1.23735 4.98233,-1.69239 7.6029,-1.0732 1.30586,0.3194 2.54567,0.92469 3.61089,1.79259 1.0665,0.87048 1.91898,2.00103 2.45572,3.30066 0.53444,1.30637 0.71584,2.73813 0.51728,4.14426 0,0 0,0 0,0 -0.20116,1.40678 -0.78318,2.73929 -1.68829,3.84598 0,0 0,0 0,0 -0.90792,1.10575 -2.11198,1.94027 -3.47597,2.3998 0,0 0,0 0,0 -1.36603,0.45695 -2.8409,0.51315 -4.24469,0.15408 -1.74392,-0.45402 -3.26694,-1.52676 -4.28179,-3.01587 1.23879,1.33724 2.86986,2.09051 4.48453,2.22984 1.30126,0.10842 2.55039,-0.18547 3.57619,-0.75918 1.02545,-0.57419 1.81719,-1.42107 2.30125,-2.35518 0.48461,-0.93394 0.66658,-1.96015 0.57908,-2.89241 0,0 0,0 0,0 -0.0861,-0.93264 -0.44021,-1.79473 -0.9449,-2.45144 -0.48499,-0.63847 -1.13431,-1.11843 -1.80552,-1.41258 -0.0125,-0.0194 -0.0252,-0.0388 -0.0381,-0.058 -0.42398,-0.63574 -1.075,-1.20796 -1.8585,-1.62828 -1.55773,-0.85773 -3.734,-0.99889 -5.80161,-0.38419 0,0 0,0 0,0 -1.88776,0.56396 -3.71238,1.7473 -5.09935,3.45753 -1.03709,1.28074 -1.81879,2.84063 -2.23471,4.5614 z"
         style="fill:#000000;fill-rule:evenodd;stroke:none" />
      <path
         sodipodi:nodetypes="csscc"
         inkscape:connector-curvature="0"
         id="path5120-3-2-9"
         d="m 337.49055,464.8974 c -0.12499,-1.64307 0.28073,-2.17298 1.35866,-3.84045 1.07793,-1.66751 3.08375,-2.86657 4.99363,-1.95399 1.90988,0.91258 1.63917,3.10938 1.08848,5.4109 -0.67255,-0.41444 -2.13738,-0.54637 -3.46062,-0.44553"
         style="fill:#c1c1c1;fill-opacity:1;stroke:none" />
      <path
         sodipodi:nodetypes="csc"
         inkscape:connector-curvature="0"
         inkscape:original-d="m 336.74058,465.10271 c 0,0 0.69415,-0.63227 4.56262,-1.01079 3.86847,-0.37851 4.0287,0.16424 4.0287,0.16424"
         inkscape:path-effect="#path-effect4470;#path-effect4472"
         id="path5122-5-5-4"
         d="m 336.74058,465.10271 c -0.0482,-0.1293 0.36625,-0.42993 1.11611,-0.74056 0.74986,-0.31064 1.84083,-0.6174 3.07541,-0.73918 0.11143,-0.011 0.22207,-0.0204 0.33172,-0.0281 0,0 0,0 0,0 1.16001,-0.0824 2.20306,0.0182 2.93468,0.1746 0.73162,0.15638 1.15446,0.35665 1.1334,0.48673 -0.0421,0.26016 -1.80606,0.14084 -3.98932,0.33285 0,0 0,0 0,0 -0.10318,0.009 -0.20733,0.0188 -0.31232,0.0291 -2.32647,0.22946 -4.19323,0.74317 -4.28968,0.48457 z"
         style="fill:#000000;fill-rule:evenodd;stroke:none" />
      <path
         sodipodi:nodetypes="csc"
         inkscape:connector-curvature="0"
         inkscape:original-d="m 342.19571,458.89015 c 0,0 -1.91794,-0.40113 -3.88806,2.94954 -1.97011,3.35066 -0.4825,4.4953 -0.4825,4.4953"
         inkscape:path-effect="#path-effect4499;#path-effect4501"
         id="path5124-3-9-2"
         d="m 342.19571,458.89015 c 0.0308,0.13452 -0.47388,0.34436 -1.16717,0.79691 -0.69328,0.45254 -1.57813,1.18916 -2.19423,2.23671 -0.0302,0.0513 -0.0594,0.10283 -0.0877,0.15451 -0.56662,1.0286 -0.75084,2.11657 -0.79944,2.90883 -0.0486,0.79227 0.007,1.31016 -0.12201,1.34788 -0.12923,0.0377 -0.43406,-0.43203 -0.57064,-1.31143 -0.13658,-0.87939 -0.0496,-2.1874 0.61419,-3.42246 0.0335,-0.062 0.0683,-0.12361 0.1044,-0.18479 0.36859,-0.62454 0.83858,-1.14067 1.32248,-1.53222 0.48391,-0.39155 0.98021,-0.65943 1.41381,-0.82789 0.8672,-0.33691 1.45552,-0.30057 1.48632,-0.16605 z"
         style="fill:#000000;fill-rule:evenodd;stroke:none" />
      <path
         sodipodi:open="true"
         transform="matrix(1.2320153,0.38821867,-0.36204833,1.1489635,100.48557,121.00161)"
         sodipodi:end="7.6897772"
         sodipodi:start="2.1239974"
         d="m 250.31368,211.42682 c -2.47199,-1.41615 -3.23847,-4.42325 -1.71197,-6.71654 1.5265,-2.2933 4.76792,-3.00436 7.23992,-1.58821 2.47199,1.41615 3.23846,4.42325 1.71196,6.71654 -0.7984,1.19946 -2.11688,2.02003 -3.61601,2.25047"
         sodipodi:ry="4.8802853"
         sodipodi:rx="5.2605672"
         sodipodi:cy="207.27444"
         sodipodi:cx="253.07765"
         id="path5128-9-2-2"
         style="fill:#bfbfbf;fill-opacity:1;stroke:none"
         sodipodi:type="arc" />
      <path
         sodipodi:nodetypes="czzzc"
         inkscape:connector-curvature="0"
         inkscape:original-d="m 346.59361,459.1203 c 0,0 -3.91295,-7.98621 -7.32555,-8.57575 -3.4126,-0.58955 -9.398,2.21846 -10.28278,5.35513 -0.88481,3.13664 5.89795,6.74671 8.31865,6.56078 2.4207,-0.18592 2.70687,-2.90749 2.70687,-2.90749"
         inkscape:path-effect="#path-effect3975;#path-effect3977"
         id="path5130-6-1-7"
         d="m 344.5699,458.14025 c -0.33608,-1.18442 -0.93002,-2.30468 -1.72549,-3.234 -1.0602,-1.24369 -2.51322,-2.18537 -4.08148,-2.64512 -1.70952,-0.4856 -3.60828,-0.44082 -5.09593,0.30628 0,0 0,0 0,0 -0.75086,0.36519 -1.42759,0.88551 -1.9288,1.51582 -0.50044,0.62747 -0.85828,1.37688 -0.99274,2.13826 -0.13901,0.76027 -0.0742,1.5757 0.18968,2.29296 0,0 0,0 0,0 0.26121,0.71715 0.73082,1.37901 1.32108,1.84919 0,0 0,0 0,0 0.58768,0.47167 1.32901,0.78584 2.06933,0.86906 0,0 0,0 0,0 0.73882,0.0861 1.52655,-0.0467 2.18413,-0.37567 0.81168,-0.39752 1.50652,-1.14385 1.84509,-1.98184 -0.0881,0.94048 -0.61145,1.97716 -1.48478,2.70924 -0.70627,0.59537 -1.66593,1.0073 -2.71361,1.10549 -1.04797,0.0987 -2.19022,-0.1184 -3.22802,-0.67071 -1.03733,-0.55259 -1.9615,-1.43176 -2.60292,-2.55376 0,0 0,0 0,0 -0.63995,-1.12196 -0.99116,-2.45923 -0.95688,-3.86135 0.0369,-1.35367 0.41354,-2.72297 1.11634,-3.96351 0.0326,-0.0308 0.0653,-0.0614 0.0983,-0.0916 1.08087,-0.9896 2.32695,-1.66357 3.60975,-2.03763 0,0 0,0 0,0 2.57683,-0.73264 5.12883,-0.30566 7.15881,0.74877 0,0 0,0 0,0 1.8513,0.95957 3.29838,2.43045 4.17159,4.06619 0.65456,1.22358 0.99683,2.54842 1.04654,3.81397 z"
         style="fill:#000000;fill-rule:evenodd;stroke:none" />
      <path
         sodipodi:nodetypes="ssscs"
         inkscape:connector-curvature="0"
         id="path5134-6-2-6"
         d="m 348.1724,469.74576 c -0.94537,-5.55318 2.10865,-11.67246 8.21823,-11.08125 5.93252,0.57391 9.36134,-1.45751 12.18559,5.23138 2.1066,4.9875 5.3365,13.33068 -3.62336,14.86251 -9.70853,1.5725 -15.8351,-3.45918 -16.78046,-9.01264 z"
         style="opacity:0.76315792;fill:#000000;fill-opacity:1;stroke:none" />
      <path
         transform="matrix(1.4960934,-0.06803733,0.06803733,1.4960934,50.594207,149.73857)"
         sodipodi:open="true"
         sodipodi:end="7.6823425"
         sodipodi:start="1.400789"
         d="m 196.8863,226.38617 c -2.54305,0.42476 -4.9585,-1.23675 -5.39505,-3.71107 -0.43655,-2.47432 1.27111,-4.82448 3.81416,-5.24923 2.54305,-0.42476 4.9585,1.23675 5.39505,3.71107 0.43605,2.47146 -1.26724,4.81968 -3.80665,5.24797"
         sodipodi:ry="4.5456862"
         sodipodi:rx="4.6719556"
         sodipodi:cy="221.90602"
         sodipodi:cx="196.09586"
         id="path5136-2-4-1"
         style="fill:#ffffff;fill-opacity:1;stroke:none"
         sodipodi:type="arc" />
      <path
         sodipodi:open="true"
         transform="matrix(0.71655577,-0.03258656,0.03258656,0.71655577,211.7453,317.34945)"
         sodipodi:end="8.0473781"
         sodipodi:start="1.8609098"
         d="m 195.29333,225.66658 c -1.43946,-0.41905 -2.25801,-1.89666 -1.82828,-3.30033 0.42973,-1.40368 1.94501,-2.20188 3.38447,-1.78283 1.43947,0.41905 2.25801,1.89666 1.82828,3.30033 -0.40063,1.30862 -1.75476,2.1067 -3.12915,1.84422"
         sodipodi:ry="2.65242"
         sodipodi:rx="2.7200418"
         sodipodi:cy="223.125"
         sodipodi:cx="196.07143"
         id="path5138-8-3-5"
         style="fill:#000000;fill-opacity:1;stroke:none"
         sodipodi:type="arc" />
      <path
         sodipodi:nodetypes="csscc"
         inkscape:connector-curvature="0"
         id="path5142-3-5-1"
         d="m 352.25948,466.80534 c 0.63538,-2.19177 2.33519,-6.20816 7.83443,-5.17433 2.45662,0.46182 4.59518,1.53172 5.37464,3.66448 0.58381,1.59739 0.71886,2.07114 0.52879,3.88961 -3.85914,-5.56833 -8.50054,-4.51252 -13.73786,-2.37976 z"
         style="fill:#c1c1c1;fill-opacity:1;stroke:none" />
      <path
         sodipodi:nodetypes="csc"
         inkscape:connector-curvature="0"
         inkscape:original-d="m 352.40541,466.92538 c 0,0 1.38827,-1.2675 7.73903,-1.81688 6.35077,-0.5494 5.83517,4.16284 5.83517,4.16284"
         inkscape:path-effect="#path-effect4425;#path-effect4427"
         id="path5144-8-4-8"
         d="m 352.40541,466.92538 c -0.0433,-0.0537 0.0821,-0.24752 0.37822,-0.5268 0.29615,-0.27927 0.76698,-0.64175 1.4149,-0.98454 0.64792,-0.34279 1.47523,-0.66345 2.43614,-0.84597 0.9609,-0.18253 2.0549,-0.22437 3.17429,-0.0342 0.1494,0.0254 0.2973,0.0545 0.44343,0.0872 0,0 0,0 0,0 1.05727,0.23854 2.00479,0.66249 2.78743,1.15664 0.78264,0.49415 1.401,1.05639 1.85683,1.57424 0.45583,0.51785 0.75175,0.99014 0.92183,1.33197 0.17007,0.34182 0.21801,0.55261 0.16113,0.58744 -0.11376,0.0697 -0.60025,-0.59295 -1.56913,-1.43165 -0.96889,-0.83869 -2.48526,-1.83426 -4.37399,-2.24374 0,0 0,0 0,0 -0.13025,-0.0285 -0.26208,-0.0541 -0.39531,-0.0769 -0.99824,-0.17049 -1.97844,-0.15919 -2.85779,-0.041 -0.87934,0.11823 -1.65719,0.34232 -2.29364,0.58015 -1.2729,0.47565 -1.99766,0.97452 -2.08434,0.86714 z"
         style="fill:#000000;fill-rule:evenodd;stroke:none" />
      <path
         sodipodi:nodetypes="zzsszsz"
         inkscape:connector-curvature="0"
         id="path5152-7-0-1"
         d="m 355.43037,499.14312 c -3.71783,1.96877 -11.55303,1.67823 -15.12279,0.13174 -3.56976,-1.54633 -4.99718,-3.7562 -5.56541,-6.04629 -0.56822,-2.29009 1.71414,-9.24898 6.99786,-9.3967 5.28372,-0.1473 7.67395,-0.54033 10.98838,0.79725 3.31442,1.33757 6.81602,2.9325 8.00723,6.67623 1.19122,3.744 -1.58743,5.86885 -5.30527,7.83775 z"
         style="fill:#bca2c1;fill-opacity:1;fill-rule:evenodd;stroke:none" />
      <path
         transform="matrix(0.92294262,-0.77419188,0.77419188,0.92294262,-69.742013,477.56975)"
         sodipodi:open="true"
         sodipodi:end="7.8186551"
         sodipodi:start="2.1239974"
         d="m 259.77866,233.79214 c -1.26359,-0.49418 -1.65538,-1.54354 -0.87509,-2.34381 0.78029,-0.80027 2.43718,-1.04841 3.70076,-0.55423 1.26359,0.49419 1.65538,1.54355 0.8751,2.34382 -0.47213,0.48422 -1.29494,0.78707 -2.19296,0.80717"
         sodipodi:ry="1.7030331"
         sodipodi:rx="2.6889997"
         sodipodi:cy="232.34312"
         sodipodi:cx="261.1915"
         id="path5156-4-6-2"
         style="fill:#000000;fill-opacity:1;stroke:none"
         sodipodi:type="arc" />
      <path
         inkscape:transform-center-x="-2.023315"
         transform="matrix(-0.25831828,-1.1766341,1.1766341,-0.25831828,134.36915,857.09827)"
         sodipodi:open="true"
         sodipodi:end="7.8186551"
         sodipodi:start="2.1239974"
         d="m 259.77866,233.79214 c -1.26359,-0.49418 -1.65538,-1.54354 -0.87509,-2.34381 0.78029,-0.80027 2.43718,-1.04841 3.70076,-0.55423 1.26359,0.49419 1.65538,1.54355 0.8751,2.34382 -0.47213,0.48422 -1.29494,0.78707 -2.19296,0.80717"
         sodipodi:ry="1.7030331"
         sodipodi:rx="2.6889997"
         sodipodi:cy="232.34312"
         sodipodi:cx="261.1915"
         id="path5158-9-5-0"
         style="fill:#000000;fill-opacity:1;stroke:none"
         sodipodi:type="arc" />
      <path
         sodipodi:type="arc"
         style="fill:#f9f9f9;fill-opacity:1;stroke:none"
         id="path5168-4-1-1"
         sodipodi:cx="223.81763"
         sodipodi:cy="230.54306"
         sodipodi:rx="9.7850542"
         sodipodi:ry="8.0387821"
         d="m 218.67643,237.38283 c -4.5981,-2.33267 -6.02379,-7.28595 -3.18439,-11.06345 2.83941,-3.77751 8.86869,-4.94877 13.46679,-2.61609 4.59809,2.33267 6.02379,7.28595 3.18438,11.06346 -1.71802,2.28562 -4.71218,3.7152 -7.97998,3.81008"
         transform="matrix(0.82540389,-0.0375366,0.0375366,0.82540389,185.09015,272.28577)"
         sodipodi:start="2.1239974"
         sodipodi:end="7.8186551"
         sodipodi:open="true" />
    </g>
  </g>
</svg>
