<?xml version="1.0" encoding="UTF-8" standalone="no"?>
<!-- Created with Inkscape (http://www.inkscape.org/) -->

<svg
   xmlns:dc="http://purl.org/dc/elements/1.1/"
   xmlns:cc="http://creativecommons.org/ns#"
   xmlns:rdf="http://www.w3.org/1999/02/22-rdf-syntax-ns#"
   xmlns:svg="http://www.w3.org/2000/svg"
   xmlns="http://www.w3.org/2000/svg"
   xmlns:sodipodi="http://sodipodi.sourceforge.net/DTD/sodipodi-0.dtd"
   xmlns:inkscape="http://www.inkscape.org/namespaces/inkscape"
   width="90"
   height="90"
   viewBox="0 0 90.000001 90.000001"
   id="svg8021"
   version="1.1"
   inkscape:version="0.91 r13725"
   sodipodi:docname="shutdown.svg"
   inkscape:export-filename="/home/digitalh/repos/huayra-mdm-themes/usr/share/mdm/html-themes/huayra_ocho/img/shutdown.png"
   inkscape:export-xdpi="90.457581"
   inkscape:export-ydpi="90.457581">
  <defs
     id="defs8023">
    <filter
       style="color-interpolation-filters:sRGB"
       inkscape:label="Drop Shadow"
       id="filter6621">
      <feFlood
         flood-opacity="1"
         flood-color="rgb(0,0,0)"
         result="flood"
         id="feFlood6623" />
      <feComposite
         in="flood"
         in2="SourceGraphic"
         operator="in"
         result="composite1"
         id="feComposite6625" />
      <feGaussianBlur
         in="composite1"
         stdDeviation="6"
         result="blur"
         id="feGaussianBlur6627" />
      <feOffset
         dx="0"
         dy="0"
         result="offset"
         id="feOffset6629" />
      <feComposite
         in="SourceGraphic"
         in2="offset"
         operator="over"
         result="composite2"
         id="feComposite6631" />
    </filter>
    <filter
       style="color-interpolation-filters:sRGB"
       inkscape:label="Drop Shadow"
       id="filter6597">
      <feFlood
         flood-opacity="1"
         flood-color="rgb(0,0,0)"
         result="flood"
         id="feFlood6599" />
      <feComposite
         in="flood"
         in2="SourceGraphic"
         operator="in"
         result="composite1"
         id="feComposite6601" />
      <feGaussianBlur
         in="composite1"
         stdDeviation="6"
         result="blur"
         id="feGaussianBlur6603" />
      <feOffset
         dx="0"
         dy="0"
         result="offset"
         id="feOffset6605" />
      <feComposite
         in="SourceGraphic"
         in2="offset"
         operator="over"
         result="composite2"
         id="feComposite6607" />
    </filter>
    <filter
       style="color-interpolation-filters:sRGB"
       inkscape:label="Drop Shadow"
       id="filter3910">
      <feFlood
         flood-opacity="1"
         flood-color="rgb(0,0,0)"
         result="flood"
         id="feFlood3912" />
      <feComposite
         in="flood"
         in2="SourceGraphic"
         operator="in"
         result="composite1"
         id="feComposite3914" />
      <feGaussianBlur
         in="composite1"
         stdDeviation="1"
         result="blur"
         id="feGaussianBlur3916" />
      <feOffset
         dx="0"
         dy="0"
         result="offset"
         id="feOffset3918" />
      <feComposite
         in="SourceGraphic"
         in2="offset"
         operator="over"
         result="composite2"
         id="feComposite3920" />
    </filter>
  </defs>
  <sodipodi:namedview
     id="base"
     pagecolor="#ffffff"
     bordercolor="#666666"
     borderopacity="1.0"
     inkscape:pageopacity="0.0"
     inkscape:pageshadow="2"
     inkscape:zoom="1"
     inkscape:cx="64.73644"
     inkscape:cy="83.219818"
     inkscape:document-units="px"
     inkscape:current-layer="layer1"
     showgrid="false"
     units="px"
     fit-margin-top="4"
     fit-margin-left="4"
     fit-margin-right="4"
     fit-margin-bottom="4"
     inkscape:window-width="1920"
     inkscape:window-height="1029"
     inkscape:window-x="1440"
     inkscape:window-y="27"
     inkscape:window-maximized="1" />
  <metadata
     id="metadata8026">
    <rdf:RDF>
      <cc:Work
         rdf:about="">
        <dc:format>image/svg+xml</dc:format>
        <dc:type
           rdf:resource="http://purl.org/dc/dcmitype/StillImage" />
        <dc:title></dc:title>
      </cc:Work>
    </rdf:RDF>
  </metadata>
  <g
     inkscape:label="Capa 1"
     inkscape:groupmode="layer"
     id="layer1"
     transform="translate(-181.92769,140.93939)">
    <path
       style="opacity:1;fill:#ff6600;fill-opacity:1;stroke:none;stroke-width:1.5;stroke-linecap:round;stroke-linejoin:round;stroke-miterlimit:4;stroke-dasharray:none;stroke-opacity:0.97816593;filter:url(#filter3910)"
       d="m 222.12984,-129.52631 0,47.980473 9.5957,0 0,-47.980473 -9.5957,0 z m -14.39453,4.79688 0,4.79883 -4.79883,0 0,4.79882 -4.79688,0 0,4.79688 -4.79883,0 0,4.79883 0,4.79883 0,4.796872 0,4.798828 0,4.796875 0,4.798828 4.79883,0 0,4.798829 4.79688,0 0,4.796875 4.79883,0 0,4.798828 4.79882,0 0,4.798828 4.79688,0 4.79883,0 4.79687,0 4.79883,0 4.79883,0 4.79687,0 0,-4.798828 4.79883,0 0,-4.798828 4.79883,0 0,-4.796875 4.79687,0 0,-4.798829 4.79883,0 0,-4.798828 0,-4.796875 0,-4.798828 0,-4.796872 0,-4.79883 0,-4.79883 -4.79883,0 0,-4.79688 -4.79687,0 0,-4.79882 -4.79883,0 0,-4.79883 -4.79883,0 -4.79687,0 0,4.79883 4.79687,0 0,4.79882 4.79883,0 0,4.79688 4.79883,0 0,4.79883 0,4.79883 0,4.796872 0,4.798828 0,4.796875 0,4.798828 -4.79883,0 0,4.798829 -4.79883,0 0,4.796875 -4.79687,0 -4.79883,0 -4.79883,0 -4.79687,0 -4.79883,0 -4.79688,0 0,-4.796875 -4.79882,0 0,-4.798829 -4.79883,0 0,-4.798828 0,-4.796875 0,-4.798828 0,-4.796872 0,-4.79883 0,-4.79883 4.79883,0 0,-4.79688 4.79882,0 4.79688,0 0,-4.79882 0,-4.79883 -4.79688,0 -4.79882,0 z"
       id="rect3058"
       inkscape:connector-curvature="0" />
    <g
       style="fill:#ff6600"
       id="layer2"
       inkscape:label="Capa 2"
       transform="matrix(0.29988311,0,0,0.29988311,193.04353,-134.59427)" />
  </g>
</svg>
