<?xml version="1.0" encoding="UTF-8" standalone="no"?>
<svg
   xmlns:dc="http://purl.org/dc/elements/1.1/"
   xmlns:cc="http://creativecommons.org/ns#"
   xmlns:rdf="http://www.w3.org/1999/02/22-rdf-syntax-ns#"
   xmlns:svg="http://www.w3.org/2000/svg"
   xmlns="http://www.w3.org/2000/svg"
   xmlns:xlink="http://www.w3.org/1999/xlink"
   xmlns:sodipodi="http://sodipodi.sourceforge.net/DTD/sodipodi-0.dtd"
   xmlns:inkscape="http://www.inkscape.org/namespaces/inkscape"
   version="1.0"
   width="128"
   height="128"
   id="svg2250"
   inkscape:version="0.48.5 r10040"
   sodipodi:docname="kde.svg">
  <metadata
     id="metadata68">
    <rdf:RDF>
      <cc:Work
         rdf:about="">
        <dc:format>image/svg+xml</dc:format>
        <dc:type
           rdf:resource="http://purl.org/dc/dcmitype/StillImage" />
      </cc:Work>
    </rdf:RDF>
  </metadata>
  <sodipodi:namedview
     pagecolor="#ffffff"
     bordercolor="#666666"
     borderopacity="1"
     objecttolerance="10"
     gridtolerance="10"
     guidetolerance="10"
     inkscape:pageopacity="0"
     inkscape:pageshadow="2"
     inkscape:window-width="1914"
     inkscape:window-height="1031"
     id="namedview66"
     showgrid="false"
     inkscape:zoom="1.84375"
     inkscape:cx="64"
     inkscape:cy="64"
     inkscape:window-x="0"
     inkscape:window-y="25"
     inkscape:window-maximized="1"
     inkscape:current-layer="svg2250" />
  <defs
     id="defs2252">
    <radialGradient
       cx="76.764198"
       cy="58.0625"
       r="66.164497"
       id="XMLID_27_"
       gradientUnits="userSpaceOnUse"
       gradientTransform="matrix(0.9397,0,0,0.9397,4.2153,4.1331)">
      <stop
         style="stop-color:#ffffff;stop-opacity:1"
         offset="0"
         id="stop107" />
      <stop
         style="stop-color:#fdfdfc;stop-opacity:1"
         offset="0.32780001"
         id="stop109" />
      <stop
         style="stop-color:#f4f5f4;stop-opacity:1"
         offset="0.6773591"
         id="stop111" />
      <stop
         style="stop-color:#cacfd0;stop-opacity:1"
         offset="1"
         id="stop113" />
    </radialGradient>
    <radialGradient
       cx="66.136703"
       cy="0.75440001"
       r="81.971497"
       id="XMLID_25_"
       gradientUnits="userSpaceOnUse"
       gradientTransform="matrix(0.9459,0,0,1,1051.1319,-330.17143)">
      <stop
         style="stop-color:#ffffff;stop-opacity:1"
         offset="0.1302"
         id="stop95" />
      <stop
         style="stop-color:#ffffff;stop-opacity:0.16862746"
         offset="0.5"
         id="stop97" />
    </radialGradient>
    <filter
       x="-0.29221493"
       width="1.5844299"
       y="-0.057434313"
       height="1.1148686"
       id="filter4446">
      <feGaussianBlur
         collect="always"
         stdDeviation="2.4087233"
         id="feGaussianBlur4448" />
    </filter>
    <filter
       x="-0.29221493"
       width="1.5844299"
       y="-0.057434313"
       height="1.1148686"
       id="filter4442">
      <feGaussianBlur
         collect="always"
         stdDeviation="2.4087233"
         id="feGaussianBlur4444" />
    </filter>
    <linearGradient
       x1="115.9771"
       y1="72.399902"
       x2="115.9771"
       y2="120.3999"
       id="XMLID_23_"
       gradientUnits="userSpaceOnUse">
      <stop
         style="stop-color:#00316e;stop-opacity:0"
         offset="0"
         id="stop79" />
      <stop
         style="stop-color:#00316e;stop-opacity:1"
         offset="1"
         id="stop81" />
    </linearGradient>
    <clipPath
       id="clipPath4458">
      <path
         d="m 69.626,12.145 -0.052,0 c -22.727,-0.292 -46.472,4.077 -46.709,4.122 -2.424,0.451 -4.946,2.974 -5.397,5.397 -0.044,0.237 -4.414,23.983 -4.122,46.71 -0.292,22.777 4.078,46.523 4.122,46.761 0.451,2.423 2.974,4.945 5.398,5.398 0.237,0.044 23.982,4.413 46.709,4.121 22.779,0.292 46.524,-4.077 46.761,-4.121 2.423,-0.452 4.946,-2.976 5.398,-5.399 0.044,-0.236 4.413,-23.981 4.121,-46.709 0.292,-22.777 -4.077,-46.523 -4.121,-46.761 -0.453,-2.423 -2.976,-4.946 -5.398,-5.397 -0.238,-0.045 -23.984,-4.414 -46.71,-4.122 z"
         id="use4460"
         inkscape:connector-curvature="0" />
    </clipPath>
    <filter
       id="AI_Sfocatura_4">
      <feGaussianBlur
         stdDeviation="4"
         id="feGaussianBlur6" />
    </filter>
    <radialGradient
       cx="69.600098"
       cy="145.3999"
       r="141"
       id="XMLID_21_"
       gradientUnits="userSpaceOnUse"
       gradientTransform="translate(1047.3429,-330.17143)">
      <stop
         style="stop-color:#2c72c7;stop-opacity:0"
         offset="0.3373"
         id="stop58" />
      <stop
         style="stop-color:#2c72c7;stop-opacity:1"
         offset="0.57990003"
         id="stop60" />
      <stop
         style="stop-color:#2c72c7;stop-opacity:0"
         offset="1"
         id="stop62" />
    </radialGradient>
    <radialGradient
       cx="69.600098"
       cy="68.399902"
       r="85"
       id="XMLID_20_"
       gradientUnits="userSpaceOnUse"
       gradientTransform="translate(1047.3429,-330.17143)">
      <stop
         style="stop-color:#6193ff;stop-opacity:1"
         offset="0.5"
         id="stop47" />
      <stop
         style="stop-color:#003685;stop-opacity:1"
         offset="0.78109998"
         id="stop49" />
      <stop
         style="stop-color:#709dff;stop-opacity:1"
         offset="1"
         id="stop51" />
    </radialGradient>
    <linearGradient
       x1="9.5995998"
       y1="68.399902"
       x2="129.6001"
       y2="68.399902"
       id="XMLID_18_"
       gradientUnits="userSpaceOnUse"
       gradientTransform="matrix(-1,-4.371139e-8,4.371139e-8,-1,1186.5436,-193.37143)">
      <stop
         style="stop-color:#003685;stop-opacity:1"
         offset="0"
         id="stop13" />
      <stop
         style="stop-color:#083c8f;stop-opacity:1"
         offset="0.0105"
         id="stop15" />
      <stop
         style="stop-color:#2451b1;stop-opacity:1"
         offset="0.0533"
         id="stop17" />
      <stop
         style="stop-color:#3b63cd;stop-opacity:1"
         offset="0.099"
         id="stop19" />
      <stop
         style="stop-color:#4d71e3;stop-opacity:1"
         offset="0.1477"
         id="stop21" />
      <stop
         style="stop-color:#597bf3;stop-opacity:1"
         offset="0.20100001"
         id="stop23" />
      <stop
         style="stop-color:#6180fc;stop-opacity:1"
         offset="0.2622"
         id="stop25" />
      <stop
         style="stop-color:#6382ff;stop-opacity:1"
         offset="0.34909999"
         id="stop27" />
      <stop
         style="stop-color:#6382ff;stop-opacity:1"
         offset="0.58579999"
         id="stop31" />
      <stop
         style="stop-color:#003685;stop-opacity:1"
         offset="1"
         id="stop33" />
    </linearGradient>
    <filter
       id="filter2904">
      <feGaussianBlur
         collect="always"
         stdDeviation="2.32"
         id="feGaussianBlur2906" />
    </filter>
    <linearGradient
       x1="9.5995998"
       y1="68.399902"
       x2="129.6001"
       y2="68.399902"
       id="linearGradient2235"
       xlink:href="#XMLID_18_"
       gradientUnits="userSpaceOnUse"
       gradientTransform="matrix(-1,-4.371139e-8,4.371139e-8,-1,133.6007,132.4)" />
    <radialGradient
       cx="69.600098"
       cy="68.399902"
       r="85"
       id="radialGradient2237"
       xlink:href="#XMLID_20_"
       gradientUnits="userSpaceOnUse"
       gradientTransform="matrix(0.9824561,0,0,0.9824561,-4.3789474,-3.2)" />
    <radialGradient
       cx="69.600098"
       cy="145.3999"
       r="141"
       id="radialGradient2239"
       xlink:href="#XMLID_21_"
       gradientUnits="userSpaceOnUse"
       gradientTransform="translate(-5.5999998,-4.4)" />
    <linearGradient
       x1="108.00493"
       y1="72.341148"
       x2="115.9771"
       y2="102.0937"
       id="linearGradient2241"
       xlink:href="#XMLID_23_"
       gradientUnits="userSpaceOnUse" />
    <linearGradient
       x1="108.00493"
       y1="72.341148"
       x2="115.9771"
       y2="102.0937"
       id="linearGradient2243"
       xlink:href="#XMLID_23_"
       gradientUnits="userSpaceOnUse" />
    <radialGradient
       cx="110.74259"
       cy="123.17536"
       r="81.292717"
       fx="110.74259"
       fy="123.17536"
       id="radialGradient2247"
       xlink:href="#XMLID_27_"
       gradientUnits="userSpaceOnUse"
       gradientTransform="matrix(0.4136693,-0.5587442,-0.4989925,-0.3694316,79.652783,167.07706)" />
    <linearGradient
       x1="67.629204"
       y1="-2.1941743"
       x2="67.629204"
       y2="78.850853"
       id="linearGradient2802"
       xlink:href="#XMLID_25_"
       gradientUnits="userSpaceOnUse"
       gradientTransform="translate(0,2)" />
    <linearGradient
       inkscape:collect="always"
       xlink:href="#XMLID_25_"
       id="linearGradient3046"
       gradientUnits="userSpaceOnUse"
       gradientTransform="translate(244.61017,-11.762712)"
       x1="67.629204"
       y1="-2.1941743"
       x2="67.629204"
       y2="78.850853" />
    <radialGradient
       inkscape:collect="always"
       xlink:href="#XMLID_21_"
       id="radialGradient3059"
       gradientUnits="userSpaceOnUse"
       gradientTransform="translate(154.94237,23.6)"
       cx="69.600098"
       cy="145.3999"
       r="141" />
    <radialGradient
       inkscape:collect="always"
       xlink:href="#XMLID_20_"
       id="radialGradient3062"
       gradientUnits="userSpaceOnUse"
       gradientTransform="matrix(0.9824561,0,0,0.9824561,-4.3789474,-7.2)"
       cx="69.600098"
       cy="68.399902"
       r="85" />
    <linearGradient
       inkscape:collect="always"
       xlink:href="#XMLID_23_"
       id="linearGradient3067"
       gradientUnits="userSpaceOnUse"
       x1="108.00493"
       y1="72.341148"
       x2="115.9771"
       y2="102.0937" />
    <linearGradient
       inkscape:collect="always"
       xlink:href="#XMLID_23_"
       id="linearGradient3069"
       gradientUnits="userSpaceOnUse"
       x1="108.00493"
       y1="72.341148"
       x2="115.9771"
       y2="102.0937" />
  </defs>
  <path
     inkscape:connector-curvature="0"
     id="path35"
     style="fill:#6281fe;fill-opacity:1"
     d="m 4.000002,19.254237 c 0,-8.8 7.2,-15.9999997 16,-15.9999997 l 87.999998,0 c 8.8,0 16,7.1999997 16,15.9999997 l 0,88.000003 c 0,8.8 -7.2,16 -16,16 l -87.999998,0 c -8.8,0 -16,-7.2 -16,-16 l 0,-88.000003 z" />
  <path
     inkscape:connector-curvature="0"
     id="path159"
     style="fill:url(#XMLID_29_);stroke:#2c72c7;stroke-width:2;stroke-linejoin:round"
     d="" />
  <path
     inkscape:connector-curvature="0"
     id="path5692_1_"
     style="fill:#ffffff;fill-opacity:1"
     d="m 68.906252,21.510199 -14.625,1.40625 0,60.25 14.46875,-2.1875 0,-25.6875 19.46875,28.5 15.249998,-4.84375 -19.937498,-27.40625 20.093748,-25.84375 -15.562498,-3.5625 -19.3125,25.84375 0.15625,-26.46875 z m -33.15625,14.6875 c -0.165374,0.01706 -0.34425,0.06275 -0.46875,0.1875 l -5.75,5.75 c -0.241499,0.242246 -0.270998,0.613003 -0.09375,0.90625 l 6.71875,11.09375 c -1.192994,2.005487 -2.161754,4.156762 -2.84375,6.4375 l -12.34375,2.5625 c -0.343499,0.071 -0.59375,0.398002 -0.59375,0.75 l 0,8.125 c 0,0.343498 0.261249,0.637747 0.59375,0.71875 l 11.96875,2.90625 c 0.639996,2.640486 1.628759,5.167263 2.9375,7.46875 l -6.9375,10.5625 c -0.193499,0.295 -0.155746,0.688501 0.09375,0.9375 l 5.75,5.750001 c 0.242246,0.24149 0.613751,0.27174 0.90625,0.0937 l 10.875,-6.593751 c 2.13299,1.231493 4.442266,2.218 6.875,2.875 l 2.53125,12.187501 c 0.071,0.3445 0.367003,0.59375 0.71875,0.59375 l 8.125,0 c 0.340999,0 0.637752,-0.229 0.71875,-0.5625 l 3,-12.250001 c 2.508985,-0.676496 4.874511,-1.680761 7.0625,-2.96875 l 10.71875,7.031251 c 0.295498,0.1925 0.687001,0.15525 0.9375,-0.0937 l 5.71875,-5.750001 c 0.242998,-0.242496 0.302996,-0.613751 0.125,-0.90625 l -3.90625,-6.4375 -1.28125,0.40625 c -0.185002,0.057 -0.390003,-0.0265 -0.5,-0.1875 -10e-7,-10e-7 -2.467514,-3.629779 -5.6875,-8.34375 -3.850977,7.535454 -11.704553,12.6875 -20.75,12.6875 -12.853426,-2e-6 -23.28125,-10.427824 -23.28125,-23.28125 0,-9.454695 5.653795,-17.575271 13.75,-21.21875 l 0,-6 c -1.473491,0.515746 -2.897006,1.138001 -4.25,1.875 -0.0025,-0.0015 0.0025,-0.02975 0,-0.03125 l -10.96875,-7.1875 c -0.147499,-0.0965 -0.303376,-0.110813 -0.46875,-0.09375 z" />
</svg>
