<?xml version="1.0" encoding="UTF-8" standalone="no"?>
<!-- Created with Inkscape (http://www.inkscape.org/) -->

<svg
   xmlns:dc="http://purl.org/dc/elements/1.1/"
   xmlns:cc="http://creativecommons.org/ns#"
   xmlns:rdf="http://www.w3.org/1999/02/22-rdf-syntax-ns#"
   xmlns:svg="http://www.w3.org/2000/svg"
   xmlns="http://www.w3.org/2000/svg"
   xmlns:sodipodi="http://sodipodi.sourceforge.net/DTD/sodipodi-0.dtd"
   xmlns:inkscape="http://www.inkscape.org/namespaces/inkscape"
   width="256"
   height="256"
   id="svg10175"
   version="1.1"
   inkscape:version="0.48.5 r10040"
   sodipodi:docname="colombia.svg">
  <defs
     id="defs10177">
    <clipPath
       clipPathUnits="userSpaceOnUse"
       id="clipPath1974">
      <path
         inkscape:connector-curvature="0"
         d="m 7249.71,4720.71 831.84,0 0,-485.23 -831.84,0 0,485.23 z"
         id="path1976" />
    </clipPath>
    <clipPath
       clipPathUnits="userSpaceOnUse"
       id="clipPath2592">
      <path
         inkscape:connector-curvature="0"
         d="m 4255.95,3144.86 831.83,0 0,-485.24 -831.83,0 0,485.24 z"
         id="path2594" />
    </clipPath>
    <clipPath
       clipPathUnits="userSpaceOnUse"
       id="clipPath4326">
      <path
         inkscape:connector-curvature="0"
         d="m 6251.82,2356.93 831.81,0 0,-485.24 -831.81,0 0,485.24 z"
         id="path4328" />
    </clipPath>
    <clipPath
       clipPathUnits="userSpaceOnUse"
       id="clipPath4316">
      <path
         inkscape:connector-curvature="0"
         d="m 6602.15,2135.59 15.74,0 0,40.82 -15.74,0 0,-40.82 z"
         id="path4318" />
    </clipPath>
    <clipPath
       clipPathUnits="userSpaceOnUse"
       id="clipPath4132">
      <path
         inkscape:connector-curvature="0"
         d="m 6251.82,2356.93 831.81,0 0,-485.24 -831.81,0 0,485.24 z"
         id="path4134" />
    </clipPath>
    <clipPath
       clipPathUnits="userSpaceOnUse"
       id="clipPath4122">
      <path
         inkscape:connector-curvature="0"
         d="m 6717.36,2134.97 15.75,0 0,40.83 -15.75,0 0,-40.83 z"
         id="path4124" />
    </clipPath>
    <clipPath
       clipPathUnits="userSpaceOnUse"
       id="clipPath3956">
      <path
         inkscape:connector-curvature="0"
         d="m 6251.82,2356.93 831.81,0 0,-485.24 -831.81,0 0,485.24 z"
         id="path3958" />
    </clipPath>
    <clipPath
       clipPathUnits="userSpaceOnUse"
       id="clipPath3942">
      <path
         inkscape:connector-curvature="0"
         d="m 6251.82,1871.69 831.81,0 0,485.24 -831.81,0 0,-485.24 z"
         id="path3944" />
    </clipPath>
    <clipPath
       clipPathUnits="userSpaceOnUse"
       id="clipPath3444">
      <path
         inkscape:connector-curvature="0"
         d="m 7719.99,2876.24 c -2.4,-2.11 -3.55,-4.84 -2.58,-6.12 1,-1.26 3.77,-0.58 6.17,1.53 2.42,2.11 3.58,4.84 2.58,6.12 -0.33,0.42 -0.88,0.62 -1.54,0.62 -1.29,0 -3.03,-0.77 -4.63,-2.15"
         id="path3446" />
    </clipPath>
    <clipPath
       clipPathUnits="userSpaceOnUse"
       id="clipPath3450">
      <path
         inkscape:connector-curvature="0"
         d="m 7711.79,2874.39 9.14,-10.91 10.86,9.38 -9.15,10.9 -10.85,-9.37"
         id="path3452" />
    </clipPath>
    <clipPath
       clipPathUnits="userSpaceOnUse"
       id="clipPath2642">
      <path
         inkscape:connector-curvature="0"
         d="m 7249.73,3144.86 831.82,0 0,-485.24 -831.82,0 0,485.24 z"
         id="path2644" />
    </clipPath>
    <clipPath
       clipPathUnits="userSpaceOnUse"
       id="clipPath2626">
      <path
         inkscape:connector-curvature="0"
         d="m 7594.99,2905.96 c -1.95,-1.05 -2.3,-4.29 -0.76,-7.22 1.54,-2.95 4.37,-4.47 6.34,-3.4 1.96,1.06 2.31,4.3 0.77,7.23 -1.22,2.3 -3.21,3.73 -4.96,3.73 -0.49,0 -0.96,-0.1 -1.39,-0.34"
         id="path2628" />
    </clipPath>
    <clipPath
       clipPathUnits="userSpaceOnUse"
       id="clipPath2632">
      <path
         inkscape:connector-curvature="0"
         d="m 7603.98,2894.39 -1.2,12.86 -11.19,-1.05 1.19,-12.89 11.2,1.08"
         id="path2634" />
    </clipPath>
    <clipPath
       clipPathUnits="userSpaceOnUse"
       id="clipPath2588">
      <path
         inkscape:connector-curvature="0"
         d="m 7249.73,3144.86 831.82,0 0,-485.24 -831.82,0 0,485.24 z"
         id="path2590" />
    </clipPath>
    <clipPath
       clipPathUnits="userSpaceOnUse"
       id="clipPath2572">
      <path
         inkscape:connector-curvature="0"
         d="m 7627.84,2885.16 c -0.47,-3.02 0.8,-5.76 2.83,-6.09 2.03,-0.33 4.06,1.88 4.56,4.92 0.46,3.05 -0.81,5.76 -2.84,6.1 -0.14,0.02 -0.27,0.03 -0.41,0.03 -1.89,0 -3.69,-2.1 -4.14,-4.96"
         id="path2574" />
    </clipPath>
    <clipPath
       clipPathUnits="userSpaceOnUse"
       id="clipPath2578">
      <path
         inkscape:connector-curvature="0"
         d="m 7623.39,2880.42 11.07,-4.67 5.22,12.7 -11.08,4.66 -5.21,-12.69"
         id="path2580" />
    </clipPath>
    <clipPath
       clipPathUnits="userSpaceOnUse"
       id="clipPath1896">
      <path
         inkscape:connector-curvature="0"
         d="m 7249.73,3144.86 831.82,0 0,-485.24 -831.82,0 0,485.24 z"
         id="path1898" />
    </clipPath>
    <clipPath
       clipPathUnits="userSpaceOnUse"
       id="clipPath2082">
      <path
         inkscape:connector-curvature="0"
         d="m 3258.03,3932.79 831.83,0 0,-485.24 -831.83,0 0,485.24 z"
         id="path2084" />
    </clipPath>
    <clipPath
       clipPathUnits="userSpaceOnUse"
       id="clipPath3750">
      <path
         inkscape:connector-curvature="0"
         d="m 7249.71,3940.56 831.84,0 0,-485.23 -831.84,0 0,485.23 z"
         id="path3752" />
    </clipPath>
  </defs>
  <sodipodi:namedview
     id="base"
     pagecolor="#ffffff"
     bordercolor="#666666"
     borderopacity="1.0"
     inkscape:pageopacity="0.0"
     inkscape:pageshadow="2"
     inkscape:zoom="1.9826475"
     inkscape:cx="155.51589"
     inkscape:cy="144.98986"
     inkscape:document-units="px"
     inkscape:current-layer="layer1"
     showgrid="false"
     inkscape:window-width="1914"
     inkscape:window-height="1031"
     inkscape:window-x="0"
     inkscape:window-y="25"
     inkscape:window-maximized="1"
     showguides="true"
     inkscape:guide-bbox="true">
    <sodipodi:guide
       orientation="0,1"
       position="215.14793,207.63483"
       id="guide10398" />
    <sodipodi:guide
       orientation="0,1"
       position="191.92561,58.7388"
       id="guide10400" />
  </sodipodi:namedview>
  <metadata
     id="metadata10180">
    <rdf:RDF>
      <cc:Work
         rdf:about="">
        <dc:format>image/svg+xml</dc:format>
        <dc:type
           rdf:resource="http://purl.org/dc/dcmitype/StillImage" />
        <dc:title></dc:title>
      </cc:Work>
    </rdf:RDF>
  </metadata>
  <g
     inkscape:label="Capa 1"
     inkscape:groupmode="layer"
     id="layer1"
     transform="translate(0,-796.36218)">
    <g
       id="g3746"
       transform="matrix(0.3068565,0,0,-0.3068565,-2224.1555,2053.9139)">
      <g
         clip-path="url(#clipPath3750)"
         id="g3748">
        <path
           inkscape:connector-curvature="0"
           id="path3754"
           style="fill:#ffffff;fill-opacity:1;fill-rule:nonzero;stroke:none"
           d="m 7249.71,3617.08 831.844,0 0,161.75 -831.844,0 0,-161.75 z" />
        <path
           inkscape:connector-curvature="0"
           id="path3756"
           style="fill:#80a7d8;fill-opacity:1;fill-rule:nonzero;stroke:none"
           d="m 7249.71,3778.83 831.844,0 0,161.73 -831.844,0 0,-161.73 z" />
        <path
           inkscape:connector-curvature="0"
           id="path3758"
           style="fill:#80a7d8;fill-opacity:1;fill-rule:nonzero;stroke:none"
           d="m 7249.71,3455.33 831.844,0 0,161.75 -831.844,0 0,-161.75 z" />
        <path
           inkscape:connector-curvature="0"
           id="path3760"
           style="fill:#f1bd51;fill-opacity:1;fill-rule:nonzero;stroke:none"
           d="m 7662.31,3697.97 2.5,-66.17 c 0,0 0,-1.23 0.84,-1.23 0.8,0 0.8,1.23 0.8,1.23 l 2.51,66.17 -6.65,0" />
        <path
           inkscape:connector-curvature="0"
           id="path3762"
           style="fill:#7a361d;fill-opacity:1;fill-rule:nonzero;stroke:none"
           d="m 7665.65,3630.36 c -0.83,0 -1.04,0.94 -1.04,1.44 l -2.5,66.16 0.41,0.02 2.5,-66.17 c 0,-0.02 0.01,-1.04 0.63,-1.04 0.59,0 0.6,1.02 0.6,1.03 l 2.51,66.18 -2.1,-66.19 c 0,-0.49 -0.21,-1.43 -1.01,-1.43 l 0,0" />
        <path
           inkscape:connector-curvature="0"
           id="path3764"
           style="fill:#7a361d;fill-opacity:1;fill-rule:nonzero;stroke:none"
           d="m 7663.98,3697.97 1.67,-45.42 1.64,45.42 -3.31,0" />
        <path
           inkscape:connector-curvature="0"
           id="path3766"
           style="fill:#f1bd51;fill-opacity:1;fill-rule:nonzero;stroke:none"
           d="m 7659.4,3676.58 c -3.81,-8.33 -0.57,-15.13 -4.35,-22.39 -3.81,-7.26 -1.44,-13.26 -1.7,-16.57 -0.24,-3.35 -2.98,-4.26 -2.28,-5.07 0.68,-0.75 3.55,0.78 4.65,5.21 1.1,4.43 -1.53,6.98 3.01,15.88 4.58,8.93 0.94,12.94 5.52,20.91 l -4.85,2.03" />
        <path
           inkscape:connector-curvature="0"
           id="path3768"
           style="fill:#7a361d;fill-opacity:1;fill-rule:nonzero;stroke:none"
           d="m 7651.81,3632.19 -0.89,0.23 c -0.41,0.47 0.01,0.95 0.49,1.51 0.64,0.72 1.61,1.83 1.73,3.71 0.07,0.88 -0.04,1.95 -0.18,3.2 -0.38,3.41 -0.9,8.09 1.91,13.44 1.87,3.6 1.99,7.05 2.14,10.72 0.14,3.67 0.28,7.46 2.21,11.66 l 0.37,-0.16 c -1.89,-4.13 -2.03,-7.89 -2.18,-11.52 -0.14,-3.71 -0.27,-7.21 -2.18,-10.88 -2.75,-5.25 -2.24,-9.85 -1.87,-13.22 0.14,-1.27 0.26,-2.37 0.19,-3.27 -0.14,-2.02 -1.16,-3.18 -1.83,-3.95 -0.5,-0.57 -0.66,-0.79 -0.49,-0.97 1.63,0.18 3.46,1.77 4.3,5.12 0.36,1.47 0.31,2.76 0.25,4.12 -0.13,2.75 -0.25,5.87 2.76,11.8 2.27,4.41 2.51,7.61 2.74,10.7 0.24,3.18 0.47,6.18 2.79,10.22 -1.92,-4.16 -2.15,-7.12 -2.38,-10.25 -0.24,-3.13 -0.48,-6.37 -2.78,-10.85 -2.97,-5.84 -2.85,-8.9 -2.73,-11.61 0.06,-1.39 0.12,-2.7 -0.26,-4.23 -0.82,-3.3 -2.65,-5.16 -4,-5.5 l -0.11,-0.02 0,0" />
        <path
           inkscape:connector-curvature="0"
           id="path3770"
           style="fill:#7a361d;fill-opacity:1;fill-rule:nonzero;stroke:none"
           d="m 7660.44,3674.48 c -2.94,-8.31 0.16,-13.81 -3.81,-20.81 4.41,5.02 1.5,11.52 5.34,20.06 l -1.53,0.75" />
        <path
           inkscape:connector-curvature="0"
           id="path3772"
           style="fill:#f1bd51;fill-opacity:1;fill-rule:nonzero;stroke:none"
           d="m 7668.96,3697.97 -2.51,66.14 c 0,0 0,1.23 -0.8,1.23 -0.84,0 -0.84,-1.23 -0.84,-1.23 l -2.5,-66.14 6.65,0" />
        <path
           inkscape:connector-curvature="0"
           id="path3774"
           style="fill:#7a361d;fill-opacity:1;fill-rule:nonzero;stroke:none"
           d="m 7668.76,3697.96 -2.51,66.14 c 0,0.02 -0.01,1.04 -0.6,1.04 -0.62,0 -0.63,-1.02 -0.63,-1.03 l -2.5,-66.15 2.09,66.16 c 0,0.49 0.21,1.43 1.04,1.43 0.8,0 1.01,-0.94 1.01,-1.44 l 2.51,-66.13 -0.41,-0.02 0,0" />
        <path
           inkscape:connector-curvature="0"
           id="path3776"
           style="fill:#7a361d;fill-opacity:1;fill-rule:nonzero;stroke:none"
           d="m 7667.29,3697.97 -1.64,45.39 -1.67,-45.39 3.31,0" />
        <path
           inkscape:connector-curvature="0"
           id="path3778"
           style="fill:#f1bd51;fill-opacity:1;fill-rule:nonzero;stroke:none"
           d="m 7671.9,3719.33 c 3.78,8.31 0.53,15.13 4.31,22.39 3.81,7.26 1.43,13.24 1.71,16.59 0.23,3.33 2.98,4.27 2.28,5.03 -0.68,0.79 -3.54,-0.76 -4.65,-5.19 -1.11,-4.42 1.54,-6.98 -3.01,-15.88 -4.58,-8.93 -0.94,-12.95 -5.52,-20.89 l 4.88,-2.05" />
        <path
           inkscape:connector-curvature="0"
           id="path3780"
           style="fill:#7a361d;fill-opacity:1;fill-rule:nonzero;stroke:none"
           d="m 7672.09,3719.25 -0.37,0.16 c 1.86,4.11 2,7.86 2.14,11.49 0.12,3.72 0.25,7.24 2.16,10.91 2.76,5.23 2.25,9.83 1.88,13.19 -0.13,1.29 -0.26,2.41 -0.19,3.32 0.15,2.02 1.18,3.18 1.85,3.95 0.52,0.59 0.64,0.77 0.49,0.93 -1.62,-0.14 -3.46,-1.72 -4.31,-5.09 -0.36,-1.48 -0.31,-2.76 -0.24,-4.13 0.11,-2.75 0.25,-5.87 -2.77,-11.81 -2.27,-4.4 -2.52,-7.6 -2.74,-10.69 -0.24,-3.17 -0.47,-6.17 -2.79,-10.2 1.92,4.15 2.15,7.11 2.38,10.24 0.23,3.13 0.48,6.36 2.77,10.84 2.99,5.83 2.85,8.9 2.74,11.61 -0.06,1.39 -0.12,2.71 0.26,4.23 0.89,3.56 2.88,5.24 4.01,5.5 l 0.11,0.03 0.88,-0.27 c 0.41,-0.44 0,-0.91 -0.49,-1.45 -0.63,-0.74 -1.61,-1.83 -1.74,-3.71 -0.07,-0.91 0.05,-2 0.19,-3.26 0.37,-3.4 0.88,-8.08 -1.92,-13.42 -1.87,-3.59 -2,-7.07 -2.13,-10.74 -0.13,-3.67 -0.27,-7.46 -2.17,-11.63 l 0,0" />
        <path
           inkscape:connector-curvature="0"
           id="path3782"
           style="fill:#7a361d;fill-opacity:1;fill-rule:nonzero;stroke:none"
           d="m 7670.84,3721.45 c 2.98,8.28 -0.18,13.79 3.81,20.82 -4.42,-5.05 -1.51,-11.55 -5.35,-20.09 l 1.54,-0.73" />
        <path
           inkscape:connector-curvature="0"
           id="path3784"
           style="fill:#f1bd51;fill-opacity:1;fill-rule:nonzero;stroke:none"
           d="m 7665.65,3701.27 -66.16,-2.48 c 0,0 -1.25,0 -1.25,-0.82 0,-0.85 1.25,-0.85 1.25,-0.85 l 66.16,-2.49 0,6.64" />
        <path
           inkscape:connector-curvature="0"
           id="path3786"
           style="fill:#7a361d;fill-opacity:1;fill-rule:nonzero;stroke:none"
           d="m 7665.66,3694.84 -66.18,2.08 c -0.49,0 -1.44,0.22 -1.44,1.05 0,0.81 0.95,1.02 1.45,1.02 l 66.15,2.49 0.02,-0.41 -66.16,-2.49 c -0.02,0 -1.05,-0.01 -1.05,-0.61 0,-0.64 1.03,-0.64 1.04,-0.64 l 66.17,-2.49 0,0" />
        <path
           inkscape:connector-curvature="0"
           id="path3788"
           style="fill:#7a361d;fill-opacity:1;fill-rule:nonzero;stroke:none"
           d="m 7665.65,3699.61 -45.44,-1.64 45.44,-1.67 0,3.31" />
        <path
           inkscape:connector-curvature="0"
           id="path3790"
           style="fill:#f1bd51;fill-opacity:1;fill-rule:nonzero;stroke:none"
           d="m 7644.26,3704.22 c -8.33,3.81 -15.12,0.53 -22.37,4.33 -7.29,3.79 -13.27,1.42 -16.62,1.68 -3.31,0.27 -4.25,2.98 -5.02,2.3 -0.76,-0.69 0.77,-3.54 5.19,-4.66 4.44,-1.09 6.99,1.53 15.88,-3.04 8.92,-4.56 12.94,-0.93 20.89,-5.49 l 2.05,4.88" />
        <path
           inkscape:connector-curvature="0"
           id="path3792"
           style="fill:#7a361d;fill-opacity:1;fill-rule:nonzero;stroke:none"
           d="m 7642.31,3699.51 c -4.16,1.92 -7.11,2.14 -10.24,2.38 -3.13,0.23 -6.37,0.47 -10.84,2.76 -5.86,3.01 -8.94,2.87 -11.61,2.76 -1.4,-0.06 -2.7,-0.12 -4.23,0.26 -3.29,0.83 -5.15,2.66 -5.48,3.99 l -0.03,0.12 0.24,0.9 c 0.47,0.44 0.94,-0.02 1.48,-0.5 0.73,-0.63 1.83,-1.6 3.69,-1.75 0.86,-0.08 1.98,0.05 3.23,0.19 3.39,0.38 8.09,0.91 13.47,-1.89 3.58,-1.88 7.05,-2.01 10.71,-2.14 3.67,-0.13 7.44,-0.27 11.65,-2.19 l -0.18,-0.37 c -4.11,1.89 -7.86,2.02 -11.48,2.15 -3.71,0.14 -7.22,0.27 -10.89,2.2 -5.27,2.73 -9.89,2.22 -13.25,1.84 -1.28,-0.14 -2.35,-0.24 -3.3,-0.2 -1.99,0.17 -3.15,1.19 -3.91,1.86 -0.56,0.48 -0.79,0.66 -0.95,0.5 0.17,-1.64 1.76,-3.47 5.1,-4.31 1.47,-0.37 2.74,-0.32 4.11,-0.25 2.75,0.11 5.87,0.25 11.81,-2.8 4.4,-2.25 7.61,-2.5 10.69,-2.73 3.17,-0.24 6.18,-0.46 10.21,-2.78 l 0,0" />
        <path
           inkscape:connector-curvature="0"
           id="path3794"
           style="fill:#7a361d;fill-opacity:1;fill-rule:nonzero;stroke:none"
           d="m 7642.15,3703.15 c -8.3,2.96 -13.78,-0.14 -20.79,3.81 5.01,-4.41 11.53,-1.49 20.05,-5.34 l 0.74,1.53" />
        <path
           inkscape:connector-curvature="0"
           id="path3796"
           style="fill:#f1bd51;fill-opacity:1;fill-rule:nonzero;stroke:none"
           d="m 7665.65,3694.63 66.14,2.49 c 0,0 1.23,0 1.23,0.85 0,0.82 -1.23,0.82 -1.23,0.82 l -66.14,2.48 0,-6.64" />
        <path
           inkscape:connector-curvature="0"
           id="path3798"
           style="fill:#7a361d;fill-opacity:1;fill-rule:nonzero;stroke:none"
           d="m 7665.66,3694.43 -0.02,0.41 66.14,2.49 c 0.02,0 1.03,0.01 1.03,0.64 0,0.61 -1.01,0.61 -1.02,0.61 l -66.15,2.49 66.16,-2.08 c 0.49,0 1.42,-0.21 1.42,-1.02 0,-0.83 -0.93,-1.05 -1.43,-1.05 l -66.13,-2.49 0,0" />
        <path
           inkscape:connector-curvature="0"
           id="path3800"
           style="fill:#7a361d;fill-opacity:1;fill-rule:nonzero;stroke:none"
           d="m 7665.65,3696.3 45.4,1.67 -45.4,1.64 0,-3.31" />
        <path
           inkscape:connector-curvature="0"
           id="path3802"
           style="fill:#f1bd51;fill-opacity:1;fill-rule:nonzero;stroke:none"
           d="m 7687.02,3691.71 c 8.32,-3.81 15.11,-0.54 22.4,-4.35 7.25,-3.82 13.24,-1.42 16.58,-1.7 3.31,-0.25 4.24,-2.96 5,-2.28 0.79,0.69 -0.76,3.54 -5.17,4.66 -4.4,1.12 -6.98,-1.56 -15.88,3.01 -8.93,4.56 -12.94,0.94 -20.89,5.52 l -2.04,-4.86" />
        <path
           inkscape:connector-curvature="0"
           id="path3804"
           style="fill:#7a361d;fill-opacity:1;fill-rule:nonzero;stroke:none"
           d="m 7730.75,3683.07 c -0.34,0 -0.69,0.31 -1.08,0.65 -0.72,0.64 -1.83,1.6 -3.69,1.74 -0.88,0.07 -1.99,-0.05 -3.25,-0.19 -3.42,-0.38 -8.08,-0.9 -13.41,1.9 -3.61,1.89 -7.07,2.03 -10.75,2.16 -3.66,0.14 -7.45,0.28 -11.64,2.2 l 0.18,0.37 c 4.11,-1.88 7.85,-2.03 11.47,-2.17 3.72,-0.13 7.24,-0.26 10.94,-2.19 5.21,-2.75 9.8,-2.23 13.17,-1.87 1.27,0.15 2.39,0.26 3.33,0.2 1.99,-0.15 3.15,-1.17 3.92,-1.84 0.61,-0.53 0.78,-0.6 0.93,-0.49 -0.15,1.62 -1.73,3.45 -5.09,4.3 -1.46,0.36 -2.72,0.3 -4.12,0.26 -2.75,-0.16 -5.89,-0.27 -11.81,2.77 -4.39,2.25 -7.58,2.49 -10.67,2.73 -3.18,0.24 -6.18,0.47 -10.22,2.8 4.16,-1.93 7.12,-2.16 10.25,-2.4 3.12,-0.23 6.36,-0.48 10.84,-2.77 5.82,-2.99 8.88,-2.84 11.59,-2.73 1.41,0.07 2.71,0.13 4.24,-0.27 3.53,-0.89 5.21,-2.87 5.48,-3.99 l 0.03,-0.12 -0.25,-0.89 c -0.12,-0.12 -0.26,-0.16 -0.39,-0.16 l 0,0" />
        <path
           inkscape:connector-curvature="0"
           id="path3806"
           style="fill:#7a361d;fill-opacity:1;fill-rule:nonzero;stroke:none"
           d="m 7689.12,3692.77 c 8.29,-2.98 13.77,0.13 20.83,-3.82 -5.05,4.41 -11.56,1.51 -20.09,5.34 l -0.74,-1.52" />
        <path
           inkscape:connector-curvature="0"
           id="path3808"
           style="fill:#f1bd51;fill-opacity:1;fill-rule:nonzero;stroke:none"
           d="m 7663.28,3700.29 -45.01,-48.52 c 0,0 -0.87,-0.89 -0.29,-1.46 0.6,-0.6 1.47,0.3 1.47,0.3 l 48.55,44.98 -4.72,4.7" />
        <path
           inkscape:connector-curvature="0"
           id="path3810"
           style="fill:#7a361d;fill-opacity:1;fill-rule:nonzero;stroke:none"
           d="m 7618.48,3649.9 c -1.21,0.83 -0.71,1.66 -0.36,2.01 l 45.01,48.52 0.3,-0.27 -45.01,-48.52 c -0.01,-0.02 -0.72,-0.76 -0.3,-1.18 0.44,-0.48 1.19,0.28 1.19,0.28 l 48.55,45 -48.27,-45.29 c -0.01,-0.01 -0.54,-0.54 -1.11,-0.55 l 0,0" />
        <path
           inkscape:connector-curvature="0"
           id="path3812"
           style="fill:#7a361d;fill-opacity:1;fill-rule:nonzero;stroke:none"
           d="m 7664.44,3699.13 -30.92,-33.27 33.3,30.92 -2.38,2.35" />
        <path
           inkscape:connector-curvature="0"
           id="path3814"
           style="fill:#f1bd51;fill-opacity:1;fill-rule:nonzero;stroke:none"
           d="m 7646.09,3687.26 c -8.55,-3.19 -11.06,-10.32 -18.88,-12.76 -7.83,-2.46 -10.41,-8.35 -12.94,-10.54 -2.51,-2.17 -5.13,-0.91 -5.18,-1.94 -0.04,-1.03 3.03,-1.96 6.98,0.39 3.92,2.32 3.84,6.02 13.37,9.11 9.54,3.05 9.8,8.46 18.67,10.84 l -2.02,4.9" />
        <path
           inkscape:connector-curvature="0"
           id="path3816"
           style="fill:#7a361d;fill-opacity:1;fill-rule:nonzero;stroke:none"
           d="m 7611.38,3660.73 c -0.81,0 -1.46,0.16 -1.91,0.43 l -0.58,0.87 c 0.02,0.61 0.66,0.65 1.39,0.7 0.98,0.07 2.45,0.16 3.85,1.39 0.67,0.57 1.34,1.41 2.11,2.37 2.16,2.69 5.11,6.38 10.91,8.21 3.87,1.21 6.42,3.57 9.12,6.08 2.68,2.49 5.45,5.06 9.75,6.67 l 0.14,-0.38 c -4.22,-1.58 -6.96,-4.12 -9.62,-6.59 -2.72,-2.54 -5.3,-4.93 -9.27,-6.17 -5.68,-1.79 -8.59,-5.42 -10.71,-8.07 -0.79,-0.99 -1.47,-1.84 -2.16,-2.44 -1.52,-1.3 -3.06,-1.41 -4.09,-1.48 -0.73,-0.05 -1,-0.09 -1.01,-0.31 1.3,-1.04 3.71,-1.19 6.66,0.57 1.31,0.78 2.18,1.73 3.11,2.74 1.86,2.04 3.97,4.34 10.31,6.39 4.7,1.5 7.12,3.59 9.47,5.6 2.42,2.08 4.7,4.04 9.21,5.24 -4.31,-1.57 -6.57,-3.5 -8.94,-5.55 -2.38,-2.04 -4.83,-4.15 -9.62,-5.68 -6.23,-2.02 -8.3,-4.28 -10.12,-6.28 -0.95,-1.02 -1.84,-2 -3.2,-2.81 -1.82,-1.07 -3.5,-1.5 -4.8,-1.5 l 0,0" />
        <path
           inkscape:connector-curvature="0"
           id="path3818"
           style="fill:#7a361d;fill-opacity:1;fill-rule:nonzero;stroke:none"
           d="m 7645.35,3685.02 c -7.95,-3.76 -9.65,-9.86 -17.41,-12.02 6.69,0.45 9.23,7.1 17.99,10.4 l -0.58,1.62" />
        <path
           inkscape:connector-curvature="0"
           id="path3820"
           style="fill:#f1bd51;fill-opacity:1;fill-rule:nonzero;stroke:none"
           d="m 7668,3695.59 44.99,48.55 c 0,0 0.87,0.86 0.31,1.46 -0.6,0.59 -1.48,-0.27 -1.48,-0.27 l -48.54,-45.04 4.72,-4.7" />
        <path
           inkscape:connector-curvature="0"
           id="path3822"
           style="fill:#7a361d;fill-opacity:1;fill-rule:nonzero;stroke:none"
           d="m 7668.14,3695.45 -0.29,0.28 44.99,48.55 c 0.01,0.01 0.72,0.74 0.31,1.18 -0.45,0.44 -1.18,-0.26 -1.18,-0.28 l -48.55,-45.04 48.27,45.34 c 0.33,0.34 1.15,0.86 1.76,0.27 0.54,-0.59 0.03,-1.4 -0.32,-1.76 l -44.99,-48.54 0,0" />
        <path
           inkscape:connector-curvature="0"
           id="path3824"
           style="fill:#7a361d;fill-opacity:1;fill-rule:nonzero;stroke:none"
           d="m 7666.82,3696.78 30.92,33.3 -33.3,-30.95 2.38,-2.35" />
        <path
           inkscape:connector-curvature="0"
           id="path3826"
           style="fill:#f1bd51;fill-opacity:1;fill-rule:nonzero;stroke:none"
           d="m 7685.19,3708.65 c 8.55,3.19 11.05,10.31 18.88,12.76 7.81,2.44 10.39,8.37 12.94,10.54 2.53,2.17 5.11,0.89 5.18,1.94 0.04,1.03 -3.05,1.97 -6.99,-0.39 -3.91,-2.35 -3.84,-6.02 -13.38,-9.11 -9.52,-3.05 -9.79,-8.46 -18.65,-10.86 l 2.02,-4.88" />
        <path
           inkscape:connector-curvature="0"
           id="path3828"
           style="fill:#7a361d;fill-opacity:1;fill-rule:nonzero;stroke:none"
           d="m 7685.25,3708.46 -0.13,0.38 c 4.22,1.57 6.96,4.12 9.61,6.59 2.73,2.53 5.31,4.93 9.29,6.17 5.63,1.76 8.53,5.39 10.65,8.03 0.81,1.01 1.51,1.89 2.21,2.48 1.52,1.3 3.05,1.4 4.08,1.47 0.75,0.05 1.01,0.08 1.02,0.33 -1.29,1.02 -3.72,1.18 -6.67,-0.59 -1.31,-0.78 -2.18,-1.72 -3.1,-2.73 -1.86,-2.03 -3.97,-4.34 -10.33,-6.39 -4.69,-1.51 -7.13,-3.59 -9.47,-5.61 -2.41,-2.08 -4.7,-4.04 -9.19,-5.25 4.3,1.58 6.55,3.51 8.93,5.56 2.37,2.04 4.83,4.15 9.62,5.69 6.25,2.02 8.32,4.28 10.14,6.28 0.95,1.02 1.84,2 3.19,2.81 2.92,1.74 5.51,1.78 6.71,1.07 l 0.58,-0.87 c -0.04,-0.62 -0.67,-0.66 -1.41,-0.71 -0.96,-0.06 -2.42,-0.16 -3.83,-1.37 -0.69,-0.59 -1.37,-1.44 -2.16,-2.42 -2.15,-2.69 -5.1,-6.37 -10.86,-8.17 -3.89,-1.21 -6.43,-3.58 -9.12,-6.09 -2.69,-2.48 -5.46,-5.06 -9.76,-6.66 l 0,0" />
        <path
           inkscape:connector-curvature="0"
           id="path3830"
           style="fill:#7a361d;fill-opacity:1;fill-rule:nonzero;stroke:none"
           d="m 7685.91,3710.88 c 7.96,3.77 9.66,9.86 17.42,12.01 -6.68,-0.43 -9.23,-7.07 -17.99,-10.39 l 0.57,-1.62" />
        <path
           inkscape:connector-curvature="0"
           id="path3832"
           style="fill:#f1bd51;fill-opacity:1;fill-rule:nonzero;stroke:none"
           d="m 7668,3700.29 -48.55,45.04 c 0,0 -0.87,0.86 -1.47,0.27 -0.58,-0.6 0.29,-1.46 0.29,-1.46 l 45.01,-48.55 4.72,4.7" />
        <path
           inkscape:connector-curvature="0"
           id="path3834"
           style="fill:#7a361d;fill-opacity:1;fill-rule:nonzero;stroke:none"
           d="m 7663.43,3695.73 -45.31,48.27 c -0.35,0.35 -0.85,1.16 -0.29,1.74 0.61,0.58 1.42,0.08 1.77,-0.27 l 48.53,-45.02 -0.27,-0.31 -48.54,45.04 c -0.02,0.02 -0.76,0.72 -1.2,0.27 -0.42,-0.43 0.29,-1.16 0.3,-1.16 l 45.01,-48.56 0,0" />
        <path
           inkscape:connector-curvature="0"
           id="path3836"
           style="fill:#7a361d;fill-opacity:1;fill-rule:nonzero;stroke:none"
           d="m 7666.82,3699.13 -33.3,30.95 30.92,-33.3 2.38,2.35" />
        <path
           inkscape:connector-curvature="0"
           id="path3838"
           style="fill:#f1bd51;fill-opacity:1;fill-rule:nonzero;stroke:none"
           d="m 7654.95,3717.48 c -3.2,8.6 -10.33,11.09 -12.77,18.92 -2.45,7.83 -8.35,10.36 -10.53,12.92 -2.17,2.53 -0.91,5.11 -1.94,5.18 -1.04,0.07 -1.98,-3.06 0.36,-6.96 2.35,-3.93 6.03,-3.83 9.1,-13.38 3.08,-9.51 8.49,-9.81 10.86,-18.67 l 4.92,1.99" />
        <path
           inkscape:connector-curvature="0"
           id="path3840"
           style="fill:#7a361d;fill-opacity:1;fill-rule:nonzero;stroke:none"
           d="m 7650.23,3715.55 c -1.58,4.31 -3.51,6.56 -5.56,8.95 -2.05,2.38 -4.15,4.84 -5.69,9.6 -2.02,6.26 -4.27,8.32 -6.28,10.15 -1.02,0.94 -2,1.83 -2.81,3.19 -1.86,3.12 -1.64,5.71 -1.04,6.7 l 0.86,0.57 c 0.62,-0.05 0.66,-0.68 0.71,-1.41 0.07,-0.97 0.17,-2.42 1.39,-3.85 0.58,-0.68 1.44,-1.37 2.43,-2.16 2.67,-2.13 6.33,-5.07 8.13,-10.83 1.21,-3.88 3.58,-6.42 6.08,-9.1 2.5,-2.7 5.07,-5.47 6.69,-9.81 l -0.39,-0.14 c -1.58,4.25 -4.14,7 -6.61,9.66 -2.53,2.73 -4.92,5.3 -6.16,9.27 -1.75,5.64 -5.37,8.53 -8,10.64 -1.01,0.8 -1.89,1.5 -2.49,2.21 -1.3,1.52 -1.4,3.06 -1.47,4.08 -0.05,0.73 -0.1,1.01 -0.32,1.03 -1.06,-1.27 -1.24,-3.69 0.54,-6.66 0.78,-1.3 1.73,-2.17 2.74,-3.09 2.04,-1.86 4.34,-3.96 6.38,-10.32 1.52,-4.69 3.6,-7.12 5.62,-9.47 2.08,-2.42 4.04,-4.71 5.25,-9.21 l 0,0" />
        <path
           inkscape:connector-curvature="0"
           id="path3842"
           style="fill:#7a361d;fill-opacity:1;fill-rule:nonzero;stroke:none"
           d="m 7652.71,3718.23 c -3.77,7.97 -9.86,9.66 -12.04,17.42 0.43,-6.67 7.12,-9.22 10.43,-17.99 l 1.61,0.57" />
        <path
           inkscape:connector-curvature="0"
           id="path3844"
           style="fill:#f1bd51;fill-opacity:1;fill-rule:nonzero;stroke:none"
           d="m 7663.28,3695.59 48.54,-44.98 c 0,0 0.88,-0.9 1.48,-0.3 0.56,0.57 -0.31,1.46 -0.31,1.46 l -44.99,48.52 -4.72,-4.7" />
        <path
           inkscape:connector-curvature="0"
           id="path3846"
           style="fill:#7a361d;fill-opacity:1;fill-rule:nonzero;stroke:none"
           d="m 7712.81,3650.1 c -0.77,0 -1.11,0.35 -1.13,0.36 l -48.54,44.98 0.28,0.3 48.54,-44.98 c 0.01,-0.02 0.74,-0.78 1.19,-0.3 0.41,0.42 -0.3,1.16 -0.31,1.17 l -44.99,48.53 45.28,-48.25 c 0.37,-0.38 0.86,-1.18 0.32,-1.74 -0.25,-0.05 -0.45,-0.07 -0.64,-0.07 l 0,0" />
        <path
           inkscape:connector-curvature="0"
           id="path3848"
           style="fill:#7a361d;fill-opacity:1;fill-rule:nonzero;stroke:none"
           d="m 7664.44,3696.78 33.3,-30.92 -30.92,33.27 -2.38,-2.35" />
        <path
           inkscape:connector-curvature="0"
           id="path3850"
           style="fill:#f1bd51;fill-opacity:1;fill-rule:nonzero;stroke:none"
           d="m 7676.32,3678.41 c 3.2,-8.56 10.33,-11.05 12.76,-18.9 2.44,-7.83 8.37,-10.39 10.54,-12.9 2.18,-2.55 0.9,-5.13 1.93,-5.18 1.05,-0.07 1.99,3.01 -0.36,6.94 -2.34,3.92 -6.01,3.86 -9.09,13.37 -3.08,9.55 -8.5,9.82 -10.87,18.67 l -4.91,-2" />
        <path
           inkscape:connector-curvature="0"
           id="path3852"
           style="fill:#7a361d;fill-opacity:1;fill-rule:nonzero;stroke:none"
           d="m 7701.54,3641.23 c -0.61,0.02 -0.65,0.66 -0.7,1.38 -0.06,0.97 -0.15,2.43 -1.38,3.87 -0.57,0.66 -1.41,1.33 -2.38,2.1 -2.7,2.15 -6.39,5.08 -8.19,10.87 -1.21,3.9 -3.59,6.45 -6.1,9.15 -2.49,2.67 -5.06,5.44 -6.67,9.74 l 0.4,0.14 c 1.57,-4.22 4.11,-6.96 6.58,-9.6 2.53,-2.74 4.94,-5.32 6.18,-9.31 1.76,-5.67 5.4,-8.56 8.05,-10.66 0.99,-0.8 1.86,-1.48 2.44,-2.17 1.31,-1.54 1.41,-3.08 1.48,-4.1 0.05,-0.78 0.1,-1 0.31,-1 1.06,1.26 1.22,3.66 -0.54,6.63 -0.79,1.3 -1.73,2.18 -2.74,3.1 -2.03,1.86 -4.33,3.98 -6.38,10.31 -1.51,4.71 -3.6,7.13 -5.62,9.48 -2.08,2.42 -4.05,4.7 -5.24,9.2 1.57,-4.3 3.5,-6.55 5.55,-8.93 2.04,-2.38 4.16,-4.84 5.7,-9.62 2.02,-6.24 4.27,-8.31 6.26,-10.14 1.03,-0.94 2.01,-1.84 2.82,-3.2 1.74,-2.92 1.76,-5.51 1.05,-6.67 l -0.88,-0.57 0,0" />
        <path
           inkscape:connector-curvature="0"
           id="path3854"
           style="fill:#7a361d;fill-opacity:1;fill-rule:nonzero;stroke:none"
           d="m 7678.56,3677.68 c 3.77,-7.95 9.86,-9.63 12.03,-17.41 -0.43,6.65 -7.13,9.21 -10.43,17.95 l -1.6,-0.54" />
        <path
           inkscape:connector-curvature="0"
           id="path3856"
           style="fill:#f1bd51;fill-opacity:1;fill-rule:nonzero;stroke:none"
           d="m 7662.58,3699.22 -23.04,-62.06 c 0,0 -0.47,-1.16 0.3,-1.48 0.77,-0.32 1.23,0.84 1.23,0.84 l 27.62,60.17 -6.11,2.53" />
        <path
           inkscape:connector-curvature="0"
           id="path3858"
           style="fill:#7a361d;fill-opacity:1;fill-rule:nonzero;stroke:none"
           d="m 7640.43,3635.49 c -1.43,0.31 -1.27,1.28 -1.07,1.75 l 23.02,62.06 0.39,-0.15 -23.04,-62.06 c 0,-0.02 -0.38,-0.98 0.19,-1.22 l 0.97,0.74 27.61,60.16 -27.24,-60.33 c -0.01,-0.03 -0.3,-0.73 -0.83,-0.95 l 0,0" />
        <path
           inkscape:connector-curvature="0"
           id="path3860"
           style="fill:#7a361d;fill-opacity:1;fill-rule:nonzero;stroke:none"
           d="m 7664.11,3698.61 -15.85,-42.61 18.89,41.33 -3.04,1.28" />
        <path
           inkscape:connector-curvature="0"
           id="path3862"
           style="fill:#f1bd51;fill-opacity:1;fill-rule:nonzero;stroke:none"
           d="m 7651.68,3680.6 c -6.69,-6.24 -6.29,-13.76 -12.58,-19.01 -6.31,-5.28 -6.37,-11.71 -7.92,-14.7 -1.5,-2.97 -4.38,-2.79 -4.04,-3.77 0.37,-0.98 3.57,-0.64 6.28,3.01 2.74,3.68 1.28,7.03 8.89,13.54 7.63,6.48 5.82,11.57 13.07,17.19 l -3.7,3.74" />
        <path
           inkscape:connector-curvature="0"
           id="path3864"
           style="fill:#7a361d;fill-opacity:1;fill-rule:nonzero;stroke:none"
           d="m 7628.17,3642.44 c -0.11,0 -0.22,0.01 -0.33,0.02 l -0.9,0.59 c -0.19,0.58 0.37,0.86 1.04,1.19 0.87,0.43 2.18,1.07 3.02,2.74 0.41,0.81 0.72,1.87 1.08,3.09 0.95,3.29 2.26,7.8 6.9,11.67 3.11,2.61 4.56,5.76 6.09,9.1 1.53,3.33 3.1,6.77 6.47,9.91 l 0.28,-0.3 c -3.3,-3.08 -4.87,-6.49 -6.38,-9.78 -1.55,-3.38 -3.02,-6.58 -6.21,-9.24 -4.53,-3.79 -5.82,-8.23 -6.76,-11.47 -0.36,-1.25 -0.68,-2.34 -1.1,-3.17 -0.91,-1.78 -2.3,-2.47 -3.22,-2.92 -0.65,-0.32 -0.9,-0.46 -0.82,-0.68 1.61,-0.47 3.89,0.31 5.92,3.06 0.92,1.23 1.37,2.45 1.84,3.73 0.95,2.59 2.03,5.52 7.09,9.84 3.77,3.21 5.21,6.07 6.62,8.83 1.43,2.84 2.78,5.52 6.45,8.37 -3.35,-3.11 -4.68,-5.75 -6.09,-8.56 -1.42,-2.79 -2.88,-5.69 -6.71,-8.95 -4.99,-4.25 -6.04,-7.13 -6.98,-9.67 -0.48,-1.31 -0.94,-2.55 -1.89,-3.83 -1.85,-2.5 -4.02,-3.57 -5.41,-3.57 l 0,0" />
        <path
           inkscape:connector-curvature="0"
           id="path3866"
           style="fill:#7a361d;fill-opacity:1;fill-rule:nonzero;stroke:none"
           d="m 7651.85,3678.25 c -5.92,-6.53 -5.15,-12.8 -11.51,-17.76 6.02,2.94 5.82,10.08 12.64,16.48 l -1.13,1.28" />
        <path
           inkscape:connector-curvature="0"
           id="path3868"
           style="fill:#f1bd51;fill-opacity:1;fill-rule:nonzero;stroke:none"
           d="m 7668.69,3696.69 23.04,62.08 c 0,0 0.47,1.12 -0.29,1.43 -0.79,0.33 -1.25,-0.81 -1.25,-0.81 l -27.61,-60.17 6.11,-2.53" />
        <path
           inkscape:connector-curvature="0"
           id="path3870"
           style="fill:#7a361d;fill-opacity:1;fill-rule:nonzero;stroke:none"
           d="m 7668.89,3696.62 -0.39,0.14 23.03,62.08 c 0.01,0.02 0.39,0.94 -0.17,1.18 l -0.99,-0.72 -27.6,-60.16 27.23,60.33 c 0.01,0.02 0.29,0.71 0.82,0.92 l 1.17,-0.47 c 0.22,-0.52 -0.07,-1.2 -0.08,-1.23 l -23.02,-62.07 0,0" />
        <path
           inkscape:connector-curvature="0"
           id="path3872"
           style="fill:#7a361d;fill-opacity:1;fill-rule:nonzero;stroke:none"
           d="m 7667.15,3697.33 15.85,42.59 -18.89,-41.31 3.04,-1.28" />
        <path
           inkscape:connector-curvature="0"
           id="path3874"
           style="fill:#f1bd51;fill-opacity:1;fill-rule:nonzero;stroke:none"
           d="m 7679.59,3715.31 c 6.69,6.23 6.29,13.76 12.58,19.01 6.31,5.25 6.38,11.72 7.92,14.7 1.5,2.99 4.37,2.79 4.04,3.77 -0.36,0.98 -3.57,0.66 -6.28,-3.02 -2.74,-3.66 -1.27,-7.04 -8.9,-13.53 -7.61,-6.48 -5.82,-11.59 -13.07,-17.16 l 3.71,-3.77" />
        <path
           inkscape:connector-curvature="0"
           id="path3876"
           style="fill:#7a361d;fill-opacity:1;fill-rule:nonzero;stroke:none"
           d="m 7679.73,3715.16 -0.28,0.3 c 3.3,3.08 4.87,6.49 6.38,9.78 1.55,3.38 3.02,6.58 6.21,9.24 4.55,3.78 5.83,8.23 6.77,11.48 0.36,1.25 0.67,2.34 1.09,3.16 0.91,1.8 2.31,2.48 3.22,2.93 0.65,0.31 0.9,0.45 0.82,0.68 -1.61,0.46 -3.9,-0.33 -5.92,-3.08 -0.92,-1.22 -1.37,-2.44 -1.84,-3.73 -0.95,-2.59 -2.02,-5.53 -7.09,-9.84 -3.76,-3.19 -5.2,-6.04 -6.6,-8.81 -1.45,-2.84 -2.8,-5.53 -6.49,-8.36 3.36,3.1 4.7,5.75 6.12,8.55 1.42,2.79 2.88,5.69 6.7,8.94 4.99,4.24 6.04,7.12 6.98,9.67 0.48,1.31 0.94,2.55 1.89,3.83 2,2.71 4.34,3.77 5.74,3.55 l 0.89,-0.59 c 0.2,-0.59 -0.37,-0.86 -1.02,-1.18 -0.87,-0.43 -2.19,-1.07 -3.03,-2.75 -0.42,-0.81 -0.72,-1.86 -1.07,-3.08 -0.95,-3.3 -2.26,-7.82 -6.91,-11.68 -3.11,-2.61 -4.56,-5.76 -6.09,-9.1 -1.53,-3.33 -3.1,-6.77 -6.47,-9.91 l 0,0" />
        <path
           inkscape:connector-curvature="0"
           id="path3878"
           style="fill:#7a361d;fill-opacity:1;fill-rule:nonzero;stroke:none"
           d="m 7679.43,3717.66 c 5.91,6.53 5.15,12.81 11.5,17.79 -6.03,-2.97 -5.82,-10.12 -12.64,-16.51 l 1.14,-1.28" />
        <path
           inkscape:connector-curvature="0"
           id="path3880"
           style="fill:#f1bd51;fill-opacity:1;fill-rule:nonzero;stroke:none"
           d="m 7666.88,3701.02 -62.04,23.01 c 0,0 -1.14,0.48 -1.47,-0.28 -0.31,-0.77 0.83,-1.25 0.83,-1.25 l 60.18,-27.62 2.5,6.14" />
        <path
           inkscape:connector-curvature="0"
           id="path3882"
           style="fill:#7a361d;fill-opacity:1;fill-rule:nonzero;stroke:none"
           d="m 7664.46,3695.07 -60.35,27.25 c -0.45,0.18 -1.24,0.75 -0.93,1.51 0.34,0.74 1.29,0.58 1.74,0.39 l 62.03,-23.01 -0.13,-0.37 -62.05,23 c -0.02,0.02 -0.97,0.4 -1.22,-0.17 -0.23,-0.57 0.72,-0.98 0.73,-0.98 l 60.18,-27.62 0,0" />
        <path
           inkscape:connector-curvature="0"
           id="path3884"
           style="fill:#7a361d;fill-opacity:1;fill-rule:nonzero;stroke:none"
           d="m 7666.25,3699.47 -42.56,15.87 41.33,-18.93 1.23,3.06" />
        <path
           inkscape:connector-curvature="0"
           id="path3886"
           style="fill:#f1bd51;fill-opacity:1;fill-rule:nonzero;stroke:none"
           d="m 7648.3,3711.91 c -6.26,6.71 -13.78,6.3 -19.06,12.58 -5.25,6.3 -11.66,6.41 -14.68,7.89 -2.98,1.51 -2.77,4.39 -3.77,4.07 -0.98,-0.34 -0.65,-3.56 3.05,-6.3 3.63,-2.72 7.01,-1.26 13.49,-8.88 6.5,-7.62 11.61,-5.8 17.19,-13.08 l 3.78,3.72" />
        <path
           inkscape:connector-curvature="0"
           id="path3888"
           style="fill:#7a361d;fill-opacity:1;fill-rule:nonzero;stroke:none"
           d="m 7644.69,3708.32 c -3.12,3.38 -5.76,4.71 -8.57,6.13 -2.8,1.41 -5.69,2.87 -8.94,6.69 -4.25,4.99 -7.13,6.05 -9.67,6.97 -1.31,0.48 -2.54,0.93 -3.79,1.87 -2.76,2.05 -3.79,4.44 -3.58,5.8 l 0.58,0.86 c 0.56,0.22 0.86,-0.37 1.19,-1.04 0.42,-0.87 1.07,-2.19 2.74,-3.04 0.79,-0.38 1.81,-0.67 2.99,-1.01 3.32,-0.95 7.86,-2.25 11.75,-6.93 2.62,-3.1 5.77,-4.55 9.11,-6.08 3.34,-1.52 6.79,-3.11 9.95,-6.49 l -0.3,-0.28 c -3.1,3.33 -6.52,4.89 -9.83,6.4 -3.38,1.55 -6.56,3.01 -9.24,6.19 -3.81,4.58 -8.29,5.87 -11.55,6.8 -1.2,0.34 -2.26,0.64 -3.06,1.04 -1.79,0.91 -2.48,2.3 -2.93,3.22 -0.31,0.65 -0.42,0.94 -0.69,0.83 -0.46,-1.57 0.31,-3.87 3.1,-5.94 1.21,-0.91 2.43,-1.35 3.69,-1.81 2.59,-0.95 5.53,-2.02 9.85,-7.1 3.19,-3.75 6.05,-5.19 8.82,-6.58 2.84,-1.44 5.54,-2.8 8.38,-6.5 l 0,0" />
        <path
           inkscape:connector-curvature="0"
           id="path3890"
           style="fill:#7a361d;fill-opacity:1;fill-rule:nonzero;stroke:none"
           d="m 7645.93,3711.75 c -6.53,5.89 -12.82,5.14 -17.77,11.48 2.95,-6 10.07,-5.79 16.5,-12.62 l 1.27,1.14" />
        <path
           inkscape:connector-curvature="0"
           id="path3892"
           style="fill:#f1bd51;fill-opacity:1;fill-rule:nonzero;stroke:none"
           d="m 7664.38,3694.88 62.06,-23 c 0,0 1.14,-0.48 1.47,0.3 0.29,0.75 -0.84,1.23 -0.84,1.23 l -60.19,27.61 -2.5,-6.14" />
        <path
           inkscape:connector-curvature="0"
           id="path3894"
           style="fill:#7a361d;fill-opacity:1;fill-rule:nonzero;stroke:none"
           d="m 7727.14,3671.53 c -0.29,0 -0.59,0.08 -0.78,0.17 l -62.05,22.99 0.13,0.38 62.06,-23 c 0.02,0 0.96,-0.37 1.23,0.18 0.21,0.56 -0.73,0.97 -0.74,0.97 l -60.19,27.62 60.36,-27.25 c 0.48,-0.2 1.23,-0.75 0.94,-1.48 -0.19,-0.45 -0.58,-0.58 -0.96,-0.58 l 0,0" />
        <path
           inkscape:connector-curvature="0"
           id="path3896"
           style="fill:#7a361d;fill-opacity:1;fill-rule:nonzero;stroke:none"
           d="m 7665.02,3696.41 42.56,-15.84 -41.33,18.9 -1.23,-3.06" />
        <path
           inkscape:connector-curvature="0"
           id="path3898"
           style="fill:#f1bd51;fill-opacity:1;fill-rule:nonzero;stroke:none"
           d="m 7682.97,3684 c 6.25,-6.71 13.77,-6.28 19.05,-12.58 5.25,-6.3 11.68,-6.38 14.68,-7.9 2.98,-1.52 2.78,-4.4 3.78,-4.03 0.97,0.31 0.63,3.56 -3.04,6.27 -3.64,2.72 -7.02,1.23 -13.51,8.86 -6.48,7.65 -11.6,5.82 -17.18,13.1 l -3.78,-3.72" />
        <path
           inkscape:connector-curvature="0"
           id="path3900"
           style="fill:#7a361d;fill-opacity:1;fill-rule:nonzero;stroke:none"
           d="m 7720.3,3659.25 c -0.43,0 -0.67,0.5 -0.95,1.07 -0.44,0.86 -1.08,2.17 -2.75,3.02 -0.79,0.41 -1.83,0.7 -3.03,1.05 -3.3,0.95 -7.83,2.25 -11.71,6.9 -2.61,3.12 -5.77,4.57 -9.11,6.09 -3.34,1.53 -6.79,3.1 -9.93,6.48 l 0.29,0.28 c 3.1,-3.32 6.51,-4.88 9.81,-6.39 3.39,-1.54 6.58,-3.01 9.26,-6.2 3.8,-4.56 8.25,-5.84 11.5,-6.77 1.23,-0.36 2.3,-0.66 3.11,-1.07 1.78,-0.92 2.47,-2.3 2.92,-3.21 0.35,-0.72 0.49,-0.89 0.7,-0.82 0.48,1.55 -0.29,3.85 -3.09,5.92 -1.22,0.9 -2.42,1.34 -3.7,1.8 -2.6,0.94 -5.52,2.01 -9.85,7.09 -3.2,3.77 -6.06,5.22 -8.82,6.62 -2.84,1.43 -5.53,2.79 -8.37,6.49 3.11,-3.38 5.75,-4.71 8.56,-6.13 2.8,-1.42 5.69,-2.88 8.94,-6.72 4.25,-5 7.14,-6.04 9.68,-6.96 1.31,-0.47 2.54,-0.93 3.8,-1.87 2.95,-2.17 3.74,-4.66 3.56,-5.8 l -0.57,-0.83 c -0.09,-0.03 -0.17,-0.04 -0.25,-0.04 l 0,0" />
        <path
           inkscape:connector-curvature="0"
           id="path3902"
           style="fill:#7a361d;fill-opacity:1;fill-rule:nonzero;stroke:none"
           d="m 7685.34,3684.16 c 6.52,-5.89 12.8,-5.12 17.76,-11.48 -2.94,5.98 -10.06,5.8 -16.48,12.62 l -1.28,-1.14" />
        <path
           inkscape:connector-curvature="0"
           id="path3904"
           style="fill:#f1bd51;fill-opacity:1;fill-rule:nonzero;stroke:none"
           d="m 7664.38,3701.02 -60.18,-27.61 c 0,0 -1.14,-0.48 -0.83,-1.23 0.33,-0.78 1.47,-0.3 1.47,-0.3 l 62.04,23 -2.5,6.14" />
        <path
           inkscape:connector-curvature="0"
           id="path3906"
           style="fill:#7a361d;fill-opacity:1;fill-rule:nonzero;stroke:none"
           d="m 7604.14,3671.53 c -0.38,0 -0.77,0.13 -0.96,0.57 -0.31,0.74 0.48,1.3 0.94,1.49 l 60.17,27.62 0.17,-0.37 -60.17,-27.62 c -0.02,0 -0.96,-0.41 -0.74,-0.97 0.25,-0.57 1.2,-0.18 1.22,-0.18 l 62.05,23 -61.91,-23.38 c -0.2,-0.08 -0.48,-0.16 -0.77,-0.16 l 0,0" />
        <path
           inkscape:connector-curvature="0"
           id="path3908"
           style="fill:#7a361d;fill-opacity:1;fill-rule:nonzero;stroke:none"
           d="m 7665.02,3699.47 -41.33,-18.9 42.56,15.84 -1.23,3.06" />
        <path
           inkscape:connector-curvature="0"
           id="path3910"
           style="fill:#f1bd51;fill-opacity:1;fill-rule:nonzero;stroke:none"
           d="m 7643.48,3695.55 c -9.12,0.34 -14.17,-5.28 -22.33,-4.55 -8.16,0.73 -12.8,-3.76 -15.97,-4.79 -3.19,-1.05 -5.08,1.12 -5.53,0.19 -0.47,-0.92 2.04,-3 6.6,-2.31 4.5,0.66 5.84,4.08 15.8,3.29 10,-0.8 12.31,4.08 21.43,2.89 l 0,5.28" />
        <path
           inkscape:connector-curvature="0"
           id="path3912"
           style="fill:#7a361d;fill-opacity:1;fill-rule:nonzero;stroke:none"
           d="m 7604.5,3683.75 c -2.62,0 -4.3,0.96 -4.86,1.73 l -0.18,1.01 c 0.25,0.53 0.85,0.35 1.56,0.11 0.91,-0.31 2.33,-0.78 4.09,-0.19 0.85,0.27 1.8,0.8 2.91,1.4 3,1.65 7.03,3.9 13.15,3.4 4.06,-0.4 7.29,0.84 10.73,2.12 3.44,1.27 6.94,2.61 11.6,2.42 l -0.02,-0.41 c -4.44,0.15 -8.03,-1.14 -11.44,-2.39 -3.5,-1.3 -6.77,-2.48 -10.91,-2.15 -5.81,0.51 -9.95,-1.71 -12.92,-3.34 -1.13,-0.62 -2.11,-1.16 -2.98,-1.44 -1.92,-0.63 -3.38,-0.14 -4.34,0.19 -0.75,0.27 -0.98,0.29 -1.06,0.1 0.77,-1.45 2.92,-2.52 6.39,-2.02 1.51,0.22 2.67,0.77 3.9,1.34 2.49,1.16 5.25,2.48 11.95,1.95 4.89,-0.43 7.97,0.6 10.91,1.56 3.02,1 5.91,1.94 10.54,1.33 -4.77,0.27 -7.44,-0.73 -10.41,-1.71 -2.99,-0.98 -6.06,-1.97 -11.08,-1.59 -6.53,0.53 -9.3,-0.77 -11.74,-1.9 -1.26,-0.6 -2.45,-1.15 -4.01,-1.38 -0.64,-0.1 -1.23,-0.14 -1.78,-0.14 l 0,0" />
        <path
           inkscape:connector-curvature="0"
           id="path3914"
           style="fill:#7a361d;fill-opacity:1;fill-rule:nonzero;stroke:none"
           d="m 7641.95,3693.79 c -8.8,-0.45 -12.67,-5.43 -20.7,-4.45 6.36,-2.17 11.23,3.02 20.6,2.71 l 0.1,1.74" />
        <path
           inkscape:connector-curvature="0"
           id="path3916"
           style="fill:#f1bd51;fill-opacity:1;fill-rule:nonzero;stroke:none"
           d="m 7666.88,3694.88 60.19,27.62 c 0,0 1.13,0.48 0.84,1.25 -0.33,0.76 -1.47,0.28 -1.47,0.28 l -62.06,-23.01 2.5,-6.14" />
        <path
           inkscape:connector-curvature="0"
           id="path3918"
           style="fill:#7a361d;fill-opacity:1;fill-rule:nonzero;stroke:none"
           d="m 7666.97,3694.7 -0.17,0.37 60.18,27.62 c 0.02,0 0.96,0.41 0.73,0.99 -0.24,0.56 -1.19,0.18 -1.19,0.16 l -62.08,-23 61.93,23.38 c 0.45,0.19 1.4,0.35 1.73,-0.38 0.29,-0.77 -0.49,-1.34 -0.95,-1.52 l -60.18,-27.62 0,0" />
        <path
           inkscape:connector-curvature="0"
           id="path3920"
           style="fill:#7a361d;fill-opacity:1;fill-rule:nonzero;stroke:none"
           d="m 7666.25,3696.41 41.33,18.93 -42.56,-15.87 1.23,-3.06" />
        <path
           inkscape:connector-curvature="0"
           id="path3922"
           style="fill:#f1bd51;fill-opacity:1;fill-rule:nonzero;stroke:none"
           d="m 7687.78,3700.36 c 9.13,-0.34 14.17,5.3 22.34,4.54 8.19,-0.72 12.8,3.77 15.98,4.82 3.18,1.03 5.08,-1.14 5.51,-0.2 0.47,0.93 -2.04,2.98 -6.58,2.32 -4.52,-0.68 -5.85,-4.11 -15.82,-3.3 -9.99,0.79 -12.3,-4.07 -21.43,-2.88 l 0,-5.3" />
        <path
           inkscape:connector-curvature="0"
           id="path3924"
           style="fill:#7a361d;fill-opacity:1;fill-rule:nonzero;stroke:none"
           d="m 7688.58,3700.14 c -0.26,0 -0.53,0.01 -0.81,0.02 l 0.02,0.41 c 4.51,-0.13 8.02,1.13 11.41,2.39 3.5,1.3 6.86,2.5 10.94,2.15 5.94,-0.53 9.98,1.72 12.95,3.36 1.11,0.62 2.09,1.16 2.95,1.45 1.94,0.62 3.37,0.11 4.34,-0.22 0.72,-0.25 0.95,-0.31 1.05,-0.1 -0.76,1.45 -2.89,2.52 -6.37,2.04 -1.51,-0.23 -2.67,-0.77 -3.9,-1.35 -2.49,-1.17 -5.34,-2.49 -11.97,-1.96 -4.88,0.39 -7.96,-0.6 -10.89,-1.55 -3.03,-0.99 -5.89,-1.94 -10.55,-1.32 4.6,-0.23 7.44,0.73 10.42,1.7 2.96,0.97 6.03,1.95 11.06,1.58 6.48,-0.5 9.31,0.78 11.75,1.92 1.27,0.59 2.46,1.15 4.02,1.38 3.39,0.52 5.8,-0.47 6.61,-1.59 l 0.19,-1.03 c -0.28,-0.54 -0.86,-0.35 -1.55,-0.1 -0.91,0.31 -2.3,0.78 -4.09,0.21 -0.84,-0.28 -1.78,-0.81 -2.88,-1.42 -3.01,-1.66 -7.12,-3.93 -13.18,-3.41 -4.04,0.38 -7.32,-0.83 -10.75,-2.12 -3.24,-1.2 -6.57,-2.44 -10.77,-2.44 l 0,0" />
        <path
           inkscape:connector-curvature="0"
           id="path3926"
           style="fill:#7a361d;fill-opacity:1;fill-rule:nonzero;stroke:none"
           d="m 7689.32,3702.14 c 8.79,0.44 12.67,5.41 20.69,4.45 -6.34,2.12 -11.23,-3.05 -20.59,-2.76 l -0.1,-1.69" />
        <path
           inkscape:connector-curvature="0"
           id="path3928"
           style="fill:#f1bd51;fill-opacity:1;fill-rule:nonzero;stroke:none"
           d="m 7668.69,3699.22 -27.62,60.17 c 0,0 -0.46,1.14 -1.23,0.81 -0.77,-0.31 -0.3,-1.43 -0.3,-1.43 l 23.04,-62.08 6.11,2.53" />
        <path
           inkscape:connector-curvature="0"
           id="path3930"
           style="fill:#7a361d;fill-opacity:1;fill-rule:nonzero;stroke:none"
           d="m 7662.77,3696.76 -23.42,61.94 c 0,0.02 -0.29,0.69 -0.07,1.21 l 1.16,0.49 c 0.52,-0.21 0.81,-0.91 0.82,-0.94 l 27.62,-60.15 -0.38,-0.17 -28.14,61.07 -0.44,-0.19 -0.19,-1.18 23.04,-62.08 0,0" />
        <path
           inkscape:connector-curvature="0"
           id="path3932"
           style="fill:#7a361d;fill-opacity:1;fill-rule:nonzero;stroke:none"
           d="m 7667.15,3698.61 -18.89,41.31 15.85,-42.59 3.04,1.28" />
        <path
           inkscape:connector-curvature="0"
           id="path3934"
           style="fill:#f1bd51;fill-opacity:1;fill-rule:nonzero;stroke:none"
           d="m 7663.25,3720.08 c 0.32,9.15 -5.32,14.2 -4.59,22.37 0.74,8.17 -3.75,12.78 -4.78,15.95 -1.03,3.18 1.14,5.09 0.2,5.55 -0.94,0.44 -2.98,-2.06 -2.3,-6.57 0.66,-4.55 4.07,-5.87 3.27,-15.86 -0.79,-9.98 4.08,-12.31 2.91,-21.4 l 5.29,-0.04" />
        <path
           inkscape:connector-curvature="0"
           id="path3936"
           style="fill:#7a361d;fill-opacity:1;fill-rule:nonzero;stroke:none"
           d="m 7663.46,3720.08 -0.41,0.01 c 0.15,4.52 -1.16,8.04 -2.43,11.44 -1.3,3.49 -2.53,6.79 -2.16,10.94 0.53,5.9 -1.7,9.95 -3.34,12.91 -0.62,1.12 -1.16,2.09 -1.44,2.96 -0.61,1.91 -0.12,3.38 0.21,4.35 0.24,0.7 0.31,0.97 0.1,1.08 -1.45,-0.8 -2.51,-2.97 -2.01,-6.36 0.22,-1.52 0.76,-2.7 1.34,-3.93 1.15,-2.5 2.46,-5.33 1.93,-11.98 -0.39,-4.92 0.61,-7.96 1.57,-10.9 1,-3.03 1.94,-5.89 1.34,-10.5 0.18,4.58 -0.75,7.39 -1.72,10.37 -0.98,2.98 -1.99,6.06 -1.6,11.06 0.53,6.54 -0.76,9.33 -1.89,11.77 -0.59,1.27 -1.14,2.47 -1.38,4.05 -0.5,3.34 0.46,5.75 1.56,6.58 l 1.04,0.21 c 0.56,-0.28 0.35,-0.88 0.11,-1.58 -0.32,-0.92 -0.78,-2.32 -0.21,-4.1 0.28,-0.84 0.8,-1.79 1.41,-2.89 1.66,-3 3.93,-7.11 3.39,-13.14 -0.37,-4.05 0.84,-7.31 2.13,-10.75 1.29,-3.45 2.61,-7 2.46,-11.6 l 0,0" />
        <path
           inkscape:connector-curvature="0"
           id="path3938"
           style="fill:#7a361d;fill-opacity:1;fill-rule:nonzero;stroke:none"
           d="m 7661.45,3721.66 c -0.45,8.79 -5.43,12.66 -4.42,20.67 -2.19,-6.34 3,-11.25 2.7,-20.61 l 1.72,-0.06" />
        <path
           inkscape:connector-curvature="0"
           id="path3940"
           style="fill:#f1bd51;fill-opacity:1;fill-rule:nonzero;stroke:none"
           d="m 7662.58,3696.69 27.61,-60.17 c 0,0 0.46,-1.16 1.25,-0.84 0.76,0.32 0.29,1.48 0.29,1.48 l -23.04,62.06 -6.11,-2.53" />
        <path
           inkscape:connector-curvature="0"
           id="path3942"
           style="fill:#7a361d;fill-opacity:1;fill-rule:nonzero;stroke:none"
           d="m 7691.52,3635.49 c -1.23,0.23 -1.51,0.92 -1.52,0.96 l -27.61,60.16 0.38,0.16 27.6,-60.16 c 0.01,-0.02 0.47,-1.01 0.99,-0.74 0.56,0.24 0.18,1.2 0.18,1.22 l -23.04,62.06 23.42,-61.92 c 0.19,-0.46 0.35,-1.43 -0.4,-1.74 l 0,0" />
        <path
           inkscape:connector-curvature="0"
           id="path3944-2"
           style="fill:#7a361d;fill-opacity:1;fill-rule:nonzero;stroke:none"
           d="M 7664.11,3697.33 7683,3656 l -15.85,42.61 -3.04,-1.28" />
        <path
           inkscape:connector-curvature="0"
           id="path3946-8"
           style="fill:#f1bd51;fill-opacity:1;fill-rule:nonzero;stroke:none"
           d="m 7668.03,3675.82 c -0.34,-9.14 5.31,-14.19 4.58,-22.34 -0.73,-8.17 3.74,-12.8 4.77,-16 1.05,-3.17 -1.14,-5.04 -0.2,-5.52 0.94,-0.46 2.98,2.08 2.32,6.59 -0.67,4.5 -4.09,5.85 -3.29,15.83 0.81,9.97 -4.07,12.3 -2.9,21.4 l -5.28,0.04" />
        <path
           inkscape:connector-curvature="0"
           id="path3948-5"
           style="fill:#7a361d;fill-opacity:1;fill-rule:nonzero;stroke:none"
           d="m 7677.09,3631.78 c -0.56,0.28 -0.35,0.88 -0.11,1.57 0.31,0.91 0.79,2.29 0.21,4.07 -0.28,0.86 -0.8,1.81 -1.41,2.92 -1.65,3.01 -3.92,7.14 -3.38,13.16 0.37,4.04 -0.85,7.28 -2.13,10.72 -1.29,3.44 -2.61,7 -2.45,11.62 l 0.41,-0.02 c -0.16,-4.53 1.15,-8.05 2.42,-11.46 1.3,-3.48 2.53,-6.77 2.16,-10.9 -0.52,-5.9 1.7,-9.96 3.33,-12.93 0.62,-1.13 1.15,-2.11 1.44,-2.98 0.62,-1.91 0.12,-3.37 -0.22,-4.33 -0.24,-0.71 -0.3,-0.97 -0.09,-1.08 1.45,0.78 2.52,2.95 2.03,6.38 -0.23,1.5 -0.76,2.66 -1.34,3.89 -1.16,2.49 -2.49,5.32 -1.96,11.98 0.41,4.92 -0.59,7.97 -1.56,10.91 -0.99,3.02 -1.93,5.89 -1.33,10.5 -0.18,-4.57 0.75,-7.39 1.72,-10.37 0.98,-2.99 1.99,-6.07 1.58,-11.07 -0.52,-6.55 0.78,-9.33 1.92,-11.78 0.58,-1.26 1.14,-2.44 1.38,-4 0.49,-3.38 -0.49,-5.8 -1.6,-6.61 l -1.02,-0.19 0,0" />
        <path
           inkscape:connector-curvature="0"
           id="path3950-3"
           style="fill:#7a361d;fill-opacity:1;fill-rule:nonzero;stroke:none"
           d="m 7669.83,3674.28 c 0.44,-8.79 5.42,-12.69 4.46,-20.71 2.12,6.35 -3.05,11.25 -2.76,20.59 l -1.7,0.12" />
        <path
           inkscape:connector-curvature="0"
           id="path3952"
           style="fill:#f1bd51;fill-opacity:1;fill-rule:nonzero;stroke:none"
           d="m 7665.65,3724.9 c 14.88,0 26.95,-12.05 26.95,-26.93 0,-14.91 -12.07,-26.99 -26.95,-26.99 -14.91,0 -26.99,12.08 -26.99,26.99 0,14.88 12.08,26.93 26.99,26.93 l 0,0" />
        <path
           inkscape:connector-curvature="0"
           id="path3954"
           style="fill:#7a361d;fill-opacity:1;fill-rule:nonzero;stroke:none"
           d="m 7665.65,3670.78 c -15,0 -27.19,12.2 -27.19,27.19 0,14.96 12.19,27.13 27.19,27.13 14.97,0 27.15,-12.17 27.15,-27.13 0,-14.99 -12.18,-27.19 -27.15,-27.19 l 0,0 z m 0,53.91 c -14.77,0 -26.78,-11.99 -26.78,-26.72 0,-14.77 12.01,-26.78 26.78,-26.78 14.75,0 26.74,12.01 26.74,26.78 0,14.73 -11.99,26.72 -26.74,26.72 l 0,0" />
        <path
           inkscape:connector-curvature="0"
           id="path3956"
           style="fill:#7a361d;fill-opacity:1;fill-rule:nonzero;stroke:none"
           d="m 7682.64,3703.77 c -4.79,4.12 -10.76,4.77 -14.1,1.64 -2.42,-3.2 -2.19,-7.01 0.62,-10.98 -0.2,0 -0.62,-0.21 -0.83,-0.41 -2.08,3.97 -2.45,8.08 -1.04,11.82 4.59,3.72 10.81,4.13 15.35,-2.07 l 0,0" />
        <path
           inkscape:connector-curvature="0"
           id="path3958-7"
           style="fill:#7a361d;fill-opacity:1;fill-rule:nonzero;stroke:none"
           d="m 7675.19,3705.02 c -2.72,0 -3.31,-0.64 -4.59,-1.66 -1.24,-1.06 -1.84,-0.83 -2.06,-1.06 -0.21,-0.2 0,-0.82 0.42,-0.62 0.4,0.23 1.24,0.62 2.49,1.68 1.23,1.02 2.49,1.02 3.74,1.02 3.7,0 5.77,-3.11 6.22,-2.9 0.4,0.2 -2.09,3.54 -6.22,3.54 l 0,0" />
        <path
           inkscape:connector-curvature="0"
           id="path3960-7"
           style="fill:#7a361d;fill-opacity:1;fill-rule:nonzero;stroke:none"
           d="m 7679.93,3701.48 c -2.68,2.9 -7.66,3.11 -9.73,-0.21 l 0.82,0 c 2.09,3.32 7.08,1.88 7.48,0.41 l 0,-0.41 1.43,0.21" />
        <path
           inkscape:connector-curvature="0"
           id="path3962-7"
           style="fill:#7a361d;fill-opacity:1;fill-rule:nonzero;stroke:none"
           d="m 7674.75,3703.56 c 1.03,0 1.87,-0.85 1.87,-1.88 0,-1.02 -0.84,-1.86 -1.87,-1.86 -1,0 -1.85,0.84 -1.85,1.86 0,1.03 0.85,1.88 1.85,1.88 l 0,0" />
        <path
           inkscape:connector-curvature="0"
           id="path3964-8"
           style="fill:#7a361d;fill-opacity:1;fill-rule:nonzero;stroke:none"
           d="m 7670.2,3701.27 c 2.07,-1.87 6.62,-2.07 9.73,0.21 l -1.43,0.2 c -2.09,-2.28 -5.39,-2.07 -7.48,-0.41 l 0,0.41 -0.82,-0.41" />
        <path
           inkscape:connector-curvature="0"
           id="path3966-1"
           style="fill:#7a361d;fill-opacity:1;fill-rule:nonzero;stroke:none"
           d="m 7680.16,3700.45 c -3.54,-2.71 -7.05,-2.48 -9.14,-1.25 -2.06,1.25 -2.06,1.64 -1.66,1.64 0.43,0 0.84,-0.39 2.52,-1.23 1.62,-0.82 4.14,-0.82 8.28,0.84 l 0,0" />
        <path
           inkscape:connector-curvature="0"
           id="path3968-7"
           style="fill:#7a361d;fill-opacity:1;fill-rule:nonzero;stroke:none"
           d="m 7670,3694.22 c 0.63,-0.23 0.96,-0.93 0.73,-1.6 -0.22,-0.63 -0.94,-0.98 -1.57,-0.75 -0.47,0.16 -0.8,0.59 -0.83,1.1 -0.2,-0.41 -1.04,-1.65 -2.68,-1.65 l -0.42,0 0.42,-0.61 c 0.4,0 1.64,0 2.48,0.61 0.59,-0.84 1.73,-1.05 2.6,-0.48 0.83,0.6 1.04,1.76 0.47,2.63 -0.29,0.39 -0.73,0.66 -1.2,0.75 l 0,0" />
        <path
           inkscape:connector-curvature="0"
           id="path3970-4"
           style="fill:#7a361d;fill-opacity:1;fill-rule:nonzero;stroke:none"
           d="m 7672.47,3685.53 c -1.87,1.23 -2.68,3.1 -4.74,3.1 -0.44,0 -1.28,-0.23 -2.08,-0.64 l -0.42,0 0.42,-0.61 c 0.8,0 2.08,1.02 3.51,0.22 1.44,-0.84 2.29,-1.68 3.31,-2.07 l 0,0" />
        <path
           inkscape:connector-curvature="0"
           id="path3972-9"
           style="fill:#7a361d;fill-opacity:1;fill-rule:nonzero;stroke:none"
           d="m 7671.88,3685.53 c -4.15,1.23 -5,0.39 -6.23,0.39 l -0.42,0 0.42,-0.83 c 1.64,0 2.48,1.26 6.23,0.44 l 0,0" />
        <path
           inkscape:connector-curvature="0"
           id="path3974-4"
           style="fill:#7a361d;fill-opacity:1;fill-rule:nonzero;stroke:none"
           d="m 7672.47,3685.53 c -4.54,0.39 -3.11,-2.31 -6.82,-2.31 l -0.42,0 0.42,-0.61 c 4.55,0 2.48,2.48 6.82,2.92 l 0,0" />
        <path
           inkscape:connector-curvature="0"
           id="path3976-5"
           style="fill:#7a361d;fill-opacity:1;fill-rule:nonzero;stroke:none"
           d="m 7669.36,3678.89 c 0,2.05 -1.67,3.72 -3.71,3.72 -2.08,0 -3.74,-1.67 -3.74,-3.72 0.47,2.05 2.53,3.32 4.61,2.82 1.41,-0.31 2.51,-1.41 2.84,-2.82 l 0,0" />
        <path
           inkscape:connector-curvature="0"
           id="path3978-1"
           style="fill:#7a361d;fill-opacity:1;fill-rule:nonzero;stroke:none"
           d="m 7648.63,3703.77 c 4.78,4.12 10.77,4.77 14.11,1.64 2.42,-3.2 2.17,-7.01 -0.63,-10.98 0.2,0 0.63,-0.21 0.83,-0.41 2.08,3.97 2.44,8.08 1.04,11.82 -4.58,3.72 -10.8,4.13 -15.35,-2.07 l 0,0" />
        <path
           inkscape:connector-curvature="0"
           id="path3980-8"
           style="fill:#7a361d;fill-opacity:1;fill-rule:nonzero;stroke:none"
           d="m 7656.09,3705.02 c 2.71,0 3.31,-0.64 4.57,-1.66 1.25,-1.06 1.85,-0.83 2.08,-1.06 0.2,-0.2 0,-0.82 -0.43,-0.62 -0.4,0.23 -1.25,0.62 -2.48,1.68 -1.24,1.02 -2.51,1.02 -3.74,1.02 -3.71,0 -5.79,-3.11 -6.22,-2.9 -0.4,0.2 2.08,3.54 6.22,3.54 l 0,0" />
        <path
           inkscape:connector-curvature="0"
           id="path3982-7"
           style="fill:#7a361d;fill-opacity:1;fill-rule:nonzero;stroke:none"
           d="m 7651.35,3701.48 c 2.67,2.9 7.65,3.11 9.71,-0.21 l -0.83,0 c -2.08,3.32 -7.05,1.88 -7.45,0.41 l 0,-0.41 -1.43,0.21" />
        <path
           inkscape:connector-curvature="0"
           id="path3984-1"
           style="fill:#7a361d;fill-opacity:1;fill-rule:nonzero;stroke:none"
           d="m 7656.52,3703.56 c -1.03,0 -1.86,-0.85 -1.86,-1.88 0,-1.02 0.83,-1.86 1.86,-1.86 1.01,0 1.84,0.84 1.84,1.86 0,1.03 -0.83,1.88 -1.84,1.88 l 0,0" />
        <path
           inkscape:connector-curvature="0"
           id="path3986-4"
           style="fill:#7a361d;fill-opacity:1;fill-rule:nonzero;stroke:none"
           d="m 7661.06,3701.27 c -2.06,-1.87 -6.61,-2.07 -9.71,0.21 l 1.43,0.2 c 2.06,-2.28 5.37,-2.07 7.45,-0.41 l 0,0.41 0.83,-0.41" />
        <path
           inkscape:connector-curvature="0"
           id="path3988-2"
           style="fill:#7a361d;fill-opacity:1;fill-rule:nonzero;stroke:none"
           d="m 7651.1,3700.45 c 3.56,-2.71 7.05,-2.48 9.13,-1.25 2.08,1.25 2.08,1.64 1.68,1.64 -0.45,0 -0.85,-0.39 -2.51,-1.23 -1.65,-0.82 -4.13,-0.82 -8.3,0.84 l 0,0" />
        <path
           inkscape:connector-curvature="0"
           id="path3990-2"
           style="fill:#7a361d;fill-opacity:1;fill-rule:nonzero;stroke:none"
           d="m 7661.27,3694.22 c -0.64,-0.23 -0.97,-0.93 -0.74,-1.6 0.24,-0.63 0.93,-0.98 1.58,-0.75 0.47,0.16 0.79,0.59 0.83,1.1 0.2,-0.41 1.04,-1.65 2.71,-1.65 l 0.4,0 -0.4,-0.61 c -0.42,0 -1.67,0 -2.51,0.61 -0.6,-0.84 -1.73,-1.05 -2.61,-0.48 -0.83,0.6 -1.03,1.76 -0.46,2.63 0.3,0.39 0.73,0.66 1.2,0.75 l 0,0" />
        <path
           inkscape:connector-curvature="0"
           id="path3992-4"
           style="fill:#7a361d;fill-opacity:1;fill-rule:nonzero;stroke:none"
           d="m 7658.8,3685.53 c 1.86,1.23 2.66,3.1 4.74,3.1 0.44,0 1.27,-0.23 2.11,-0.64 l 0.4,0 -0.4,-0.61 c -0.84,0 -2.11,1.02 -3.54,0.22 -1.45,-0.84 -2.28,-1.68 -3.31,-2.07 l 0,0" />
        <path
           inkscape:connector-curvature="0"
           id="path3994-1"
           style="fill:#7a361d;fill-opacity:1;fill-rule:nonzero;stroke:none"
           d="m 7659.4,3685.53 c 4.14,1.23 4.98,0.39 6.25,0.39 l 0.4,0 -0.4,-0.83 c -1.67,0 -2.51,1.26 -6.25,0.44 l 0,0" />
        <path
           inkscape:connector-curvature="0"
           id="path3996-3"
           style="fill:#7a361d;fill-opacity:1;fill-rule:nonzero;stroke:none"
           d="m 7658.8,3685.53 c 4.55,0.39 3.11,-2.31 6.85,-2.31 l 0.4,0 -0.4,-0.61 c -4.59,0 -2.51,2.48 -6.85,2.92 l 0,0" />
        <path
           inkscape:connector-curvature="0"
           id="path3998-8"
           style="fill:#7a361d;fill-opacity:1;fill-rule:nonzero;stroke:none"
           d="m 7661.91,3678.89 c 0,2.05 1.66,3.72 3.74,3.72 2.04,0 3.71,-1.67 3.71,-3.72 -0.47,2.05 -2.54,3.32 -4.61,2.82 -1.4,-0.31 -2.5,-1.41 -2.84,-2.82 l 0,0" />
      </g>
    </g>
  </g>
</svg>
