<?xml version="1.0" encoding="UTF-8" standalone="no"?>
<!-- Created with Inkscape (http://www.inkscape.org/) -->

<svg
   xmlns:dc="http://purl.org/dc/elements/1.1/"
   xmlns:cc="http://creativecommons.org/ns#"
   xmlns:rdf="http://www.w3.org/1999/02/22-rdf-syntax-ns#"
   xmlns:svg="http://www.w3.org/2000/svg"
   xmlns="http://www.w3.org/2000/svg"
   xmlns:sodipodi="http://sodipodi.sourceforge.net/DTD/sodipodi-0.dtd"
   xmlns:inkscape="http://www.inkscape.org/namespaces/inkscape"
   width="256"
   height="256"
   id="svg10175"
   version="1.1"
   inkscape:version="0.48.5 r10040"
   sodipodi:docname="Documento nuevo 15">
  <defs
     id="defs10177">
    <clipPath
       clipPathUnits="userSpaceOnUse"
       id="clipPath1974">
      <path
         inkscape:connector-curvature="0"
         d="m 7249.71,4720.71 831.84,0 0,-485.23 -831.84,0 0,485.23 z"
         id="path1976" />
    </clipPath>
  </defs>
  <sodipodi:namedview
     id="base"
     pagecolor="#ffffff"
     bordercolor="#666666"
     borderopacity="1.0"
     inkscape:pageopacity="0.0"
     inkscape:pageshadow="2"
     inkscape:zoom="1.4641089"
     inkscape:cx="372.85714"
     inkscape:cy="217.14286"
     inkscape:document-units="px"
     inkscape:current-layer="layer1"
     showgrid="false"
     inkscape:window-width="1914"
     inkscape:window-height="1031"
     inkscape:window-x="0"
     inkscape:window-y="25"
     inkscape:window-maximized="1" />
  <metadata
     id="metadata10180">
    <rdf:RDF>
      <cc:Work
         rdf:about="">
        <dc:format>image/svg+xml</dc:format>
        <dc:type
           rdf:resource="http://purl.org/dc/dcmitype/StillImage" />
        <dc:title></dc:title>
      </cc:Work>
    </rdf:RDF>
  </metadata>
  <g
     inkscape:label="Capa 1"
     inkscape:groupmode="layer"
     id="layer1"
     transform="translate(0,-796.36218)">
    <g
       id="g1970"
       transform="matrix(0.30646937,0,0,-0.30646937,-2221.1816,2301.2043)">
      <g
         clip-path="url(#clipPath1974)"
         id="g1972">
        <path
           inkscape:connector-curvature="0"
           id="path1978"
           style="fill:#ffffff;fill-opacity:1;fill-rule:nonzero;stroke:none"
           d="m 7249.71,4235.48 831.836,0 0,485.23 -831.836,0 0,-485.23 z" />
        <path
           inkscape:connector-curvature="0"
           id="path1980"
           style="fill:#2530a9;fill-opacity:1;fill-rule:nonzero;stroke:none"
           d="m 7249.71,4235.48 242.617,0 0,485.23 -242.617,0 0,-485.23 z" />
        <path
           inkscape:connector-curvature="0"
           id="path1982"
           style="fill:#c22623;fill-opacity:1;fill-rule:nonzero;stroke:none"
           d="m 7249.71,4235.48 831.836,0 0,242.617 -831.836,0 0,-242.617 z" />
        <path
           inkscape:connector-curvature="0"
           id="path1984"
           style="fill:#ffffff;fill-opacity:1;fill-rule:nonzero;stroke:none"
           d="m 7371.02,4660.06 -18.75,-57.69 28.85,-9.37 -10.1,67.06" />
        <path
           inkscape:connector-curvature="0"
           id="path1986"
           style="fill:#ffffff;fill-opacity:1;fill-rule:nonzero;stroke:none"
           d="m 7371.02,4660.06 18.75,-57.69 -28.84,-9.37 10.09,67.06" />
        <path
           inkscape:connector-curvature="0"
           id="path1988"
           style="fill:#ffffff;fill-opacity:1;fill-rule:nonzero;stroke:none"
           d="m 7428.72,4618.14 -60.66,0 0,-30.32 60.66,30.32" />
        <path
           inkscape:connector-curvature="0"
           id="path1990"
           style="fill:#ffffff;fill-opacity:1;fill-rule:nonzero;stroke:none"
           d="m 7428.72,4618.14 -49.08,-35.65 -17.83,24.54 66.91,11.11" />
        <path
           inkscape:connector-curvature="0"
           id="path1992"
           style="fill:#ffffff;fill-opacity:1;fill-rule:nonzero;stroke:none"
           d="m 7313.33,4618.14 49.08,-35.65 17.83,24.54 -66.91,11.11" />
        <path
           inkscape:connector-curvature="0"
           id="path1994"
           style="fill:#ffffff;fill-opacity:1;fill-rule:nonzero;stroke:none"
           d="m 7313.33,4618.14 60.66,0 0,-30.32 -60.66,30.32" />
        <path
           inkscape:connector-curvature="0"
           id="path1996"
           style="fill:#ffffff;fill-opacity:1;fill-rule:nonzero;stroke:none"
           d="m 7406.67,4550.33 -18.73,57.69 -28.85,-9.38 47.58,-48.31" />
        <path
           inkscape:connector-curvature="0"
           id="path1998"
           style="fill:#ffffff;fill-opacity:1;fill-rule:nonzero;stroke:none"
           d="m 7406.67,4550.33 -49.06,35.65 17.83,24.54 31.23,-60.19" />
        <path
           inkscape:connector-curvature="0"
           id="path2000"
           style="fill:#ffffff;fill-opacity:1;fill-rule:nonzero;stroke:none"
           d="m 7335.38,4550.33 49.06,35.65 -17.83,24.54 -31.23,-60.19" />
        <path
           inkscape:connector-curvature="0"
           id="path2002"
           style="fill:#ffffff;fill-opacity:1;fill-rule:nonzero;stroke:none"
           d="m 7335.38,4550.33 18.73,57.69 28.85,-9.38 -47.58,-48.31" />
      </g>
    </g>
  </g>
</svg>
