<?xml version="1.0" encoding="UTF-8" standalone="no"?>
<!-- Created with Inkscape (http://www.inkscape.org/) -->

<svg
   xmlns:dc="http://purl.org/dc/elements/1.1/"
   xmlns:cc="http://creativecommons.org/ns#"
   xmlns:rdf="http://www.w3.org/1999/02/22-rdf-syntax-ns#"
   xmlns:svg="http://www.w3.org/2000/svg"
   xmlns="http://www.w3.org/2000/svg"
   xmlns:sodipodi="http://sodipodi.sourceforge.net/DTD/sodipodi-0.dtd"
   xmlns:inkscape="http://www.inkscape.org/namespaces/inkscape"
   width="256"
   height="256"
   id="svg10175"
   version="1.1"
   inkscape:version="0.48.5 r10040"
   sodipodi:docname="mexico.svg">
  <defs
     id="defs10177">
    <clipPath
       clipPathUnits="userSpaceOnUse"
       id="clipPath1974">
      <path
         inkscape:connector-curvature="0"
         d="m 7249.71,4720.71 831.84,0 0,-485.23 -831.84,0 0,485.23 z"
         id="path1976" />
    </clipPath>
    <clipPath
       clipPathUnits="userSpaceOnUse"
       id="clipPath2592">
      <path
         inkscape:connector-curvature="0"
         d="m 4255.95,3144.86 831.83,0 0,-485.24 -831.83,0 0,485.24 z"
         id="path2594" />
    </clipPath>
    <clipPath
       clipPathUnits="userSpaceOnUse"
       id="clipPath4326">
      <path
         inkscape:connector-curvature="0"
         d="m 6251.82,2356.93 831.81,0 0,-485.24 -831.81,0 0,485.24 z"
         id="path4328" />
    </clipPath>
    <clipPath
       clipPathUnits="userSpaceOnUse"
       id="clipPath4316">
      <path
         inkscape:connector-curvature="0"
         d="m 6602.15,2135.59 15.74,0 0,40.82 -15.74,0 0,-40.82 z"
         id="path4318" />
    </clipPath>
    <clipPath
       clipPathUnits="userSpaceOnUse"
       id="clipPath4132">
      <path
         inkscape:connector-curvature="0"
         d="m 6251.82,2356.93 831.81,0 0,-485.24 -831.81,0 0,485.24 z"
         id="path4134" />
    </clipPath>
    <clipPath
       clipPathUnits="userSpaceOnUse"
       id="clipPath4122">
      <path
         inkscape:connector-curvature="0"
         d="m 6717.36,2134.97 15.75,0 0,40.83 -15.75,0 0,-40.83 z"
         id="path4124" />
    </clipPath>
    <clipPath
       clipPathUnits="userSpaceOnUse"
       id="clipPath3956">
      <path
         inkscape:connector-curvature="0"
         d="m 6251.82,2356.93 831.81,0 0,-485.24 -831.81,0 0,485.24 z"
         id="path3958" />
    </clipPath>
    <clipPath
       clipPathUnits="userSpaceOnUse"
       id="clipPath3942">
      <path
         inkscape:connector-curvature="0"
         d="m 6251.82,1871.69 831.81,0 0,485.24 -831.81,0 0,-485.24 z"
         id="path3944" />
    </clipPath>
    <clipPath
       clipPathUnits="userSpaceOnUse"
       id="clipPath3444">
      <path
         inkscape:connector-curvature="0"
         d="m 7719.99,2876.24 c -2.4,-2.11 -3.55,-4.84 -2.58,-6.12 1,-1.26 3.77,-0.58 6.17,1.53 2.42,2.11 3.58,4.84 2.58,6.12 -0.33,0.42 -0.88,0.62 -1.54,0.62 -1.29,0 -3.03,-0.77 -4.63,-2.15"
         id="path3446" />
    </clipPath>
    <clipPath
       clipPathUnits="userSpaceOnUse"
       id="clipPath3450">
      <path
         inkscape:connector-curvature="0"
         d="m 7711.79,2874.39 9.14,-10.91 10.86,9.38 -9.15,10.9 -10.85,-9.37"
         id="path3452" />
    </clipPath>
    <clipPath
       clipPathUnits="userSpaceOnUse"
       id="clipPath2642">
      <path
         inkscape:connector-curvature="0"
         d="m 7249.73,3144.86 831.82,0 0,-485.24 -831.82,0 0,485.24 z"
         id="path2644" />
    </clipPath>
    <clipPath
       clipPathUnits="userSpaceOnUse"
       id="clipPath2626">
      <path
         inkscape:connector-curvature="0"
         d="m 7594.99,2905.96 c -1.95,-1.05 -2.3,-4.29 -0.76,-7.22 1.54,-2.95 4.37,-4.47 6.34,-3.4 1.96,1.06 2.31,4.3 0.77,7.23 -1.22,2.3 -3.21,3.73 -4.96,3.73 -0.49,0 -0.96,-0.1 -1.39,-0.34"
         id="path2628" />
    </clipPath>
    <clipPath
       clipPathUnits="userSpaceOnUse"
       id="clipPath2632">
      <path
         inkscape:connector-curvature="0"
         d="m 7603.98,2894.39 -1.2,12.86 -11.19,-1.05 1.19,-12.89 11.2,1.08"
         id="path2634" />
    </clipPath>
    <clipPath
       clipPathUnits="userSpaceOnUse"
       id="clipPath2588">
      <path
         inkscape:connector-curvature="0"
         d="m 7249.73,3144.86 831.82,0 0,-485.24 -831.82,0 0,485.24 z"
         id="path2590" />
    </clipPath>
    <clipPath
       clipPathUnits="userSpaceOnUse"
       id="clipPath2572">
      <path
         inkscape:connector-curvature="0"
         d="m 7627.84,2885.16 c -0.47,-3.02 0.8,-5.76 2.83,-6.09 2.03,-0.33 4.06,1.88 4.56,4.92 0.46,3.05 -0.81,5.76 -2.84,6.1 -0.14,0.02 -0.27,0.03 -0.41,0.03 -1.89,0 -3.69,-2.1 -4.14,-4.96"
         id="path2574" />
    </clipPath>
    <clipPath
       clipPathUnits="userSpaceOnUse"
       id="clipPath2578">
      <path
         inkscape:connector-curvature="0"
         d="m 7623.39,2880.42 11.07,-4.67 5.22,12.7 -11.08,4.66 -5.21,-12.69"
         id="path2580" />
    </clipPath>
    <clipPath
       clipPathUnits="userSpaceOnUse"
       id="clipPath1896">
      <path
         inkscape:connector-curvature="0"
         d="m 7249.73,3144.86 831.82,0 0,-485.24 -831.82,0 0,485.24 z"
         id="path1898" />
    </clipPath>
    <clipPath
       clipPathUnits="userSpaceOnUse"
       id="clipPath2082">
      <path
         inkscape:connector-curvature="0"
         d="m 3258.03,3932.79 831.83,0 0,-485.24 -831.83,0 0,485.24 z"
         id="path2084" />
    </clipPath>
  </defs>
  <sodipodi:namedview
     id="base"
     pagecolor="#ffffff"
     bordercolor="#666666"
     borderopacity="1.0"
     inkscape:pageopacity="0.0"
     inkscape:pageshadow="2"
     inkscape:zoom="1.9826475"
     inkscape:cx="155.51589"
     inkscape:cy="144.98986"
     inkscape:document-units="px"
     inkscape:current-layer="layer1"
     showgrid="false"
     inkscape:window-width="1914"
     inkscape:window-height="1031"
     inkscape:window-x="0"
     inkscape:window-y="25"
     inkscape:window-maximized="1"
     showguides="true"
     inkscape:guide-bbox="true">
    <sodipodi:guide
       orientation="0,1"
       position="215.14793,207.63483"
       id="guide10398" />
    <sodipodi:guide
       orientation="0,1"
       position="191.92561,58.7388"
       id="guide10400" />
  </sodipodi:namedview>
  <metadata
     id="metadata10180">
    <rdf:RDF>
      <cc:Work
         rdf:about="">
        <dc:format>image/svg+xml</dc:format>
        <dc:type
           rdf:resource="http://purl.org/dc/dcmitype/StillImage" />
        <dc:title></dc:title>
      </cc:Work>
    </rdf:RDF>
  </metadata>
  <g
     inkscape:label="Capa 1"
     inkscape:groupmode="layer"
     id="layer1"
     transform="translate(0,-796.36218)">
    <g
       id="g2078"
       transform="matrix(0.30685223,0,0,-0.30685223,-999.26803,2051.5118)">
      <g
         clip-path="url(#clipPath2082)"
         id="g2080">
        <path
           inkscape:connector-curvature="0"
           id="path2086"
           style="fill:#f3d02f;fill-opacity:1;fill-rule:nonzero;stroke:none"
           d="m 3258.03,3690.17 831.836,0 0,242.617 -831.836,0 0,-242.617 z" />
        <path
           inkscape:connector-curvature="0"
           id="path2088"
           style="fill:#22368f;fill-opacity:1;fill-rule:nonzero;stroke:none"
           d="m 3258.03,3568.86 831.836,0 0,121.309 -831.836,0 0,-121.309 z" />
        <path
           inkscape:connector-curvature="0"
           id="path2090"
           style="fill:#bc0030;fill-opacity:1;fill-rule:nonzero;stroke:none"
           d="m 3258.03,3447.55 831.836,0 0,121.309 -831.836,0 0,-121.309 z" />
      </g>
    </g>
  </g>
</svg>
