<?xml version="1.0" encoding="UTF-8" standalone="no"?>
<!-- Created with Inkscape (http://www.inkscape.org/) -->

<svg
   xmlns:dc="http://purl.org/dc/elements/1.1/"
   xmlns:cc="http://creativecommons.org/ns#"
   xmlns:rdf="http://www.w3.org/1999/02/22-rdf-syntax-ns#"
   xmlns:svg="http://www.w3.org/2000/svg"
   xmlns="http://www.w3.org/2000/svg"
   xmlns:sodipodi="http://sodipodi.sourceforge.net/DTD/sodipodi-0.dtd"
   xmlns:inkscape="http://www.inkscape.org/namespaces/inkscape"
   width="256"
   height="256"
   id="svg10175"
   version="1.1"
   inkscape:version="0.48.5 r10040"
   sodipodi:docname="cuba.svg">
  <defs
     id="defs10177">
    <clipPath
       clipPathUnits="userSpaceOnUse"
       id="clipPath1974">
      <path
         inkscape:connector-curvature="0"
         d="m 7249.71,4720.71 831.84,0 0,-485.23 -831.84,0 0,485.23 z"
         id="path1976" />
    </clipPath>
    <clipPath
       clipPathUnits="userSpaceOnUse"
       id="clipPath2592">
      <path
         inkscape:connector-curvature="0"
         d="m 4255.95,3144.86 831.83,0 0,-485.24 -831.83,0 0,485.24 z"
         id="path2594" />
    </clipPath>
  </defs>
  <sodipodi:namedview
     id="base"
     pagecolor="#ffffff"
     bordercolor="#666666"
     borderopacity="1.0"
     inkscape:pageopacity="0.0"
     inkscape:pageshadow="2"
     inkscape:zoom="1.4641089"
     inkscape:cx="372.85714"
     inkscape:cy="217.14286"
     inkscape:document-units="px"
     inkscape:current-layer="layer1"
     showgrid="false"
     inkscape:window-width="1914"
     inkscape:window-height="1031"
     inkscape:window-x="0"
     inkscape:window-y="25"
     inkscape:window-maximized="1"
     showguides="true"
     inkscape:guide-bbox="true">
    <sodipodi:guide
       orientation="0,1"
       position="215.14793,207.63483"
       id="guide10398" />
    <sodipodi:guide
       orientation="0,1"
       position="191.92561,58.7388"
       id="guide10400" />
  </sodipodi:namedview>
  <metadata
     id="metadata10180">
    <rdf:RDF>
      <cc:Work
         rdf:about="">
        <dc:format>image/svg+xml</dc:format>
        <dc:type
           rdf:resource="http://purl.org/dc/dcmitype/StillImage" />
        <dc:title></dc:title>
      </cc:Work>
    </rdf:RDF>
  </metadata>
  <g
     inkscape:label="Capa 1"
     inkscape:groupmode="layer"
     id="layer1"
     transform="translate(0,-796.36218)">
    <g
       id="g2588"
       transform="matrix(0.30646142,0,0,-0.30646142,-1303.6822,1808.9139)">
      <g
         clip-path="url(#clipPath2592)"
         id="g2590">
        <path
           inkscape:connector-curvature="0"
           id="path2596"
           style="fill:#2f3c85;fill-opacity:1;fill-rule:nonzero;stroke:none"
           d="m 4255.95,2659.62 831.836,0 0,485.242 -831.836,0 0,-485.242 z" />
        <path
           inkscape:connector-curvature="0"
           id="path2598"
           style="fill:#292c2f;fill-opacity:1;fill-rule:nonzero;stroke:none"
           d="m 4255.95,2804.95 831.83,0 -831.83,0 z m 0,194.57 831.83,0 -831.83,0" />
        <path
           inkscape:connector-curvature="0"
           id="path2600"
           style="fill:#ffffff;fill-opacity:1;fill-rule:nonzero;stroke:none"
           d="m 4255.95,2756.5 831.83,0 0,96.91 -831.83,0 0,-96.91 z m 0,194.58 831.83,0 0,96.88 -831.83,0 0,-96.88" />
        <path
           inkscape:connector-curvature="0"
           id="path2602"
           style="fill:#d80031;fill-opacity:1;fill-rule:nonzero;stroke:none"
           d="m 4255.95,3144.86 0,-485.24 419.49,242.23 -419.49,243.01" />
        <path
           inkscape:connector-curvature="0"
           id="path2604"
           style="fill:#ffffff;fill-opacity:1;fill-rule:evenodd;stroke:none"
           d="m 4396.04,2983.11 -25.06,-76.58 38.37,-12.5 -13.31,89.08" />
        <path
           inkscape:connector-curvature="0"
           id="path2606"
           style="fill:#ffffff;fill-opacity:1;fill-rule:evenodd;stroke:none"
           d="m 4396.04,2983.11 24.26,-76.58 -38.34,-12.5 14.08,89.08" />
        <path
           inkscape:connector-curvature="0"
           id="path2608"
           style="fill:#ffffff;fill-opacity:1;fill-rule:evenodd;stroke:none"
           d="m 4472.74,2926.85 -80.62,0 0,-39.85 80.62,39.85" />
        <path
           inkscape:connector-curvature="0"
           id="path2610"
           style="fill:#ffffff;fill-opacity:1;fill-rule:evenodd;stroke:none"
           d="m 4472.74,2926.85 -65.74,-46.88 -23.48,32.03 89.22,14.85" />
        <path
           inkscape:connector-curvature="0"
           id="path2612"
           style="fill:#ffffff;fill-opacity:1;fill-rule:evenodd;stroke:none"
           d="m 4318.56,2926.85 65.75,-46.88 23.47,32.03 -89.22,14.85" />
        <path
           inkscape:connector-curvature="0"
           id="path2614"
           style="fill:#ffffff;fill-opacity:1;fill-rule:evenodd;stroke:none"
           d="m 4318.56,2926.85 81.39,0 0,-39.85 -81.39,39.85" />
        <path
           inkscape:connector-curvature="0"
           id="path2616"
           style="fill:#ffffff;fill-opacity:1;fill-rule:evenodd;stroke:none"
           d="m 4443,2837 -25.04,76.57 -38.36,-12.5 63.4,-64.07" />
        <path
           inkscape:connector-curvature="0"
           id="path2618"
           style="fill:#ffffff;fill-opacity:1;fill-rule:evenodd;stroke:none"
           d="m 4443,2837 -64.96,47.66 23.48,32.03 L 4443,2837" />
        <path
           inkscape:connector-curvature="0"
           id="path2620"
           style="fill:#ffffff;fill-opacity:1;fill-rule:evenodd;stroke:none"
           d="m 4348.31,2837 64.94,47.66 -23.48,32.03 -41.46,-79.69" />
        <path
           inkscape:connector-curvature="0"
           id="path2622"
           style="fill:#ffffff;fill-opacity:1;fill-rule:evenodd;stroke:none"
           d="m 4348.31,2837 25.04,76.57 38.34,-12.5 -63.38,-64.07" />
      </g>
    </g>
  </g>
</svg>
