<?xml version="1.0" encoding="UTF-8" standalone="no"?>
<!-- Created with Inkscape (http://www.inkscape.org/) -->

<svg
   xmlns:dc="http://purl.org/dc/elements/1.1/"
   xmlns:cc="http://creativecommons.org/ns#"
   xmlns:rdf="http://www.w3.org/1999/02/22-rdf-syntax-ns#"
   xmlns:svg="http://www.w3.org/2000/svg"
   xmlns="http://www.w3.org/2000/svg"
   xmlns:sodipodi="http://sodipodi.sourceforge.net/DTD/sodipodi-0.dtd"
   xmlns:inkscape="http://www.inkscape.org/namespaces/inkscape"
   width="256"
   height="256"
   id="svg10175"
   version="1.1"
   inkscape:version="0.48.5 r10040"
   sodipodi:docname="bolivia.svg">
  <defs
     id="defs10177">
    <clipPath
       clipPathUnits="userSpaceOnUse"
       id="clipPath1974">
      <path
         inkscape:connector-curvature="0"
         d="m 7249.71,4720.71 831.84,0 0,-485.23 -831.84,0 0,485.23 z"
         id="path1976" />
    </clipPath>
    <clipPath
       clipPathUnits="userSpaceOnUse"
       id="clipPath2592">
      <path
         inkscape:connector-curvature="0"
         d="m 4255.95,3144.86 831.83,0 0,-485.24 -831.83,0 0,485.24 z"
         id="path2594" />
    </clipPath>
    <clipPath
       clipPathUnits="userSpaceOnUse"
       id="clipPath4326">
      <path
         inkscape:connector-curvature="0"
         d="m 6251.82,2356.93 831.81,0 0,-485.24 -831.81,0 0,485.24 z"
         id="path4328" />
    </clipPath>
    <clipPath
       clipPathUnits="userSpaceOnUse"
       id="clipPath4316">
      <path
         inkscape:connector-curvature="0"
         d="m 6602.15,2135.59 15.74,0 0,40.82 -15.74,0 0,-40.82 z"
         id="path4318" />
    </clipPath>
    <clipPath
       clipPathUnits="userSpaceOnUse"
       id="clipPath4132">
      <path
         inkscape:connector-curvature="0"
         d="m 6251.82,2356.93 831.81,0 0,-485.24 -831.81,0 0,485.24 z"
         id="path4134" />
    </clipPath>
    <clipPath
       clipPathUnits="userSpaceOnUse"
       id="clipPath4122">
      <path
         inkscape:connector-curvature="0"
         d="m 6717.36,2134.97 15.75,0 0,40.83 -15.75,0 0,-40.83 z"
         id="path4124" />
    </clipPath>
    <clipPath
       clipPathUnits="userSpaceOnUse"
       id="clipPath3956">
      <path
         inkscape:connector-curvature="0"
         d="m 6251.82,2356.93 831.81,0 0,-485.24 -831.81,0 0,485.24 z"
         id="path3958" />
    </clipPath>
    <clipPath
       clipPathUnits="userSpaceOnUse"
       id="clipPath3942">
      <path
         inkscape:connector-curvature="0"
         d="m 6251.82,1871.69 831.81,0 0,485.24 -831.81,0 0,-485.24 z"
         id="path3944" />
    </clipPath>
    <clipPath
       clipPathUnits="userSpaceOnUse"
       id="clipPath3444">
      <path
         inkscape:connector-curvature="0"
         d="m 7719.99,2876.24 c -2.4,-2.11 -3.55,-4.84 -2.58,-6.12 1,-1.26 3.77,-0.58 6.17,1.53 2.42,2.11 3.58,4.84 2.58,6.12 -0.33,0.42 -0.88,0.62 -1.54,0.62 -1.29,0 -3.03,-0.77 -4.63,-2.15"
         id="path3446" />
    </clipPath>
    <clipPath
       clipPathUnits="userSpaceOnUse"
       id="clipPath3450">
      <path
         inkscape:connector-curvature="0"
         d="m 7711.79,2874.39 9.14,-10.91 10.86,9.38 -9.15,10.9 -10.85,-9.37"
         id="path3452" />
    </clipPath>
    <clipPath
       clipPathUnits="userSpaceOnUse"
       id="clipPath2642">
      <path
         inkscape:connector-curvature="0"
         d="m 7249.73,3144.86 831.82,0 0,-485.24 -831.82,0 0,485.24 z"
         id="path2644" />
    </clipPath>
    <clipPath
       clipPathUnits="userSpaceOnUse"
       id="clipPath2626">
      <path
         inkscape:connector-curvature="0"
         d="m 7594.99,2905.96 c -1.95,-1.05 -2.3,-4.29 -0.76,-7.22 1.54,-2.95 4.37,-4.47 6.34,-3.4 1.96,1.06 2.31,4.3 0.77,7.23 -1.22,2.3 -3.21,3.73 -4.96,3.73 -0.49,0 -0.96,-0.1 -1.39,-0.34"
         id="path2628" />
    </clipPath>
    <clipPath
       clipPathUnits="userSpaceOnUse"
       id="clipPath2632">
      <path
         inkscape:connector-curvature="0"
         d="m 7603.98,2894.39 -1.2,12.86 -11.19,-1.05 1.19,-12.89 11.2,1.08"
         id="path2634" />
    </clipPath>
    <clipPath
       clipPathUnits="userSpaceOnUse"
       id="clipPath2588">
      <path
         inkscape:connector-curvature="0"
         d="m 7249.73,3144.86 831.82,0 0,-485.24 -831.82,0 0,485.24 z"
         id="path2590" />
    </clipPath>
    <clipPath
       clipPathUnits="userSpaceOnUse"
       id="clipPath2572">
      <path
         inkscape:connector-curvature="0"
         d="m 7627.84,2885.16 c -0.47,-3.02 0.8,-5.76 2.83,-6.09 2.03,-0.33 4.06,1.88 4.56,4.92 0.46,3.05 -0.81,5.76 -2.84,6.1 -0.14,0.02 -0.27,0.03 -0.41,0.03 -1.89,0 -3.69,-2.1 -4.14,-4.96"
         id="path2574" />
    </clipPath>
    <clipPath
       clipPathUnits="userSpaceOnUse"
       id="clipPath2578">
      <path
         inkscape:connector-curvature="0"
         d="m 7623.39,2880.42 11.07,-4.67 5.22,12.7 -11.08,4.66 -5.21,-12.69"
         id="path2580" />
    </clipPath>
    <clipPath
       clipPathUnits="userSpaceOnUse"
       id="clipPath1896">
      <path
         inkscape:connector-curvature="0"
         d="m 7249.73,3144.86 831.82,0 0,-485.24 -831.82,0 0,485.24 z"
         id="path1898" />
    </clipPath>
    <clipPath
       clipPathUnits="userSpaceOnUse"
       id="clipPath2082">
      <path
         inkscape:connector-curvature="0"
         d="m 3258.03,3932.79 831.83,0 0,-485.24 -831.83,0 0,485.24 z"
         id="path2084" />
    </clipPath>
    <clipPath
       clipPathUnits="userSpaceOnUse"
       id="clipPath3750">
      <path
         inkscape:connector-curvature="0"
         d="m 7249.71,3940.56 831.84,0 0,-485.23 -831.84,0 0,485.23 z"
         id="path3752" />
    </clipPath>
    <clipPath
       clipPathUnits="userSpaceOnUse"
       id="clipPath7548">
      <path
         inkscape:connector-curvature="0"
         d="m 5253.86,1086.79 831.828,0 0,485.238 -831.828,0 0,-485.238 z"
         id="path7550" />
    </clipPath>
    <clipPath
       clipPathUnits="userSpaceOnUse"
       id="clipPath7536-7">
      <path
         inkscape:connector-curvature="0"
         d="m 5253.86,1572.02 831.82,0 0,-485.23 -831.82,0 0,485.23 z"
         id="path7538-7" />
    </clipPath>
    <clipPath
       clipPathUnits="userSpaceOnUse"
       id="clipPath2052">
      <path
         inkscape:connector-curvature="0"
         d="m 1262.18,4720.71 831.82,0 0,-485.23 -831.82,0 0,485.23 z"
         id="path2054-3" />
    </clipPath>
    <clipPath
       clipPathUnits="userSpaceOnUse"
       id="clipPath2042">
      <path
         inkscape:connector-curvature="0"
         d="m 1492.23,4436.3 22.05,0 0,25.86 -22.05,0 0,-25.86 z"
         id="path2044-4" />
    </clipPath>
    <clipPath
       clipPathUnits="userSpaceOnUse"
       id="clipPath1166">
      <path
         inkscape:connector-curvature="0"
         d="m 1262.18,4720.71 831.82,0 0,-485.23 -831.82,0 0,485.23 z"
         id="path1168" />
    </clipPath>
    <clipPath
       clipPathUnits="userSpaceOnUse"
       id="clipPath1154">
      <path
         inkscape:connector-curvature="0"
         d="m 1262.18,4235.48 831.82,0 0,485.23 -831.82,0 0,-485.23 z"
         id="path1156" />
    </clipPath>
    <clipPath
       clipPathUnits="userSpaceOnUse"
       id="clipPath7370">
      <path
         inkscape:connector-curvature="0"
         d="m 1262.17,1572.02 831.82,0 0,-485.23 -831.82,0 0,485.23 z"
         id="path7372" />
    </clipPath>
    <clipPath
       clipPathUnits="userSpaceOnUse"
       id="clipPath5158">
      <path
         inkscape:connector-curvature="0"
         d="m 2260.11,1569 831.82,0 0,-485.23 -831.82,0 0,485.23 z"
         id="path5160" />
    </clipPath>
  </defs>
  <sodipodi:namedview
     id="base"
     pagecolor="#ffffff"
     bordercolor="#666666"
     borderopacity="1.0"
     inkscape:pageopacity="0.0"
     inkscape:pageshadow="2"
     inkscape:zoom="1.9826475"
     inkscape:cx="155.51589"
     inkscape:cy="144.98986"
     inkscape:document-units="px"
     inkscape:current-layer="layer1"
     showgrid="false"
     inkscape:window-width="1914"
     inkscape:window-height="1031"
     inkscape:window-x="0"
     inkscape:window-y="25"
     inkscape:window-maximized="1"
     showguides="true"
     inkscape:guide-bbox="true">
    <sodipodi:guide
       orientation="0,1"
       position="215.14793,207.63483"
       id="guide10398" />
    <sodipodi:guide
       orientation="0,1"
       position="191.92561,58.7388"
       id="guide10400" />
  </sodipodi:namedview>
  <metadata
     id="metadata10180">
    <rdf:RDF>
      <cc:Work
         rdf:about="">
        <dc:format>image/svg+xml</dc:format>
        <dc:type
           rdf:resource="http://purl.org/dc/dcmitype/StillImage" />
        <dc:title></dc:title>
      </cc:Work>
    </rdf:RDF>
  </metadata>
  <g
     inkscape:label="Capa 1"
     inkscape:groupmode="layer"
     id="layer1"
     transform="translate(0,-796.36218)">
    <g
       id="g5154"
       transform="matrix(0.30685418,0,0,-0.30685418,-693.05784,1326.1827)">
      <g
         clip-path="url(#clipPath5158)"
         id="g5156">
        <path
           inkscape:connector-curvature="0"
           id="path5162"
           style="fill:#ffffff;fill-opacity:1;fill-rule:nonzero;stroke:none"
           d="m 2260.11,1083.77 831.828,0 0,485.234 -831.828,0 0,-485.234 z" />
        <path
           inkscape:connector-curvature="0"
           id="path5164"
           style="fill:#3e73b7;fill-opacity:1;fill-rule:nonzero;stroke:none"
           d="m 2260.11,1137.68 831.82,0 0,53.92 -831.82,0 0,-53.92 z m 0,107.83 831.82,0 0,53.92 -831.82,0 0,-53.92 z m 269.66,107.83 562.16,0 0,53.93 -562.16,0 0,-53.93 z m 0,107.83 562.16,0 0,53.91 -562.16,0 0,-53.91" />
        <path
           inkscape:connector-curvature="0"
           id="path5166"
           style="fill:#eac126;fill-opacity:1;fill-rule:evenodd;stroke:none"
           d="m 2395.32,1433.83 2.34,-39.87 c -36.72,-26.56 -14.06,-42.18 -40.64,-50.78 17.98,17.97 -5.47,17.97 14.86,58.62" />
        <path
           inkscape:connector-curvature="0"
           id="path5168"
           style="fill:#292c2f;fill-opacity:1;fill-rule:nonzero;stroke:none"
           d="m 2396.1,1433.83 2.35,-39.87 -1.56,0 -3.13,39.87 2.34,0 z m 2.35,-39.87 0,-0.78 -0.79,0.78 0.79,0 z m 0,-0.78 c -19.54,-14.06 -21.88,-25 -24.23,-32.81 l -2.34,0 c 2.34,8.59 5.47,20.31 25.01,34.4 l 1.56,-1.59 z m -24.23,-32.81 c -2.34,-8.59 -3.91,-14.06 -16.42,-17.97 l -0.78,1.56 c 11.73,3.91 13.29,9.38 14.86,16.41 l 2.34,0 z m -16.42,-17.97 -3.91,-1.56 2.35,2.34 0.78,0 0.78,-0.78 z m -1.56,0.78 c 7.82,8.6 7.82,13.28 6.26,19.53 l 2.34,0 c 0.78,-6.25 1.57,-11.71 -7.04,-20.31 l -1.56,0.78 z m 6.26,19.53 c -0.78,7.82 -2.34,17.97 8.59,39.09 l 1.57,-0.78 c -10.16,-21.12 -9.38,-30.49 -7.82,-38.31 l -2.34,0" />
        <path
           inkscape:connector-curvature="0"
           id="path5170"
           style="fill:#292c2f;fill-opacity:1;fill-rule:nonzero;stroke:none"
           d="m 2382.82,1403.36 c -9.38,-16.43 -11.73,-28.93 -12.51,-39.08 l -2.33,0.78 c 1.55,9.37 3.9,22.65 13.28,39.08 l 1.56,-0.78 z m -12.51,-39.08 c -1.56,-10.16 -3.12,-17.97 -12.5,-21.88 l -0.79,1.56 c 8.6,3.91 9.39,10.94 10.96,21.1 l 2.33,-0.78" />
        <path
           inkscape:connector-curvature="0"
           id="path5172"
           style="fill:#eac126;fill-opacity:1;fill-rule:evenodd;stroke:none"
           d="m 2395.32,1433.83 -3.12,40.62 c 36.74,26.57 14.07,42.21 40.64,50.8 -17.2,-18.77 5.47,-18.77 -14.84,-58.61" />
        <path
           inkscape:connector-curvature="0"
           id="path5174"
           style="fill:#292c2f;fill-opacity:1;fill-rule:nonzero;stroke:none"
           d="m 2393.76,1433.83 -2.35,39.84 1.57,0.78 3.12,-40.62 -2.34,0 z m -2.35,39.84 0,0.78 0.79,0 -0.79,-0.78 z m 0,0.78 c 19.55,14.07 22.67,25 24.23,33.6 l 2.36,-0.78 c -2.36,-8.6 -5.48,-19.54 -25.02,-33.6 l -1.57,0.78 z m 24.23,33.6 c 2.36,7.83 3.92,14.08 16.42,17.99 l 0.78,-1.57 c -11.72,-3.92 -13.28,-9.39 -14.84,-17.2 l -2.36,0.78 z m 16.42,17.99 3.91,0.78 -2.35,-2.35 -0.78,0.78 -0.78,0.79 z m 1.56,-1.57 c -7.81,-8.59 -7.81,-12.52 -6.25,-18.77 l -2.34,-0.78 c -0.78,7.03 -1.56,11.72 7.03,21.12 l 1.56,-1.57 z m -6.25,-18.77 c 0.78,-7.81 2.35,-17.97 -8.59,-39.84 l -1.56,0.78 c 10.15,21.09 9.37,31.25 7.81,38.28 l 2.34,0.78" />
        <path
           inkscape:connector-curvature="0"
           id="path5176"
           style="fill:#292c2f;fill-opacity:1;fill-rule:nonzero;stroke:none"
           d="m 2407.05,1465.08 c 9.39,16.4 11.73,28.9 13.29,38.28 l 1.56,0 c -1.56,-10.16 -3.9,-22.66 -13.29,-39.06 l -1.56,0.78 z m 13.29,38.28 c 1.56,10.94 2.35,17.99 11.72,22.68 l 0.78,-1.57 c -8.59,-3.92 -9.37,-10.95 -10.94,-21.11 l -1.56,0" />
        <path
           inkscape:connector-curvature="0"
           id="path5178"
           style="fill:#eac126;fill-opacity:1;fill-rule:evenodd;stroke:none"
           d="m 2395.32,1433.83 -40.64,-2.35 c -26.57,36.72 -42.21,14.07 -50.8,40.63 18.76,-17.97 17.98,4.69 58.62,-14.84" />
        <path
           inkscape:connector-curvature="0"
           id="path5180"
           style="fill:#292c2f;fill-opacity:1;fill-rule:nonzero;stroke:none"
           d="m 2395.32,1433.05 -40.64,-3.13 0,2.35 39.86,2.34 0.78,-1.56 z m -40.64,-3.13 0,0 -0.79,0.78 0.79,0.78 0,-1.56 z m -0.79,0.78 c -13.28,19.53 -24.22,21.88 -32.82,24.22 l 0,1.56 c 9.38,-2.34 20.32,-4.68 34.39,-25 l -1.57,-0.78 z m -32.82,24.22 c -7.82,2.35 -14.07,3.91 -17.97,16.41 l 1.56,0.78 c 3.9,-11.72 9.37,-13.28 16.41,-15.63 l 0,-1.56 z m -17.97,16.41 -1.57,3.12 3.13,-2.34 -0.78,0 -0.78,-0.78 z m 1.56,0.78 c 8.59,-7.81 12.5,-7.03 18.76,-6.25 l 0.78,-1.56 c -7.04,-0.78 -11.73,-1.57 -21.1,7.03 l 1.56,0.78 z m 18.76,-6.25 c 7.81,1.56 17.97,3.12 39.86,-7.81 l -1.56,-1.57 c -21.11,10.16 -30.49,8.6 -37.52,7.82 l -0.78,1.56" />
        <path
           inkscape:connector-curvature="0"
           id="path5182"
           style="fill:#292c2f;fill-opacity:1;fill-rule:nonzero;stroke:none"
           d="m 2364.06,1445.55 c -16.42,10.15 -28.92,11.72 -38.3,13.28 l 0,2.34 c 10.16,-1.56 22.67,-3.9 39.08,-14.06 l -0.78,-1.56 z m -38.3,13.28 c -10.95,1.56 -17.98,3.12 -22.66,12.5 l 1.56,0.78 c 3.9,-8.59 10.94,-10.16 21.1,-10.94 l 0,-2.34" />
        <path
           inkscape:connector-curvature="0"
           id="path5184"
           style="fill:#eac126;fill-opacity:1;fill-rule:evenodd;stroke:none"
           d="m 2395.32,1433.83 39.87,3.12 c 26.58,-36.72 42.21,-14.84 50.81,-40.64 -18.77,17.21 -17.98,-5.47 -58.63,14.86" />
        <path
           inkscape:connector-curvature="0"
           id="path5186"
           style="fill:#292c2f;fill-opacity:1;fill-rule:nonzero;stroke:none"
           d="m 2394.54,1434.61 40.65,3.12 0,-1.56 -39.87,-3.12 -0.78,1.56 z m 40.65,3.12 0.78,0 -0.78,-0.78 0,0.78 z m 0.78,0 c 13.29,-19.53 24.23,-22.65 32.83,-25 l 0,-1.56 c -9.37,2.35 -20.32,5.47 -34.4,25 l 1.57,1.56 z m 32.83,-25 c 7.81,-1.56 14.07,-3.12 17.98,-16.42 l -1.57,0 c -3.9,11.74 -9.38,13.3 -16.41,14.86 l 0,1.56 z m 17.98,-16.42 1.56,-3.13 -3.13,2.35 0.79,0.78 0.78,0 z m -1.57,-0.78 c -7.81,7.83 -12.51,7.05 -18.76,6.27 l -0.77,1.56 c 7.02,1.56 11.72,2.34 21.1,-6.25 l -1.57,-1.58 z m -18.76,6.27 c -7.81,-0.78 -17.97,-2.35 -39.08,8.59 l 0.78,1.56 c 21.11,-10.93 30.49,-9.37 37.53,-8.59 l 0.77,-1.56" />
        <path
           inkscape:connector-curvature="0"
           id="path5188"
           style="fill:#292c2f;fill-opacity:1;fill-rule:nonzero;stroke:none"
           d="m 2425.81,1422.11 c 16.42,-9.38 28.92,-11.72 39.08,-13.28 l -0.78,-1.56 c -9.38,1.56 -22.66,3.12 -39.08,13.28 l 0.78,1.56 z m 39.08,-13.28 c 10.16,-1.56 17.2,-2.35 21.89,-12.5 l -1.57,-0.8 c -3.9,9.39 -10.94,10.17 -21.1,11.74 l 0.78,1.56" />
        <path
           inkscape:connector-curvature="0"
           id="path5190"
           style="fill:#eac126;fill-opacity:1;fill-rule:evenodd;stroke:none"
           d="m 2395.32,1433.83 -26.57,-30.47 c -45.33,7.81 -40.64,-19.55 -64.87,-7.05 25.79,0.8 9.37,16.42 51.58,31.27" />
        <path
           inkscape:connector-curvature="0"
           id="path5192"
           style="fill:#292c2f;fill-opacity:1;fill-rule:nonzero;stroke:none"
           d="m 2395.32,1433.83 -25.79,-30.47 -1.55,0.78 26.56,30.47 0.78,-0.78 z m -25.79,-30.47 -0.78,-0.78 0,0.78 0.78,0 z m -0.78,-0.78 c -23.45,3.9 -33.61,-1.56 -40.64,-6.27 l -1.57,1.56 c 7.82,4.71 17.98,10.96 42.21,7.05 l 0,-2.34 z m -40.64,-6.27 c -7.04,-3.91 -12.51,-7.03 -25.01,-0.78 l 0.78,1.58 c 11.72,-5.49 16.41,-3.15 22.66,0.76 l 1.57,-1.56 z m -25.01,-0.78 -3.13,1.58 3.91,0 0,-0.8 -0.78,-0.78 z m 0.78,1.58 c 11.72,0.76 14.07,3.91 17.98,9.37 l 1.56,-1.56 c -3.91,-5.47 -7.04,-9.39 -19.54,-9.39 l 0,1.58 z m 17.98,9.37 c 4.68,6.25 10.93,14.07 33.6,21.88 l 0.78,-1.56 c -22.67,-7.82 -28.92,-15.63 -32.82,-21.88 l -1.56,1.56" />
        <path
           inkscape:connector-curvature="0"
           id="path5194"
           style="fill:#292c2f;fill-opacity:1;fill-rule:nonzero;stroke:none"
           d="m 2364.84,1420.55 c -18.76,-4.69 -28.92,-12.5 -36.73,-17.97 l -0.79,1.56 c 7.82,5.47 17.98,13.28 36.74,17.97 l 0.78,-1.56 z m -36.73,-17.97 c -8.6,-6.27 -14.08,-10.96 -24.23,-7.05 l 0,1.58 c 9.37,-3.15 14.84,0.76 23.44,7.03 l 0.79,-1.56" />
        <path
           inkscape:connector-curvature="0"
           id="path5196"
           style="fill:#eac126;fill-opacity:1;fill-rule:evenodd;stroke:none"
           d="m 2395.32,1433.83 25.8,30.47 c 45.33,-7.03 40.65,20.31 64.88,7.81 -25.8,-0.78 -9.38,-17.19 -51.6,-31.25" />
        <path
           inkscape:connector-curvature="0"
           id="path5198"
           style="fill:#292c2f;fill-opacity:1;fill-rule:nonzero;stroke:none"
           d="m 2394.54,1434.61 25.8,30.47 1.56,-1.56 -26.58,-29.69 -0.78,0.78 z m 25.8,30.47 0.78,0 0,-0.78 -0.78,0.78 z m 0.78,0 c 23.45,-3.91 33.61,2.34 40.65,6.25 l 1.56,-1.56 c -7.81,-4.69 -17.98,-10.16 -42.21,-6.25 l 0,1.56 z m 40.65,6.25 c 7.81,4.69 12.5,7.03 25.01,1.56 l -0.78,-1.56 c -11.73,5.47 -16.42,2.34 -22.67,-1.56 l -1.56,1.56 z m 25.01,1.56 3.12,-1.56 -3.9,-0.78 0,1.56 0.78,0.78 z m -0.78,-2.34 c -11.73,0 -14.07,-3.91 -17.98,-8.6 l -1.57,0.78 c 4.69,5.47 7.03,9.38 19.55,10.16 l 0,-2.34 z m -17.98,-8.6 c -4.69,-6.25 -10.94,-14.06 -33.62,-21.87 l -0.78,1.56 c 22.68,7.03 28.93,15.63 32.83,21.09 l 1.57,-0.78" />
        <path
           inkscape:connector-curvature="0"
           id="path5200"
           style="fill:#292c2f;fill-opacity:1;fill-rule:nonzero;stroke:none"
           d="m 2425.03,1447.89 c 18.76,3.91 28.92,11.72 36.74,17.97 l 0.78,-1.56 c -7.82,-6.25 -17.98,-14.07 -36.74,-18.75 l -0.78,2.34 z m 36.74,17.97 c 8.59,6.25 14.85,10.16 24.23,7.03 l 0,-1.56 c -9.38,3.12 -14.86,-1.56 -23.45,-7.03 l -0.78,1.56" />
        <path
           inkscape:connector-curvature="0"
           id="path5202"
           style="fill:#eac126;fill-opacity:1;fill-rule:evenodd;stroke:none"
           d="m 2395.32,1433.83 -30.48,26.56 c 7.04,45.31 -20.32,40.63 -7.82,64.86 0.78,-25.8 17.2,-9.39 31.27,-51.58" />
        <path
           inkscape:connector-curvature="0"
           id="path5204"
           style="fill:#292c2f;fill-opacity:1;fill-rule:nonzero;stroke:none"
           d="m 2394.54,1433.05 -30.48,26.56 1.56,1.56 29.7,-26.56 -0.78,-1.56 z m -30.48,26.56 0,0.78 0.78,0 -0.78,-0.78 z m 0,0.78 c 3.13,23.44 -2.34,33.59 -6.25,40.63 l 1.57,0.78 c 3.9,-7.82 10.15,-17.19 6.24,-41.41 l -1.56,0 z m -6.25,40.63 c -4.7,7.03 -7.82,12.5 -1.57,24.23 l 1.57,-0.78 c -5.48,-10.95 -2.35,-15.64 1.57,-22.67 l -1.57,-0.78 z m -1.57,24.23 1.57,3.13 0,-3.13 -1.57,0 z m 1.57,0 c 0.78,-11.73 3.91,-14.08 9.38,-17.98 l -0.78,-1.57 c -5.47,3.91 -9.39,7.03 -10.17,19.55 l 1.57,0 z m 9.38,-17.98 c 6.25,-4.69 14.07,-10.94 21.88,-33.6 l -1.56,-0.78 c -7.81,22.66 -15.63,28.13 -21.1,32.81 l 0.78,1.57" />
        <path
           inkscape:connector-curvature="0"
           id="path5206"
           style="fill:#292c2f;fill-opacity:1;fill-rule:nonzero;stroke:none"
           d="m 2381.26,1464.3 c -3.91,18.75 -11.73,28.9 -17.98,36.72 l 1.56,0.78 c 6.25,-7.82 14.07,-17.97 18.76,-37.5 l -2.34,0 z m -17.98,36.72 c -6.26,8.59 -10.17,14.06 -7.04,24.23 l 1.57,0 c -3.13,-9.37 0.78,-14.86 7.03,-23.45 l -1.56,-0.78" />
        <path
           inkscape:connector-curvature="0"
           id="path5208"
           style="fill:#eac126;fill-opacity:1;fill-rule:evenodd;stroke:none"
           d="m 2395.32,1433.83 29.71,-25.78 c -7.03,-45.34 20.32,-40.65 7.81,-64.87 -0.78,25 -17.2,8.6 -31.26,51.59" />
        <path
           inkscape:connector-curvature="0"
           id="path5210"
           style="fill:#292c2f;fill-opacity:1;fill-rule:nonzero;stroke:none"
           d="m 2395.32,1434.61 30.49,-25.78 -0.78,-1.56 -30.49,25.78 0.78,1.56 z m 30.49,-25.78 0.78,-0.78 -0.78,-0.78 -0.78,0.78 0.78,0.78 z m 0,-1.56 c -3.12,-23.46 2.34,-32.84 6.25,-40.65 l -1.56,-0.78 c -3.91,7.81 -10.16,17.97 -6.25,42.21 l 1.56,-0.78 z m 6.25,-40.65 c 4.69,-7.03 7.82,-12.5 1.56,-24.22 l -1.56,0.78 c 5.47,10.94 2.34,16.41 -1.56,22.66 l 1.56,0.78 z m 1.56,-24.22 -1.56,-3.12 0,3.9 0.78,0 0.78,-0.78 z m -1.56,0.78 c -0.78,10.94 -3.91,14.07 -9.37,17.97 l 0.78,0.78 c 5.47,-3.9 9.37,-6.25 10.15,-18.75 l -1.56,0 z m -9.37,17.97 c -6.25,3.91 -14.08,10.16 -21.89,33.62 l 1.56,0 c 7.82,-21.9 15.64,-28.15 21.11,-32.84 l -0.78,-0.78" />
        <path
           inkscape:connector-curvature="0"
           id="path5212"
           style="fill:#292c2f;fill-opacity:1;fill-rule:nonzero;stroke:none"
           d="m 2408.61,1404.14 c 4.7,-18.77 11.73,-28.93 17.98,-36.74 l -1.56,-1.56 c -6.25,8.59 -14.07,18.75 -17.98,37.52 l 1.56,0.78 z m 17.98,-36.74 c 6.25,-8.59 10.16,-14.84 7.03,-25 l -1.56,0.78 c 3.13,9.38 -0.78,14.85 -7.03,22.66 l 1.56,1.56" />
        <path
           inkscape:connector-curvature="0"
           id="path5214"
           style="fill:#eac126;fill-opacity:1;fill-rule:evenodd;stroke:none"
           d="m 2395.32,1433.83 17.2,0 -17.2,-98.46 -17.97,98.46 17.97,0 0,-98.46" />
        <path
           inkscape:connector-curvature="0"
           id="path5216"
           style="fill:#292c2f;fill-opacity:1;fill-rule:nonzero;stroke:none"
           d="m 2395.32,1434.61 17.2,0 0,-1.56 -17.2,0 0,1.56 z m 17.2,0 1.56,0 0,-0.78 -1.56,0 0,0.78 z m 1.56,-0.78 -17.98,-98.46 -2.34,0 17.98,98.46 2.34,0 z m -17.98,-98.46 -0.78,-4.69 -1.56,4.69 2.34,0 z m -2.34,0 -17.97,98.46 2.35,0 17.96,-98.46 -2.34,0 z m -17.97,99.24 1.56,0 0,-0.78 -1.56,0 0,0.78 z m 1.56,0 17.97,0 0,-1.56 -17.97,0 0,1.56 z m 17.97,0 0.78,0 0,-0.78 -0.78,0 0,0.78 z m 0.78,-99.24 -2.34,0 0,98.46 2.34,0 0,-98.46" />
        <path
           inkscape:connector-curvature="0"
           id="path5218"
           style="fill:#eac126;fill-opacity:1;fill-rule:evenodd;stroke:none"
           d="m 2395.32,1433.83 -17.97,0 17.97,99.24 17.2,-99.24 -17.2,0 0,99.24" />
        <path
           inkscape:connector-curvature="0"
           id="path5220"
           style="fill:#292c2f;fill-opacity:1;fill-rule:nonzero;stroke:none"
           d="m 2395.32,1433.05 -17.97,0 0,1.56 17.97,0 0,-1.56 z m -17.97,0 -1.56,0 0,0.78 1.56,0 0,-0.78 z m -1.56,0.78 17.97,99.24 2.34,-0.78 -17.96,-98.46 -2.35,0 z m 17.97,99.24 1.56,4.68 0.78,-4.68 -2.34,0 z m 2.34,0 17.98,-99.24 -2.34,0 -17.98,98.46 2.34,0.78 z m 17.98,-100.02 -1.56,0 0,0.78 1.56,0 0,-0.78 z m -1.56,0 -17.2,0 0,1.56 17.2,0 0,-1.56 z m -17.2,0 -1.56,0 0,0.78 1.56,0 0,-0.78 z m -1.56,100.02 2.34,0 0,-99.24 -2.34,0 0,99.24" />
        <path
           inkscape:connector-curvature="0"
           id="path5222"
           style="fill:#eac126;fill-opacity:1;fill-rule:evenodd;stroke:none"
           d="m 2395.32,1433.83 0,-17.97 -99.27,17.97 99.27,17.97 0,-17.97 -99.27,0" />
        <path
           inkscape:connector-curvature="0"
           id="path5224"
           style="fill:#292c2f;fill-opacity:1;fill-rule:nonzero;stroke:none"
           d="m 2396.1,1415.86 -2.34,0 0,17.97 2.34,0 0,-17.97 z m 0,0 0,-0.78 -1.56,0 0.78,0.78 0.78,0 z m -1.56,-0.78 -98.49,17.97 0.8,1.56 98.47,-17.97 -0.78,-1.56 z m -98.49,17.97 -4.68,0.78 4.68,0.78 0,-1.56 z m 0,1.56 98.49,17.97 0.78,-1.56 -98.47,-17.97 -0.8,1.56 z m 98.49,17.97 1.56,0.78 0,-1.56 -0.78,0 -0.78,0.78 z m 1.56,-18.75 -2.34,0 0,17.97 2.34,0 0,-17.97 z m 0,-0.78 -0.78,0 0,0.78 0.78,0 0,-0.78 z m -0.78,0 -99.27,0 0,1.56 99.27,0 0,-1.56" />
        <path
           inkscape:connector-curvature="0"
           id="path5226"
           style="fill:#eac126;fill-opacity:1;fill-rule:evenodd;stroke:none"
           d="m 2395.32,1433.83 0,17.97 98.49,-17.97 -98.49,-17.97 0,17.97 98.49,0" />
        <path
           inkscape:connector-curvature="0"
           id="path5228"
           style="fill:#292c2f;fill-opacity:1;fill-rule:nonzero;stroke:none"
           d="m 2393.76,1451.8 2.34,0 0,-17.97 -2.34,0 0,17.97 z m 0,0 0,1.56 1.56,-0.78 0,-0.78 -1.56,0 z m 1.56,0.78 98.49,-17.97 -0.78,-1.56 -98.49,17.97 0.78,1.56 z m 98.49,-17.97 4.7,-0.78 -4.7,-0.78 0,1.56 z m 0,-1.56 -98.49,-17.97 -0.78,1.56 98.49,17.97 0.78,-1.56 z m -98.49,-17.97 -1.56,0 0,0.78 1.56,0 0,-0.78 z m -1.56,18.75 2.34,0 0,-17.97 -2.34,0 0,17.97 z m 0,0.78 1.56,0 0,-0.78 -1.56,0 0,0.78 z m 1.56,0 98.49,0 0,-1.56 -98.49,0 0,1.56" />
        <path
           inkscape:connector-curvature="0"
           id="path5230"
           style="fill:#eac126;fill-opacity:1;fill-rule:evenodd;stroke:none"
           d="m 2395.32,1433.83 12.51,-12.5 -82.85,-57.05 57.06,82.83 13.28,-13.28 -70.34,-69.55" />
        <path
           inkscape:connector-curvature="0"
           id="path5232"
           style="fill:#292c2f;fill-opacity:1;fill-rule:nonzero;stroke:none"
           d="m 2395.32,1434.61 13.29,-12.5 -1.56,-1.56 -12.51,12.5 0.78,1.56 z m 13.29,-12.5 0.78,-0.78 -1.56,-0.78 0,0.78 0.78,0.78 z m -0.78,-1.56 -82.07,-57.05 -0.78,1.56 82.07,57.05 0.78,-1.56 z m -82.07,-57.05 -3.9,-3.13 2.34,4.69 0.78,-0.78 0.78,-0.78 z m -1.56,1.56 57.06,82.05 1.56,-0.78 -57.06,-82.83 -1.56,1.56 z m 57.06,82.05 0.78,0.78 0.78,-0.78 -1.56,0 z m 1.56,0 12.5,-12.5 -0.78,-1.56 -13.28,13.28 1.56,0.78 z m 12.5,-12.5 0.78,-0.78 -0.78,-0.78 0,1.56 z m 0,-1.56 -69.56,-69.55 -0.78,1.56 69.56,69.55 0.78,-1.56" />
        <path
           inkscape:connector-curvature="0"
           id="path5234"
           style="fill:#eac126;fill-opacity:1;fill-rule:evenodd;stroke:none"
           d="m 2395.32,1433.83 -13.28,13.28 82.85,57.03 -57.06,-82.81 -12.51,12.5 69.57,70.31" />
        <path
           inkscape:connector-curvature="0"
           id="path5236"
           style="fill:#292c2f;fill-opacity:1;fill-rule:nonzero;stroke:none"
           d="m 2394.54,1433.05 -13.28,13.28 1.56,0.78 12.5,-12.5 -0.78,-1.56 z m -13.28,13.28 0,0.78 0.78,0 -0.78,-0.78 z m 0.78,0.78 82.07,57.81 0.78,-1.56 -82.07,-57.03 -0.78,0.78 z m 82.07,57.81 3.91,2.35 -2.34,-3.91 -0.79,0.78 -0.78,0.78 z m 1.57,-1.56 -57.07,-82.81 -1.56,1.56 57.06,82.03 1.57,-0.78 z m -57.07,-82.81 -0.78,-0.78 -0.78,0.78 0.78,0.78 0.78,-0.78 z m -1.56,0 -12.51,12.5 0.78,1.56 13.29,-12.5 -1.56,-1.56 z m -12.51,12.5 -0.78,0.78 0.78,0.78 0.78,-0.78 -0.78,-0.78 z m 0,1.56 69.57,69.53 1.57,-0.78 -70.36,-70.31 -0.78,1.56" />
        <path
           inkscape:connector-curvature="0"
           id="path5238"
           style="fill:#eac126;fill-opacity:1;fill-rule:evenodd;stroke:none"
           d="m 2395.32,1433.83 -13.28,-12.5 -57.06,82.81 82.85,-57.03 -12.51,-13.28 -70.34,70.31" />
        <path
           inkscape:connector-curvature="0"
           id="path5240"
           style="fill:#292c2f;fill-opacity:1;fill-rule:nonzero;stroke:none"
           d="m 2395.32,1433.05 -12.5,-12.5 -1.56,1.56 13.28,12.5 0.78,-1.56 z m -12.5,-12.5 -0.78,-0.78 -0.78,0.78 0.78,0.78 0.78,-0.78 z m -1.56,0 -57.06,82.81 1.56,0.78 57.06,-82.03 -1.56,-1.56 z m -57.06,82.81 -2.34,3.91 3.9,-2.35 -0.78,-0.78 -0.78,-0.78 z m 1.56,1.56 82.07,-57.81 -0.78,-0.78 -82.07,57.03 0.78,1.56 z m 82.07,-57.81 1.56,0 -0.78,-0.78 -0.78,0.78 z m 0.78,-0.78 -13.29,-13.28 -0.78,1.56 12.51,12.5 1.56,-0.78 z m -13.29,-13.28 -0.78,0 0.78,0.78 0,-0.78 z m -0.78,0 -69.56,70.31 0.78,0.78 69.56,-69.53 -0.78,-1.56" />
        <path
           inkscape:connector-curvature="0"
           id="path5242"
           style="fill:#eac126;fill-opacity:1;fill-rule:evenodd;stroke:none"
           d="m 2395.32,1433.83 12.51,13.28 57.06,-82.83 -82.85,57.05 13.28,12.5 69.57,-69.55" />
        <path
           inkscape:connector-curvature="0"
           id="path5244"
           style="fill:#292c2f;fill-opacity:1;fill-rule:nonzero;stroke:none"
           d="m 2394.54,1434.61 12.51,12.5 1.56,-0.78 -13.29,-13.28 -0.78,1.56 z m 12.51,12.5 0.78,0.78 0.78,-0.78 -1.56,0 z m 1.56,0 57.07,-82.05 -1.57,-1.56 -57.06,82.83 1.56,0.78 z m 57.07,-82.05 2.34,-4.69 -3.91,3.13 0.78,0.78 0.79,0.78 z m -1.57,-1.56 -82.07,57.05 0.78,1.56 82.07,-57.05 -0.78,-1.56 z m -82.07,57.05 -0.78,0.78 0,0.78 0.78,-0.78 0,-0.78 z m -0.78,1.56 13.28,12.5 0.78,-1.56 -12.5,-12.5 -1.56,1.56 z m 13.28,12.5 0.78,0.78 0,-1.56 -0.78,0.78 z m 0.78,0 70.36,-69.55 -1.57,-1.56 -69.57,69.55 0.78,1.56" />
        <path
           inkscape:connector-curvature="0"
           id="path5246"
           style="fill:#eac126;fill-opacity:1;fill-rule:evenodd;stroke:none"
           d="m 2428.15,1433.83 c 0,18.75 -14.85,32.81 -32.83,32.81 -18.75,0 -33.6,-14.06 -33.6,-32.81 0,-17.97 14.85,-32.81 33.6,-32.81 17.98,0 32.83,14.84 32.83,32.81" />
        <path
           inkscape:connector-curvature="0"
           id="path5248"
           style="fill:#292c2f;fill-opacity:1;fill-rule:nonzero;stroke:none"
           d="m 2426.59,1433.83 c 0,9.37 -3.12,17.19 -9.37,22.65 l 1.56,1.57 c 6.25,-6.25 10.16,-14.85 10.16,-24.22 l -2.35,0 z m -9.37,22.65 c -5.48,6.25 -13.29,9.38 -21.9,9.38 l 0,2.34 c 8.61,0 17.2,-3.9 23.46,-10.15 l -1.56,-1.57 z m -21.9,9.38 c -9.37,0 -17.18,-3.13 -22.66,-9.38 l -1.57,1.57 c 6.26,6.25 14.86,10.15 24.23,10.15 l 0,-2.34 z m -22.66,-9.38 c -6.25,-5.46 -9.38,-13.28 -9.38,-22.65 l -2.34,0 c 0,9.37 3.9,17.97 10.15,24.22 l 1.57,-1.57 z m -9.38,-22.65 c 0,-8.6 3.13,-16.41 9.38,-22.66 l -1.57,-0.78 c -6.25,6.25 -10.15,14.06 -10.15,23.44 l 2.34,0 z m 9.38,-22.66 c 5.48,-5.47 13.29,-9.37 22.66,-9.37 l 0,-1.57 c -9.37,0 -17.97,3.91 -24.23,10.16 l 1.57,0.78 z m 22.66,-9.37 c 8.61,0 16.42,3.9 21.9,9.37 l 1.56,-0.78 c -6.26,-6.25 -14.85,-10.16 -23.46,-10.16 l 0,1.57 z m 21.9,9.37 c 6.25,6.25 9.37,14.06 9.37,22.66 l 2.35,0 c 0,-9.38 -3.91,-17.19 -10.16,-23.44 l -1.56,0.78" />
        <path
           inkscape:connector-curvature="0"
           id="path5250"
           style="fill:#292c2f;fill-opacity:1;fill-rule:evenodd;stroke:none"
           d="m 2418.78,1447.11 c -1.56,-2.34 -3.14,1.56 -10.17,1.56 -7.81,0 -8.59,-3.9 -10.16,-3.12 -0.79,0.78 6.26,6.25 8.6,6.25 2.34,0.78 9.39,-1.57 11.73,-4.69" />
        <path
           inkscape:connector-curvature="0"
           id="path5252"
           style="fill:#292c2f;fill-opacity:1;fill-rule:evenodd;stroke:none"
           d="m 2410.18,1444.77 c 2.34,-2.35 0.78,-6.25 -1.57,-6.25 -2.34,0 -6.25,3.9 -3.9,6.25" />
        <path
           inkscape:connector-curvature="0"
           id="path5254"
           style="fill:#292c2f;fill-opacity:1;fill-rule:evenodd;stroke:none"
           d="m 2400.8,1441.64 c 0,3.91 3.13,4.69 7.81,4.69 4.69,0 7.03,-3.91 8.61,-4.69 -1.58,0 -3.92,3.13 -8.61,3.13 -4.68,0 -4.68,0 -7.81,-3.13" />
        <path
           inkscape:connector-curvature="0"
           id="path5256"
           style="fill:#292c2f;fill-opacity:1;fill-rule:evenodd;stroke:none"
           d="m 2401.58,1440.86 c 0.78,1.56 2.35,-1.56 6.25,-1.56 3.13,0 4.69,0.78 7.03,2.34 1.58,1.56 -3.12,-3.91 -6.25,-3.91 -3.12,0 -7.81,2.35 -7.03,3.13" />
        <path
           inkscape:connector-curvature="0"
           id="path5258"
           style="fill:#292c2f;fill-opacity:1;fill-rule:evenodd;stroke:none"
           d="m 2411.74,1439.3 c 3.9,1.56 1.56,4.68 0,5.47 0.78,-0.79 3.12,-3.91 0,-5.47" />
        <path
           inkscape:connector-curvature="0"
           id="path5260"
           style="fill:#292c2f;fill-opacity:1;fill-rule:evenodd;stroke:none"
           d="m 2395.32,1421.33 c 1.57,0 2.34,0.78 4.7,0.78 2.34,0 7.81,-3.91 10.94,-2.34 -7.03,-3.13 -3.91,-0.79 -15.64,-0.79 l -1.56,0" />
        <path
           inkscape:connector-curvature="0"
           id="path5262"
           style="fill:#292c2f;fill-opacity:1;fill-rule:evenodd;stroke:none"
           d="m 2412.52,1416.64 c -1.56,2.34 -0.78,1.56 -3.91,5.47 3.13,-2.34 3.13,-3.13 3.91,-5.47" />
        <path
           inkscape:connector-curvature="0"
           id="path5264"
           style="fill:#292c2f;fill-opacity:1;fill-rule:evenodd;stroke:none"
           d="m 2395.32,1414.3 c 7.04,0 6.26,1.56 15.64,5.47 -7.03,-0.79 -8.6,-3.13 -15.64,-3.13 l -1.56,0" />
        <path
           inkscape:connector-curvature="0"
           id="path5266"
           style="fill:#292c2f;fill-opacity:1;fill-rule:evenodd;stroke:none"
           d="m 2395.32,1425.23 c 1.57,0 2.34,1.57 4.7,1.57 2.34,0 5.47,-0.78 7.03,-2.35 0.78,0 -0.78,2.35 -3.12,2.35 -2.35,0.78 -1.57,4.68 -3.91,5.47 0,-1.57 0.78,-1.57 0.78,-3.13 0,-1.56 -2.35,-1.56 -3.14,0 0.79,-2.34 -1.56,-2.34 -2.34,-2.34" />
        <path
           inkscape:connector-curvature="0"
           id="path5268"
           style="fill:#292c2f;fill-opacity:1;fill-rule:evenodd;stroke:none"
           d="m 2371.09,1447.11 c 1.57,-2.34 3.13,1.56 10.17,1.56 7.81,0 8.59,-3.9 10.15,-3.12 0.79,0.78 -6.25,6.25 -8.59,6.25 -2.34,0.78 -9.38,-1.57 -11.73,-4.69" />
        <path
           inkscape:connector-curvature="0"
           id="path5270"
           style="fill:#292c2f;fill-opacity:1;fill-rule:evenodd;stroke:none"
           d="m 2379.7,1444.77 c -2.35,-2.35 -0.79,-6.25 1.56,-6.25 2.34,0 6.25,3.9 3.9,6.25" />
        <path
           inkscape:connector-curvature="0"
           id="path5272"
           style="fill:#292c2f;fill-opacity:1;fill-rule:evenodd;stroke:none"
           d="m 2389.07,1441.64 c 0,3.91 -3.12,4.69 -7.81,4.69 -4.69,0 -7.04,-3.91 -8.6,-4.69 2.34,0 3.91,3.13 8.6,3.13 4.69,0 4.69,0 7.81,-3.13" />
        <path
           inkscape:connector-curvature="0"
           id="path5274"
           style="fill:#292c2f;fill-opacity:1;fill-rule:evenodd;stroke:none"
           d="m 2388.29,1440.86 c -0.78,1.56 -2.34,-1.56 -6.25,-1.56 -3.13,0 -4.69,0.78 -7.04,2.34 -1.56,1.56 3.14,-3.91 6.26,-3.91 3.9,0 7.81,2.35 7.03,3.13" />
        <path
           inkscape:connector-curvature="0"
           id="path5276"
           style="fill:#292c2f;fill-opacity:1;fill-rule:evenodd;stroke:none"
           d="m 2378.14,1439.3 c -3.92,1.56 -1.57,4.68 0,5.47 -0.79,-0.79 -3.13,-3.91 0,-5.47" />
        <path
           inkscape:connector-curvature="0"
           id="path5278"
           style="fill:#292c2f;fill-opacity:1;fill-rule:evenodd;stroke:none"
           d="m 2395.32,1421.33 c -2.34,0 -3.12,0.78 -5.47,0.78 -2.34,0 -7.81,-3.91 -10.94,-2.34 7.04,-3.13 3.91,-0.79 16.41,-0.79 l 0.78,0" />
        <path
           inkscape:connector-curvature="0"
           id="path5280"
           style="fill:#292c2f;fill-opacity:1;fill-rule:evenodd;stroke:none"
           d="m 2377.35,1416.64 c 1.56,2.34 1.56,1.56 3.91,5.47 -2.35,-2.34 -3.12,-3.13 -3.91,-5.47" />
        <path
           inkscape:connector-curvature="0"
           id="path5282"
           style="fill:#292c2f;fill-opacity:1;fill-rule:evenodd;stroke:none"
           d="m 2395.32,1414.3 c -7.81,0 -6.25,1.56 -16.41,5.47 7.04,-0.79 8.6,-3.13 16.41,-3.13 l 0.78,0" />
        <path
           inkscape:connector-curvature="0"
           id="path5284"
           style="fill:#292c2f;fill-opacity:1;fill-rule:evenodd;stroke:none"
           d="m 2395.32,1425.23 c -2.34,0 -3.12,1.57 -5.47,1.57 -2.34,0 -5.46,-0.78 -7.03,-2.35 -0.78,0 0.78,2.35 3.13,2.35 2.34,0.78 1.56,4.68 3.9,5.47 0,-1.57 -0.78,-1.57 -0.78,-3.13 0,-1.56 2.34,-1.56 3.13,0 -0.79,-2.34 1.56,-2.34 3.12,-2.34" />
        <path
           inkscape:connector-curvature="0"
           id="path5286"
           style="fill:#292c2f;fill-opacity:1;fill-rule:evenodd;stroke:none"
           d="m 2395.32,1411.17 c -1.56,0 -5.47,-0.78 0,-0.78 4.7,0 0.78,0.78 0,0.78" />
      </g>
    </g>
  </g>
</svg>
