<?xml version="1.0" encoding="UTF-8" standalone="no"?>
<!-- Created with Inkscape (http://www.inkscape.org/) -->

<svg
   xmlns:dc="http://purl.org/dc/elements/1.1/"
   xmlns:cc="http://creativecommons.org/ns#"
   xmlns:rdf="http://www.w3.org/1999/02/22-rdf-syntax-ns#"
   xmlns:svg="http://www.w3.org/2000/svg"
   xmlns="http://www.w3.org/2000/svg"
   xmlns:sodipodi="http://sodipodi.sourceforge.net/DTD/sodipodi-0.dtd"
   xmlns:inkscape="http://www.inkscape.org/namespaces/inkscape"
   width="256"
   height="256"
   id="svg3401"
   version="1.1"
   inkscape:version="0.48.5 r10040"
   sodipodi:docname="session_generic.svg">
  <defs
     id="defs3403" />
  <sodipodi:namedview
     id="base"
     pagecolor="#ffffff"
     bordercolor="#666666"
     borderopacity="1.0"
     inkscape:pageopacity="0.0"
     inkscape:pageshadow="2"
     inkscape:zoom="0.35"
     inkscape:cx="20.225631"
     inkscape:cy="-267.30896"
     inkscape:document-units="px"
     inkscape:current-layer="layer1"
     showgrid="false"
     fit-margin-top="0"
     fit-margin-left="0"
     fit-margin-right="0"
     fit-margin-bottom="0"
     inkscape:window-width="1913"
     inkscape:window-height="1026"
     inkscape:window-x="0"
     inkscape:window-y="25"
     inkscape:window-maximized="1" />
  <metadata
     id="metadata3406">
    <rdf:RDF>
      <cc:Work
         rdf:about="">
        <dc:format>image/svg+xml</dc:format>
        <dc:type
           rdf:resource="http://purl.org/dc/dcmitype/StillImage" />
        <dc:title></dc:title>
      </cc:Work>
    </rdf:RDF>
  </metadata>
  <g
     inkscape:label="Capa 1"
     inkscape:groupmode="layer"
     id="layer1"
     transform="translate(54.51135,-9.0532203)">
    <g
       id="g3096"
       style="fill:#666666;display:inline"
       transform="matrix(6.6068892,0,0,6.6068892,-3178.6919,-6560.7764)"
       inkscape:transform-center-x="4726.0053"
       inkscape:transform-center-y="-463.44108">
      <path
         style="font-size:medium;font-style:normal;font-variant:normal;font-weight:normal;font-stretch:normal;text-indent:0;text-align:start;text-decoration:none;line-height:normal;letter-spacing:normal;word-spacing:normal;text-transform:none;direction:ltr;block-progression:tb;writing-mode:lr-tb;text-anchor:start;baseline-shift:baseline;color:#000000;fill:#666666;fill-opacity:1;stroke:none;stroke-width:2.333606;marker:none;visibility:visible;display:inline;overflow:visible;enable-background:accumulate;font-family:Sans;-inkscape-font-specification:Sans"
         id="path3869-2"
         d="m 483.49688,996.1976 a 2.7670416,2.7676876 0 0 0 -0.9633,0.3706 c -2.9149,1.687 -5.3445,4.0565 -7.0396,6.9671 -5.3669,9.2154 -2.2478,21.1663 6.9655,26.5344 9.2132,5.3682 21.1613,2.2483 26.5282,-6.9671 5.3669,-9.2154 2.2477,-21.1662 -6.9655,-26.5344 a 2.7896549,2.7903058 0 1 0 -2.8159,4.8177 c 6.6292,3.8625 8.8264,12.2695 4.9648,18.9002 -3.8616,6.6307 -12.2666,8.8285 -18.8958,4.9659 -6.6007,-3.8459 -8.8319,-12.2085 -5.0388,-18.8261 l 0.074,-0.074 c 1.2109,-2.0792 2.9567,-3.835 5.0389,-5.0401 a 2.7670416,2.7676876 0 0 0 -1.8525,-5.1141 z"
         inkscape:connector-curvature="0" />
      <path
         sodipodi:nodetypes="cccsccc"
         style="font-size:medium;font-style:normal;font-variant:normal;font-weight:normal;font-stretch:normal;text-indent:0;text-align:start;text-decoration:none;line-height:normal;letter-spacing:normal;word-spacing:normal;text-transform:none;direction:ltr;block-progression:tb;writing-mode:lr-tb;text-anchor:start;baseline-shift:baseline;color:#000000;fill:#666666;fill-opacity:1;stroke:none;stroke-width:2;marker:none;visibility:visible;display:inline;overflow:visible;enable-background:accumulate;font-family:Sans;-inkscape-font-specification:Sans"
         id="path4710"
         d="m 491.78218,994.8896 c -1.2564,0.2812 -2.2261,1.5226 -2.1951,2.8097 l 0,19.6134 c -0.023,1.4846 1.3251,2.8501 2.8098,2.8501 1.4847,0 2.8309,-1.3655 2.8097,-2.8501 l 0,-19.6134 c 0.041,-1.7002 -1.7649,-3.182 -3.4244,-2.8097 z"
         inkscape:connector-curvature="0" />
    </g>
  </g>
</svg>
