<?xml version="1.0" encoding="UTF-8" standalone="no"?>
<!-- Created with Inkscape (http://www.inkscape.org/) -->

<svg
   xmlns:dc="http://purl.org/dc/elements/1.1/"
   xmlns:cc="http://creativecommons.org/ns#"
   xmlns:rdf="http://www.w3.org/1999/02/22-rdf-syntax-ns#"
   xmlns:svg="http://www.w3.org/2000/svg"
   xmlns="http://www.w3.org/2000/svg"
   xmlns:sodipodi="http://sodipodi.sourceforge.net/DTD/sodipodi-0.dtd"
   xmlns:inkscape="http://www.inkscape.org/namespaces/inkscape"
   width="256"
   height="256"
   id="svg3375"
   version="1.1"
   inkscape:version="0.48.5 r10040"
   sodipodi:docname="Documento nuevo 3">
  <defs
     id="defs3377" />
  <sodipodi:namedview
     id="base"
     pagecolor="#ffffff"
     bordercolor="#666666"
     borderopacity="1.0"
     inkscape:pageopacity="0.0"
     inkscape:pageshadow="2"
     inkscape:zoom="0.35"
     inkscape:cx="-250.87756"
     inkscape:cy="-132.88146"
     inkscape:document-units="px"
     inkscape:current-layer="layer1"
     showgrid="false"
     fit-margin-top="0"
     fit-margin-left="0"
     fit-margin-right="0"
     fit-margin-bottom="0"
     inkscape:window-width="1913"
     inkscape:window-height="1026"
     inkscape:window-x="0"
     inkscape:window-y="25"
     inkscape:window-maximized="1" />
  <metadata
     id="metadata3380">
    <rdf:RDF>
      <cc:Work
         rdf:about="">
        <dc:format>image/svg+xml</dc:format>
        <dc:type
           rdf:resource="http://purl.org/dc/dcmitype/StillImage" />
        <dc:title></dc:title>
      </cc:Work>
    </rdf:RDF>
  </metadata>
  <g
     inkscape:label="Capa 1"
     inkscape:groupmode="layer"
     id="layer1"
     transform="translate(-213.7347,-143.48072)">
    <g
       style="display:inline"
       id="g5285"
       transform="matrix(3.8985524,0,0,3.8985524,-4928.6684,-4928.2229)">
      <path
         sodipodi:nodetypes="cccsssccsccsccsssccc"
         inkscape:connector-curvature="0"
         d="m 1335.033,1338.4428 c -0.5973,0.1326 -1.1363,0.5106 -1.4657,1.026 l -4.4402,6.6188 c -0.4646,0.4889 -0.7021,1.1853 -0.633,1.8561 0.068,0.671 0.4435,1.304 0.9981,1.6879 0.5544,0.3837 1.2791,0.5114 1.9312,0.34 0.6523,-0.1711 1.2204,-0.6387 1.5145,-1.2456 l 4.4403,-6.6188 c 0.5383,-0.7565 0.5645,-1.8418 0.065,-2.6236 -0.5007,-0.782 -1.4969,-1.2126 -2.4094,-1.0408 z m 32.8328,0 c -0.7674,0.1498 -1.4433,0.7062 -1.7333,1.4318 -0.2906,0.7259 -0.1861,1.5962 0.2676,2.2326 l 4.4402,6.4938 c 0.2942,0.6069 0.8622,1.0743 1.5145,1.2456 0.652,0.173 1.3769,0.043 1.9312,-0.34 0.5544,-0.3838 0.929,-1.0171 0.998,-1.6879 0.068,-0.6709 -0.1689,-1.3672 -0.6327,-1.8561 l -4.4403,-6.4938 c -0.4956,-0.7542 -1.4549,-1.174 -2.3452,-1.026 z"
         id="rect4390-9"
         style="font-size:medium;font-style:normal;font-variant:normal;font-weight:normal;font-stretch:normal;text-indent:0;text-align:start;text-decoration:none;line-height:normal;letter-spacing:normal;word-spacing:normal;text-transform:none;direction:ltr;block-progression:tb;writing-mode:lr-tb;text-anchor:start;baseline-shift:baseline;color:#bebebe;fill:#666666;fill-opacity:1;stroke:none;stroke-width:1;marker:none;visibility:visible;display:inline;overflow:visible;enable-background:accumulate;font-family:Sans;-inkscape-font-specification:Sans" />
      <path
         style="font-size:medium;font-style:normal;font-variant:normal;font-weight:normal;font-stretch:normal;text-indent:0;text-align:start;text-decoration:none;line-height:normal;letter-spacing:normal;word-spacing:normal;text-transform:none;direction:ltr;block-progression:tb;writing-mode:lr-tb;text-anchor:start;color:#000000;fill:#666666;fill-opacity:1;stroke:none;stroke-width:2;marker:none;visibility:visible;display:inline;overflow:visible;enable-background:accumulate;font-family:Bitstream Vera Sans;-inkscape-font-specification:Bitstream Vera Sans"
         sodipodi:nodetypes="cccccccccccc"
         id="path3613"
         d="m 1347.1987,1300.9197 0,26.0902 -6.0095,-6.0094 c -4.6748,-3.6696 -10.8559,2.9514 -6.7423,6.7423 l 14.071,14.0713 3.3698,3.0025 3.3725,-3.0025 14.0715,-14.0713 c 3.9755,-4.8276 -2.7223,-10.6264 -6.7426,-6.7423 l -6.0097,6.0094 0,-26.0902 z"
         inkscape:connector-curvature="0" />
      <path
         style="color:#000000;fill:#666666;fill-opacity:1;fill-rule:evenodd;stroke:none;stroke-width:1;marker:none;visibility:visible;display:inline;overflow:visible;enable-background:accumulate"
         sodipodi:nodetypes="ccccccccccsccccccc"
         id="rect11668-7-5"
         d="m 1328.4789,1347.8236 0,18.7615 46.7788,0 0,-18.7615 z m 16.3226,6.6838 c 1.7814,0.022 2.3641,1.2353 2.3888,2.4039 l 0,0.2932 9.356,0 0,-0.2932 c -0.022,-1.239 1.1031,-2.3787 2.3388,-2.3787 1.2357,0 2.3564,1.1397 2.3389,2.3787 l 0,0.2932 c 0,2.5579 -2.1268,4.6902 -4.6777,4.6902 l -9.356,0 c -2.5509,0 -4.6778,-2.1323 -4.6778,-4.6902 l 0,-0.2932 c 0.2095,-1.5033 0.9616,-2.3757 2.289,-2.4039 z"
         inkscape:connector-curvature="0" />
    </g>
  </g>
</svg>
