<?xml version="1.0" encoding="UTF-8" standalone="no"?>
<!-- Created with Inkscape (http://www.inkscape.org/) -->

<svg
   xmlns:dc="http://purl.org/dc/elements/1.1/"
   xmlns:cc="http://creativecommons.org/ns#"
   xmlns:rdf="http://www.w3.org/1999/02/22-rdf-syntax-ns#"
   xmlns:svg="http://www.w3.org/2000/svg"
   xmlns="http://www.w3.org/2000/svg"
   xmlns:sodipodi="http://sodipodi.sourceforge.net/DTD/sodipodi-0.dtd"
   xmlns:inkscape="http://www.inkscape.org/namespaces/inkscape"
   id="svg7384"
   sodipodi:docname="linuxmint.svg"
   version="1.1"
   inkscape:version="0.48.5 r10040"
   height="256"
   width="256"
   inkscape:export-filename="/home/alumno/Documentos/huayra-grub-themes/huayra-liso/icons/linuxmint.png"
   inkscape:export-xdpi="270"
   inkscape:export-ydpi="270">
  <metadata
     id="metadata90">
    <rdf:RDF>
      <cc:Work
         rdf:about="">
        <dc:format>image/svg+xml</dc:format>
        <dc:type
           rdf:resource="http://purl.org/dc/dcmitype/StillImage" />
        <dc:title>Gnome Symbolic Icon Theme</dc:title>
      </cc:Work>
    </rdf:RDF>
  </metadata>
  <sodipodi:namedview
     inkscape:cy="51.51598"
     pagecolor="#555753"
     borderopacity="1"
     showborder="true"
     inkscape:bbox-paths="false"
     guidetolerance="10"
     inkscape:object-paths="true"
     inkscape:window-width="1296"
     showguides="true"
     inkscape:object-nodes="true"
     inkscape:snap-bbox="false"
     inkscape:pageshadow="2"
     inkscape:guide-bbox="true"
     inkscape:snap-nodes="false"
     bordercolor="#666666"
     objecttolerance="10"
     id="namedview88"
     showgrid="false"
     inkscape:window-maximized="0"
     inkscape:window-x="99"
     inkscape:snap-global="true"
     inkscape:window-y="26"
     gridtolerance="10"
     inkscape:window-height="1013"
     inkscape:snap-to-guides="true"
     inkscape:current-layer="layer10"
     inkscape:snap-bbox-midpoints="false"
     inkscape:zoom="1.6108871"
     inkscape:cx="70.408217"
     inkscape:snap-grids="true"
     inkscape:pageopacity="0">
    <inkscape:grid
       spacingx="1px"
       spacingy="1px"
       id="grid4866"
       empspacing="2"
       enabled="true"
       type="xygrid"
       snapvisiblegridlinesonly="true"
       visible="true" />
  </sodipodi:namedview>
  <title
     id="title9167">Gnome Symbolic Icon Theme</title>
  <defs
     id="defs7386" />
  <g
     inkscape:label="status"
     transform="translate(-201.0002,-208)"
     inkscape:groupmode="layer"
     id="layer9"
     style="display:inline" />
  <g
     inkscape:label="devices"
     transform="translate(-201.0002,-208)"
     inkscape:groupmode="layer"
     id="layer10">
    <g
       inkscape:label="accessories-calculator"
       transform="translate(153.0002,50)"
       id="g39787" />
    <rect
       style="fill:#aade87;fill-opacity:1;stroke:none"
       id="rect7114"
       width="245.43451"
       height="253.00298"
       x="206.67334"
       y="209.4985"
       rx="24.989922"
       ry="24.541098" />
    <path
       style="fill:#71c837;stroke:none"
       d="m 223.34345,240.82111 -17.4509,19.46448 0,174.50907 c 0,0 2.68475,26.17636 20.80685,26.84755 18.12209,0.67122 181.89215,0 181.89215,0 l 28.86111,-29.5323 z"
       id="path9974"
       inkscape:connector-curvature="0" />
    <g
       transform="matrix(0.76367594,0,0,0.76367594,573.2801,215.23135)"
       id="g8994">
      <path
         inkscape:connector-curvature="0"
         style="fill:#a5e96d;fill-opacity:1;fill-rule:evenodd;display:inline"
         id="path2576"
         d="m -192.80444,246.61211 c 0,-36.20721 0,-121.61981 0,-121.61981 0,-40.631738 -35.63252,-73.568785 -79.59741,-73.568785 l -45.6313,0 0,-0.09814 -123.41531,-0.539262 0,44.375066 c 0,0 10.077,0 18.94501,0 13.22405,0 15.56021,9.128791 15.56021,21.764091 l 0.0981,78.45009 c 0,40.63176 35.63267,73.56876 79.54849,73.56876 l 108.42806,0 c 13.90056,0 26.06418,-8.8031 26.06418,-22.3321 z" />
      <path
         inkscape:connector-curvature="0"
         style="opacity:0.86693552;fill:#93d060;fill-opacity:1;fill-rule:nonzero;display:inline"
         id="path3419"
         transform="matrix(2.5789823,0,0,2.5789823,-572.1992,-1033.9744)"
         d="m 142.9375,500.53125 c -10.75182,-7.40935 -18.36682,-15.92034 -24.78125,-27.1875 -12.64444,-23.35809 -9.68791,-34.95326 -41,-37.6875 -9.036289,0 -15.051217,-2 -24.5625,-2 l 0,3.3125 c 10e-7,10e-6 3.758681,1.90749 7.0625,1.90749 4.926697,1e-5 5.78125,3.41765 5.78125,8.125 l 0.03125,29.15501 c -3e-6,15.13758 13.295158,27.40625 29.65625,27.40625 l 40.375,0 c 2.96358,0 5.62572,-1.16787 7.4375,-3.03125 z" />
      <path
         inkscape:connector-curvature="0"
         style="fill:#ffffff;fill-opacity:1;fill-rule:evenodd;stroke:none;stroke-width:1;marker:none;visibility:visible;display:inline;overflow:visible;enable-background:accumulate"
         id="path4130"
         d="m -301.90879,97.617471 c -9.89481,0 -18.68665,3.673619 -25.75072,10.809539 -7.06056,7.13211 -10.76778,16.03601 -10.76776,26.08436 l 0,50.79219 23.03796,0 0,-50.79219 c 0,-3.85138 1.25668,-6.86288 4.00656,-9.6407 2.75894,-2.78671 5.68048,-4.04826 9.47396,-4.04826 3.87298,0 6.75069,1.25521 9.51565,4.04826 2.74991,2.77782 4.00661,5.78932 4.00661,9.6407 l 0,50.79219 23.03793,0 0,-50.79219 c 0,-3.85138 1.25671,-6.86288 4.00664,-9.6407 2.76494,-2.79305 5.64265,-4.04826 9.5157,-4.04826 3.7935,0 6.71497,1.26155 9.47386,4.04826 2.7499,2.77782 4.00661,5.78932 4.00661,9.6407 l 0.1252,59.34812 c 0,12.66007 -12.05639,23.32992 -27.54537,23.32992 l -74.28898,-0.29208 c -11.95283,0 -22.16152,-11.63423 -22.16152,-26.5855 l 0,-111.760904 -21.78586,0 0,116.059584 c 0,12.31389 4.50596,23.11226 13.27187,31.84426 7.49243,7.39547 16.5031,12.18937 26.62716,13.27208 l 82.71956,-2e-4 c 12.71108,0 23.87836,-4.72636 32.88749,-13.89822 l 0.0418,0 c 7.66218,-7.87223 12.14152,-17.30492 13.2301,-27.92069 l -0.0834,-63.39637 c 0,-10.04835 -3.7071,-18.95225 -10.76775,-26.08436 -7.06401,-7.13592 -15.85592,-10.809539 -25.75068,-10.809539 -9.71255,0 -18.21104,3.611659 -25.08302,10.225119 -6.85188,-6.60256 -15.29097,-10.225119 -24.99951,-10.225119 z" />
      <path
         inkscape:connector-curvature="0"
         style="fill:#5ca815;fill-opacity:1;fill-rule:evenodd;stroke:none;stroke-width:1;marker:none;visibility:visible;display:inline;overflow:visible;enable-background:accumulate"
         id="path4132"
         d="m -315.45665,216.97454 0,22.75211 54.11314,0 c 12.71103,0 23.81234,-4.74075 32.82144,-13.91261 l 0.077,0 c 7.6622,-7.87226 12.13224,-17.28632 13.22083,-27.90209 l 0,-12.91336 -22.98272,0 0,8.8395 c 0,12.66014 -12.02881,23.29018 -27.51779,23.29018 l -49.7318,-0.15373 z" />
      <path
         inkscape:connector-curvature="0"
         style="fill:#ffffff;fill-opacity:1;fill-rule:evenodd;stroke:none;stroke-width:1;marker:none;visibility:visible;display:inline;overflow:visible;enable-background:accumulate"
         id="path6141"
         d="m -328.01762,285.78602 c -52.36706,0 -97.81145,-39.69918 -97.81145,-92.01931 l -0.047,-63.52792 0,-16.19958 -33.20026,0 0,-80.71701 140.00632,0.659344 43.79618,0.09421 c 52.41412,0 97.81143,39.651923 97.81143,92.019036 l 0,159.69121 -150.55517,0 0,0 0,0 z m 129.22209,-42.83713 c 0,-34.7884 0,-116.85409 0,-116.85409 0,-39.03955 -34.23623,-70.685951 -76.47835,-70.685951 l -43.84323,0 0,-0.09421 -118.57919,-0.518133 0,37.909628 c 0,0 4.76272,0 13.28322,0 9.01821,0 19.86986,8.474786 19.86986,20.911236 l 0.0942,80.10261 c 0,39.03958 34.23641,70.68593 76.43138,70.68593 l 104.17924,0 c 13.35583,0 25.04285,-8.45815 25.04285,-21.45702 z" />
    </g>
  </g>
  <g
     inkscape:label="apps"
     transform="translate(-201.0002,-208)"
     inkscape:groupmode="layer"
     id="layer11" />
  <g
     inkscape:label="actions"
     transform="translate(-201.0002,-208)"
     inkscape:groupmode="layer"
     id="layer12" />
  <g
     inkscape:label="places"
     transform="translate(-201.0002,-208)"
     inkscape:groupmode="layer"
     id="layer13" />
  <g
     inkscape:label="mimetypes"
     transform="translate(-201.0002,-208)"
     inkscape:groupmode="layer"
     id="layer14" />
  <g
     inkscape:label="emblems"
     transform="translate(-201.0002,-208)"
     inkscape:groupmode="layer"
     id="layer15"
     style="display:inline" />
  <g
     inkscape:label="categories"
     transform="translate(-201.0002,-208)"
     inkscape:groupmode="layer"
     id="g4953"
     style="display:inline" />
</svg>
