<?xml version="1.0" encoding="UTF-8" standalone="no"?>
<svg
   xmlns:dc="http://purl.org/dc/elements/1.1/"
   xmlns:cc="http://creativecommons.org/ns#"
   xmlns:rdf="http://www.w3.org/1999/02/22-rdf-syntax-ns#"
   xmlns:svg="http://www.w3.org/2000/svg"
   xmlns="http://www.w3.org/2000/svg"
   xmlns:xlink="http://www.w3.org/1999/xlink"
   xmlns:sodipodi="http://sodipodi.sourceforge.net/DTD/sodipodi-0.dtd"
   xmlns:inkscape="http://www.inkscape.org/namespaces/inkscape"
   version="1.0"
   width="551"
   height="535"
   id="svg2"
   inkscape:version="0.48.5 r10040"
   sodipodi:docname="lxde.svg">
  <metadata
     id="metadata42">
    <rdf:RDF>
      <cc:Work
         rdf:about="">
        <dc:format>image/svg+xml</dc:format>
        <dc:type
           rdf:resource="http://purl.org/dc/dcmitype/StillImage" />
      </cc:Work>
    </rdf:RDF>
  </metadata>
  <sodipodi:namedview
     pagecolor="#ffffff"
     bordercolor="#666666"
     borderopacity="1"
     objecttolerance="10"
     gridtolerance="10"
     guidetolerance="10"
     inkscape:pageopacity="0"
     inkscape:pageshadow="2"
     inkscape:window-width="1914"
     inkscape:window-height="1031"
     id="namedview40"
     showgrid="false"
     inkscape:zoom="1.1433977"
     inkscape:cx="237.13898"
     inkscape:cy="281.10169"
     inkscape:window-x="0"
     inkscape:window-y="25"
     inkscape:window-maximized="1"
     inkscape:current-layer="svg2" />
  <defs
     id="defs4">
    <linearGradient
       id="linearGradient4835">
      <stop
         id="stop4837"
         style="stop-color:#ffffff;stop-opacity:0"
         offset="0" />
      <stop
         id="stop4839"
         style="stop-color:#ffffff;stop-opacity:0.63529414"
         offset="1" />
    </linearGradient>
    <linearGradient
       id="linearGradient4793">
      <stop
         id="stop4795"
         style="stop-color:#000000;stop-opacity:0"
         offset="0" />
      <stop
         id="stop4797"
         style="stop-color:#000000;stop-opacity:0.2"
         offset="1" />
    </linearGradient>
    <linearGradient
       id="linearGradient4777">
      <stop
         id="stop4779"
         style="stop-color:#000000;stop-opacity:0.1451"
         offset="0" />
      <stop
         id="stop4781"
         style="stop-color:#000000;stop-opacity:0"
         offset="1" />
    </linearGradient>
    <filter
       id="filter3326">
      <feGaussianBlur
         inkscape:collect="always"
         stdDeviation="2.6472166"
         id="feGaussianBlur3328" />
    </filter>
    <linearGradient
       id="linearGradient3486">
      <stop
         id="stop3488"
         style="stop-color:#000000;stop-opacity:0.502"
         offset="0" />
      <stop
         id="stop3490"
         style="stop-color:#ffffff;stop-opacity:1"
         offset="1" />
    </linearGradient>
    <filter
       id="filter4517">
      <feGaussianBlur
         inkscape:collect="always"
         stdDeviation="1.3154426"
         id="feGaussianBlur4519" />
    </filter>
    <filter
       id="filter4638">
      <feGaussianBlur
         id="feGaussianBlur4640"
         stdDeviation="1.1397656"
         inkscape:collect="always" />
    </filter>
    <radialGradient
       cx="244.97728"
       cy="276.31491"
       r="217.6875"
       fx="244.97728"
       fy="276.31491"
       id="radialGradient4712"
       xlink:href="#linearGradient3486"
       gradientUnits="userSpaceOnUse"
       gradientTransform="matrix(1.197615,0,0,1.2337965,-49.386039,-65.706911)" />
    <filter
       id="filter4773">
      <feGaussianBlur
         id="feGaussianBlur4775"
         stdDeviation="1.5496228"
         inkscape:collect="always" />
    </filter>
    <linearGradient
       x1="352.8949"
       y1="175.32442"
       x2="324.35019"
       y2="158.35384"
       id="linearGradient4783"
       xlink:href="#linearGradient4777"
       gradientUnits="userSpaceOnUse"
       gradientTransform="translate(455.65946,133.8117)" />
    <radialGradient
       cx="390.52817"
       cy="105.77066"
       r="118.78125"
       fx="390.52817"
       fy="105.77066"
       id="radialGradient4832"
       xlink:href="#linearGradient4793"
       gradientUnits="userSpaceOnUse"
       gradientTransform="matrix(-0.2772848,0.2362336,-0.420973,-0.4941271,560.77607,53.57883)" />
    <radialGradient
       cx="235.58434"
       cy="137.56808"
       r="268.90195"
       fx="235.58434"
       fy="137.56808"
       id="radialGradient4841"
       xlink:href="#linearGradient4835"
       gradientUnits="userSpaceOnUse"
       gradientTransform="matrix(0.238287,-0.271638,8.4789835e-2,7.4379539e-2,222.35079,262.49258)" />
    <filter
       id="filter4871">
      <feGaussianBlur
         id="feGaussianBlur4873"
         stdDeviation="8.1240593"
         inkscape:collect="always" />
    </filter>
  </defs>
  <path
     d="M 409.4182,207.90913 C 376.49602,170.74247 346.82758,146.73713 302.90908,209.32724 C 276.77561,246.57116 119.9471,459.92771 91.169817,493.91237 C 82.810633,503.78417 77.913739,510.64482 71.495619,514.62144 C 71.505789,501.11281 179.82639,329.57397 210.14037,279.86256 C 246.55315,220.14982 245.39703,223.63691 241.03957,223.65271 C 234.87081,223.67508 222.32397,232.77461 203.24583,253.12161 C 168.40795,290.27651 65.230009,428.56005 58.116689,426.42721 C 60.587889,416.38209 141.30002,292.61252 177.94682,241.41276 C 209.53794,197.27637 197.46219,193.91233 179.35495,198.22106 C 102.20427,216.62136 9.931786,261.10548 6.947663,259.50056 C 8.063532,257.19717 317.70918,39.455291 359.07407,35.292641 C 363.88948,34.808061 374.04962,26.219751 392.1549,19.066491 C 411.80966,11.301051 425.03759,4.9847312 428.30994,6.9816712 C 413.9666,27.088431 406.41428,31.134821 406.28666,37.620621 C 406.07768,48.241011 402.29776,65.422221 398.15851,70.908031 C 478.1747,124.21284 509.39333,305.96473 532.25238,452.15236 C 537.70757,486.85056 542.76303,512.9078 544.05234,528.39097 C 537.29859,511.0132 473.3209,280.05047 409.4182,207.90913 z"
     id="path3287"
     style="fill:#808080;stroke:none;stroke-width:1.50000000000000000" />
  <path
     inkscape:connector-curvature="0"
     d="m 410.28747,207.78572 c -32.92218,-37.16666 -62.59062,-61.172 -106.50912,1.41811 -26.13347,37.24392 -182.96198,250.60047 -211.739266,284.58513 -8.35918,9.8718 -13.256077,16.73245 -19.674197,20.70907 0.01017,-13.50863 123.198743,-187.67123 153.512723,-237.38264 36.41278,-59.71274 29.13455,-60.59858 24.77709,-60.58278 -6.16876,0.0224 -33.58356,21.36611 -52.6617,41.71311 C 163.15512,295.40062 66.099277,428.43664 58.985957,426.3038 61.457157,416.25868 157.91184,289.86535 194.55864,238.66559 226.14976,194.5292 199.20604,192.91433 181.0988,197.22306 103.94811,215.62336 10.801054,260.98207 7.816931,259.37715 389.42555,52.418968 437.32639,126.47175 544.92161,528.26756 538.16786,510.88979 474.19017,279.92706 410.28747,207.78572 z"
     id="path3287-7"
     style="opacity:0.29707115;fill:#b3b3b3;stroke:none"
     sodipodi:nodetypes="ssscssscscccs" />
</svg>
